<?xml version="1.0" encoding="utf-8"?>
<!-- Generator: Adobe Illustrator 17.1.0, SVG Export Plug-In . SVG Version: 6.00 Build 0)  -->
<!DOCTYPE svg PUBLIC "-//W3C//DTD SVG 1.1//EN" "http://www.w3.org/Graphics/SVG/1.1/DTD/svg11.dtd">
<svg version="1.1"
	 id="svg2" xmlns:cc="http://creativecommons.org/ns#" xmlns:svg="http://www.w3.org/2000/svg" xmlns:rdf="http://www.w3.org/1999/02/22-rdf-syntax-ns#" xmlns:dc="http://purl.org/dc/elements/1.1/"
	 xmlns="http://www.w3.org/2000/svg" xmlns:xlink="http://www.w3.org/1999/xlink" x="0px" y="0px" viewBox="1.6 2.1 50.8 40"
	 enable-background="new 1.6 2.1 50.8 40" xml:space="preserve">
<path id="polygon287" fill="#F7A80D" d="M16.4,27.6l-4.7,2l4.3,1.8l5-1.8L16.4,27.6z M9.4,30.1l-0.2,9l6.8,3v-9.3L9.4,30.1z
	 M23.4,30.1l-6.2,2.3v8.8l6.2-2.5V30.1z"/>
<path id="polygon311" fill="#F7A80D" d="M30.8,2.1l-4.7,2l4.3,1.8l5-1.8L30.8,2.1z M24.2,4.7v9l5.8,1.7l0.2-8.2L24.2,4.7z M37.2,5.2
	l-5.5,2.3v8.8l5.5-2.5V5.2z"/>
<path id="use3387" fill="#F7A80D" d="M8.7,14.7l-4.7,2l4.3,1.8l5-1.8L8.7,14.7z M1.7,17.2l-0.2,9l6.8,3v-9.3L1.7,17.2z M15.7,17.2
	l-6.2,2.3v8.8l6.2-2.5V17.2z"/>
<path id="use3389" fill="#F7A80D" d="M23.7,14.4l-4.7,2l4.3,1.8l5-1.8L23.7,14.4z M16.7,16.9l-0.2,9l6.8,3v-9.3L16.7,16.9z
	 M30.7,16.9l-6.2,2.3v8.8l6.2-2.5V16.9z"/>
<path id="use3391" fill="#F7A80D" d="M45.4,2.1l-4.7,2l4.3,1.8l5-1.8L45.4,2.1z M38.4,4.6l-0.2,9l6.8,3V7.2L38.4,4.6z M52.4,4.6
	l-6.2,2.3v8.8l6.2-2.5V4.6z"/>
</svg>
