<?xml version="1.0" encoding="utf-8"?>
<!-- Generator: Adobe Illustrator 17.1.0, SVG Export Plug-In . SVG Version: 6.00 Build 0)  -->
<!DOCTYPE svg PUBLIC "-//W3C//DTD SVG 1.1//EN" "http://www.w3.org/Graphics/SVG/1.1/DTD/svg11.dtd">
<svg version="1.1" id="Layer_1" xmlns="http://www.w3.org/2000/svg" xmlns:xlink="http://www.w3.org/1999/xlink" x="0px" y="0px"
	 viewBox="0 0 100 100" enable-background="new 0 0 100 100" xml:space="preserve">
<g>
	<path d="M25,6.2h50v12.5h6.2V6.2C81.2,2.8,78.5,0,75,0H25c-3.5,0-6.2,2.8-6.2,6.2v12.5H25V6.2z"/>
	<path d="M93.7,25H6.3C2.8,25,0,27.8,0,31.2v31.2c0,3.5,2.8,6.2,6.2,6.2h12.5v25c0,3.5,2.8,6.2,6.2,6.2h50c3.5,0,6.2-2.8,6.2-6.2
		v-25h12.5c3.5,0,6.2-2.8,6.2-6.2V31.2C100,27.8,97.2,25,93.7,25z M75,93.8H25V50h50V93.8z M87.5,43.8c-3.5,0-6.2-2.8-6.2-6.2
		c0-3.4,2.8-6.2,6.2-6.2c3.5,0,6.2,2.8,6.2,6.2C93.7,41,91,43.8,87.5,43.8z"/>
	<g>
		<path d="M47.8,82.3c-0.9,0.4-2.8,0.9-5.4,0.9c-7.3,0-11-4.5-11-10.5c0-7.2,5.1-11.2,11.5-11.2c2.5,0,4.4,0.5,5.2,0.9l-1,3.8
			c-1-0.4-2.3-0.8-4-0.8c-3.8,0-6.7,2.3-6.7,7c0,4.2,2.5,6.9,6.8,6.9c1.4,0,3-0.3,4-0.7L47.8,82.3z"/>
		<path d="M56.2,82.9l-6.8-21.1h5.2l2.6,8.9c0.7,2.5,1.4,4.9,1.9,7.5h0.1c0.5-2.5,1.2-5,1.9-7.4l2.7-9h5.1l-7.1,21.1H56.2z"/>
	</g>
</g>
</svg>
