<?xml version="1.0" encoding="utf-8"?>
<!-- Generator: Adobe Illustrator 17.1.0, SVG Export Plug-In . SVG Version: 6.00 Build 0)  -->
<!DOCTYPE svg PUBLIC "-//W3C//DTD SVG 1.1//EN" "http://www.w3.org/Graphics/SVG/1.1/DTD/svg11.dtd">
<svg version="1.1" id="Layer_1" xmlns="http://www.w3.org/2000/svg" xmlns:xlink="http://www.w3.org/1999/xlink" x="0px" y="0px"
	 viewBox="0 0 612 792" enable-background="new 0 0 612 792" xml:space="preserve">
<g>
	<path fill="#FFFFFF" d="M153,127.9h306v76.5h37.9v-76.5c0-20.8-16.5-37.9-37.9-37.9H153c-21.4,0-37.9,17.1-37.9,37.9v76.5H153
		V127.9z"/>
	<path fill="#FFFFFF" d="M573.4,243H38.6C17.1,243,0,260.1,0,280.9v190.9c0,21.4,17.1,37.9,37.9,37.9h76.5v153
		c0,21.4,17.1,37.9,37.9,37.9h306c21.4,0,37.9-17.1,37.9-37.9v-153h76.5c21.4,0,37.9-17.1,37.9-37.9V280.9
		C612,260.1,594.9,243,573.4,243z M459,664.1H153V396h306V664.1z M535.5,358.1c-21.4,0-37.9-17.1-37.9-37.9
		c0-20.8,17.1-37.9,37.9-37.9c21.4,0,37.9,17.1,37.9,37.9C573.4,340.9,556.9,358.1,535.5,358.1z"/>
	<g>
		<path fill="#FFFFFF" d="M292.5,593.7c-5.5,2.4-17.1,5.5-33,5.5c-44.7,0-67.3-27.5-67.3-64.3c0-44.1,31.2-68.5,70.4-68.5
			c15.3,0,26.9,3.1,31.8,5.5l-6.1,23.3c-6.1-2.4-14.1-4.9-24.5-4.9c-23.3,0-41,14.1-41,42.8c0,25.7,15.3,42.2,41.6,42.2
			c8.6,0,18.4-1.8,24.5-4.3L292.5,593.7z"/>
		<path fill="#FFFFFF" d="M343.9,597.3l-41.6-129.1h31.8l15.9,54.5c4.3,15.3,8.6,30,11.6,45.9h0.6c3.1-15.3,7.3-30.6,11.6-45.3
			l16.5-55.1h31.2l-43.5,129.1H343.9z"/>
	</g>
</g>
</svg>
