<?xml version="1.0" encoding="utf-8"?>
<!-- Generator: Adobe Illustrator 17.1.0, SVG Export Plug-In . SVG Version: 6.00 Build 0)  -->
<!DOCTYPE svg PUBLIC "-//W3C//DTD SVG 1.1//EN" "http://www.w3.org/Graphics/SVG/1.1/DTD/svg11.dtd">
<svg version="1.1" id="Layer_1" xmlns="http://www.w3.org/2000/svg" xmlns:xlink="http://www.w3.org/1999/xlink" x="0px" y="0px"
	 viewBox="0 0 100 100" enable-background="new 0 0 100 100" xml:space="preserve">
<g>
	<path fill="#FFFFFF" d="M25,6.2h50v12.5h6.2V6.2C81.2,2.8,78.5,0,75,0H25c-3.5,0-6.2,2.8-6.2,6.2v12.5H25V6.2z"/>
	<path fill="#FFFFFF" d="M93.7,25H6.3C2.8,25,0,27.8,0,31.2v31.2c0,3.5,2.8,6.2,6.2,6.2h12.5v25c0,3.5,2.8,6.2,6.2,6.2h50
		c3.5,0,6.2-2.8,6.2-6.2v-25h12.5c3.5,0,6.2-2.8,6.2-6.2V31.2C100,27.8,97.2,25,93.7,25z M75,93.8H25V50h50V93.8z M87.5,43.8
		c-3.5,0-6.2-2.8-6.2-6.2c0-3.4,2.8-6.2,6.2-6.2c3.5,0,6.2,2.8,6.2,6.2C93.7,41,91,43.8,87.5,43.8z"/>
	<text transform="matrix(1 0 0 1 30.2851 82.8994)" fill="#FFFFFF" font-family="'MyriadPro-Bold'" font-size="31.2893">CV</text>
</g>
</svg>
