<?xml version="1.0" encoding="utf-8"?>
<!-- Generator: Adobe Illustrator 17.1.0, SVG Export Plug-In . SVG Version: 6.00 Build 0)  -->
<!DOCTYPE svg PUBLIC "-//W3C//DTD SVG 1.1//EN" "http://www.w3.org/Graphics/SVG/1.1/DTD/svg11.dtd">
<svg version="1.1" id="Layer_1" xmlns="http://www.w3.org/2000/svg" xmlns:xlink="http://www.w3.org/1999/xlink" x="0px" y="0px"
	 viewBox="0 0 512 512" enable-background="new 0 0 512 512" xml:space="preserve">
<path id="dribbble-square-icon" fill="#FFFFFF" d="M163.3,333.5c-17.5-21-28.1-48-28.1-77.5c0-1.1,0.1-2.1,0.2-3.1
	c47.1-0.1,87.7-5.5,121.7-16.2c2.9,5.8,5.6,11.6,8.2,17.5C223.9,267.1,189.9,293.6,163.3,333.5z M182.1,351.5
	c20.6,16.1,46.4,25.7,74.4,25.7c15.3,0,30-3,43.5-8.2c-5.3-31.2-13.6-61.6-25-91.2C236.9,289.2,206.1,313.8,182.1,351.5z
	 M201.8,147.9c-31.1,15.8-54.5,44.7-63,79.3c41-0.3,76.5-4.8,106.2-13.5C232.5,191.2,218.1,169.3,201.8,147.9z M330.4,160.1
	c-20.5-15.8-46.1-25.3-73.9-25.3c-10.3,0-20.2,1.4-29.7,3.8c16,21.5,30.2,43.7,42.7,66.5C295.3,194.1,315.7,179.1,330.4,160.1z
	 M281.1,227.7c3.3,6.8,6.4,13.7,9.4,20.6c26.4-4.6,55.4-4.3,86.9,0.9c-1.5-27.1-11.9-51.9-28.4-71.4
	C332.1,198.9,309.4,215.5,281.1,227.7z M462.5,50v412h-412V50H462.5z M403.2,256c0-81.1-65.7-146.8-146.8-146.8
	S109.7,174.9,109.7,256c0,81.1,65.7,146.8,146.8,146.8S403.2,337.1,403.2,256z M300.3,272.4c10.3,27.4,18.1,55.6,23.5,84.4
	c27.5-18.4,47-47.9,52.3-82C348.5,270,323.2,269.2,300.3,272.4z"/>
</svg>
