<?xml version="1.0" encoding="utf-8"?>
<!-- Generator: Adobe Illustrator 17.1.0, SVG Export Plug-In . SVG Version: 6.00 Build 0)  -->
<!DOCTYPE svg PUBLIC "-//W3C//DTD SVG 1.1//EN" "http://www.w3.org/Graphics/SVG/1.1/DTD/svg11.dtd">
<svg version="1.1" id="Layer_1" xmlns="http://www.w3.org/2000/svg" xmlns:xlink="http://www.w3.org/1999/xlink" x="0px" y="0px"
	 viewBox="0 0 612 792" enable-background="new 0 0 612 792" xml:space="preserve">
<path fill="#3498DB" d="M534.3,239.9c-1.2,45.9-38.6,82.6-84.5,82.6c-46.5,0-84.5-37.9-84.5-84.5c0-4.3,0.6-8.6,1.2-12.9H140.1
	c-67.3,0-122.4,54.5-122.4,122.4v45.3c0,56.9,39.2,104.7,91.8,118.7l0,0L74.7,598l143.8-82.6h256.4c67.3,0,122.4-54.5,122.4-122.4
	v-45.3C597.9,301.1,572.2,260.7,534.3,239.9z"/>
<path d="M449.8,161c-42.8,0-77.7,34.9-77.7,77.7s34.9,77.7,77.7,77.7s77.7-34.9,77.7-77.7S492.7,161,449.8,161z M449.8,303
	c-35.5,0-64.3-28.8-64.3-64.3s28.8-64.3,64.3-64.3s64.3,28.8,64.3,64.3S485.3,303,449.8,303z"/>
<path d="M1747.3,1854.4c36.7,142.6,175.6,183.6,324.4,214.2c-108.3,0-216,0-324.4,0C1747.3,1997.6,1747.3,1926,1747.3,1854.4z"/>
<path d="M485.3,229.5c0,1.8,0,3.7,0,6.1c-1.2,11-6.1,18.4-11.6,25.7c3.7-9.8,9.8-21.4,7.3-34.9s-13.5-19.6-24.5-25.1
	c0,17.1,0,36.7,0,54.5c0,6.1,0.6,12.2-0.6,17.7c-1.8,10.4-9.2,16.5-19.6,17.7c-1.8,0-3.1,0-4.9,0c-4.9-1.2-9.2-2.4-10.4-6.7
	c0-1.2,0-2.4,0-3.1c3.1-11.6,15.3-23.3,31.2-17.7c0-30.6,0-61.2,0-91.8c6.1,13.5,12.2,24.5,21.4,34.3
	C479.8,212.4,484.1,219.1,485.3,229.5z"/>
</svg>
