<?xml version="1.0" encoding="utf-8"?>
<!-- Generator: Adobe Illustrator 17.1.0, SVG Export Plug-In . SVG Version: 6.00 Build 0)  -->
<!DOCTYPE svg PUBLIC "-//W3C//DTD SVG 1.1//EN" "http://www.w3.org/Graphics/SVG/1.1/DTD/svg11.dtd">
<svg version="1.1" id="Layer_1" xmlns="http://www.w3.org/2000/svg" xmlns:xlink="http://www.w3.org/1999/xlink" x="0px" y="0px"
	 viewBox="0 0 79.8 79.8" enable-background="new 0 0 79.8 79.8" xml:space="preserve">
<path fill="#26AAE1" d="M64.8,39.9C64.8,26.1,53.7,15,39.9,15C26.1,15,15,26.1,15,39.9h10c0-8.3,6.7-15,15-15s15,6.7,15,15H64.8"/>
<path fill="#FFFFFF" d="M79.8,39.9C79.8,17.9,61.9,0,39.9,0C17.9,0,0,17.9,0,39.9c0,22,17.9,39.9,39.9,39.9l0,0l0,0v-10l0,0
	C23.4,69.8,10,56.4,10,39.9C10,23.4,23.4,10,39.9,10c16.5,0,29.9,13.4,29.9,29.9H79.8"/>
</svg>
