<?xml version="1.0" encoding="utf-8"?>
<!-- Generator: Adobe Illustrator 17.1.0, SVG Export Plug-In . SVG Version: 6.00 Build 0)  -->
<!DOCTYPE svg PUBLIC "-//W3C//DTD SVG 1.1//EN" "http://www.w3.org/Graphics/SVG/1.1/DTD/svg11.dtd">
<svg version="1.1" id="Layer_1" xmlns="http://www.w3.org/2000/svg" xmlns:xlink="http://www.w3.org/1999/xlink" x="0px" y="0px"
	 viewBox="0 0 100 68" enable-background="new 0 0 100 68" xml:space="preserve">
<polygon fill="#000000" points="76,36 76,47.7 50.9,62.7 25,47.7 25,36 51,48.9 "/>
<path fill="#000000" d="M51,45.7l48.6-24.2L51,0.9L1,21.5l10.9,5.3C11.7,33,11,45.3,10.2,49.3c-0.7,3.3-3.8,7.9-9.8,13.9
	C0.2,63.4-0.1,63.7,0,64c0.1,0.3,0.6,0.3,0.8,0.3c1.5,0,5.7-1.4,7.9-2.9c0.3-0.2,0.6-0.3,0.9-0.3c1,0,1.5,1.6,2,3.1
	c0.5,1.4,1,2.8,1.9,3.2c0.1,0.1,0.3,0.1,0.4,0.1c0.3,0,0.6-0.2,0.9-0.5c1.6-1.8,2.8-9.2,2-15.8C16,45.2,16.4,34.8,17,29.2L51,45.7z
	 M50.3,11.2c2.2,0,4.1,1.8,4.1,4.1s-1.8,4.1-4.1,4.1s-4.1-1.8-4.1-4.1S48.1,11.2,50.3,11.2z"/>
</svg>
