<?xml version="1.0" encoding="utf-8"?>
<!-- Generator: Adobe Illustrator 17.1.0, SVG Export Plug-In . SVG Version: 6.00 Build 0)  -->
<!DOCTYPE svg PUBLIC "-//W3C//DTD SVG 1.1//EN" "http://www.w3.org/Graphics/SVG/1.1/DTD/svg11.dtd">
<svg version="1.1" id="Your_Icon" xmlns="http://www.w3.org/2000/svg" xmlns:xlink="http://www.w3.org/1999/xlink" x="0px" y="0px"
	 viewBox="0 146 612 514.1" enable-background="new 0 146 612 514.1" xml:space="preserve">
<g>
	<path fill="#000000" d="M230.1,241.4c0,0-6.1-56.9,75.9-56.9s75.9,56.9,75.9,56.9h37.9c0,0-1.8-95.5-114.4-95.5
		c-111.4,0-113.2,95.5-113.2,95.5H230.1z"/>
	<path fill="#000000" d="M326.2,427.5L612,374.2v-56.9c0-42.2-5.5-55.1-58.1-55.1H58.8c-52,0-58.8,12.9-58.8,55.1v285.8
		C0,644.7,6.7,660,58.8,660h495.1c52.6,0,58.1-15.3,58.1-56.9V393.2l-287.6,52.6h-36.7L6.1,393.2v-19l280.3,53.9h1.2l36.7-0.6
		L326.2,427.5L326.2,427.5z M287.6,445.8h36.7"/>
</g>
</svg>
