<?xml version="1.0" encoding="utf-8"?>
<!-- Generator: Adobe Illustrator 17.1.0, SVG Export Plug-In . SVG Version: 6.00 Build 0)  -->
<!DOCTYPE svg PUBLIC "-//W3C//DTD SVG 1.1//EN" "http://www.w3.org/Graphics/SVG/1.1/DTD/svg11.dtd">
<svg version="1.1" id="Layer_1" xmlns="http://www.w3.org/2000/svg" xmlns:xlink="http://www.w3.org/1999/xlink" x="0px" y="0px"
	 viewBox="0 0 512 512" enable-background="new 0 0 512 512" xml:space="preserve">
<path id="github-2-square-icon" fill="#FFFFFF" d="M153.7,307.2c0,0.8-0.9,1.4-1.9,1.4s-1.9-0.6-1.9-1.4c0-0.8,0.9-1.4,1.9-1.4
	C152.9,305.8,153.7,306.4,153.7,307.2z M156.4,310.3c-1.2,0-2.3,0.7-2.3,1.6s1,1.6,2.3,1.6c1.2,0,2.3-0.7,2.3-1.6
	S157.6,310.3,156.4,310.3z M161.5,315.6c-1.4,0-2.5,0.8-2.5,1.8c0,1,1.1,1.8,2.5,1.8s2.5-0.8,2.5-1.8
	C164,316.4,162.9,315.6,161.5,315.6z M147.1,302.1c-0.9,0-1.6,0.5-1.6,1.2c0,0.6,0.7,1.2,1.6,1.2c0.9,0,1.6-0.5,1.6-1.2
	C148.7,302.6,148,302.1,147.1,302.1z M167.3,320.9c-1.5,0-2.8,0.9-2.8,2c0,1.1,1.2,2,2.8,2c1.5,0,2.8-0.9,2.8-2
	C170.1,321.7,168.9,320.9,167.3,320.9z M142.4,299.1c-0.8,0-1.5,0.5-1.5,1.1c0,0.6,0.7,1.1,1.5,1.1c0.8,0,1.5-0.5,1.5-1.1
	C143.9,299.6,143.2,299.1,142.4,299.1z M175.3,325.8c-1.7,0-3.1,1-3.1,2.2s1.4,2.2,3.1,2.2c1.7,0,3.1-1,3.1-2.2
	S177,325.8,175.3,325.8z M205.7,329.3c-1.7,0-3.1,1-3.1,2.2s1.4,2.2,3.1,2.2c1.7,0,3.1-1,3.1-2.2S207.4,329.3,205.7,329.3z
	 M195.5,329.1c-1.7,0-3.1,1-3.1,2.2c0,1.2,1.4,2.2,3.1,2.2c1.7,0,3.1-1,3.1-2.2C198.6,330.1,197.2,329.1,195.5,329.1z M462,50v412
	H50V50H462z M420.8,250.7c-18.3-1.8-36.5-1.9-54.2-0.6c2.8-9.1,4.3-19.3,4.2-31c-0.2-24.8-8.5-44.1-21.5-60.1
	c2.5-15.1,0.6-30.2-4.1-45.2c-18.5,1.5-35.2,7.6-50.1,18.1c-27.8-5.6-55.6-6-83.3,0c-17.3-11.7-34.4-17.4-51.1-18.1
	c-5,16.6-5.7,33-1.5,49.1c-14.6,15.5-20.2,34.4-19.9,55.2c0.2,11.9,2,22.6,5.4,32c-17.4-1.3-35.4-1.1-53.4,0.6l0.3,3.1
	c18.4-1.8,36.6-1.9,54.3-0.5c0.6,1.6,1.3,3.2,2.1,4.7c-19.2-0.5-36.5,1.2-52.7,5.1l0.7,3c16.4-4,34-5.7,53.7-5
	c13,23.1,38,36.7,74.5,41c-8.5,6.9-13,15-14.2,24.2c0,0-3.8,0-19.3,0c-25.9,0-33-33-59.8-29.8c26,12.9,20.8,54.2,62.5,54.2
	c14,0,17,0,17.5,0v37.8c0.2,6.1-2.5,10.2-6.8,13c14.9,1.5,26.1-5.9,26.1-15.1c0-9.1,0-45.6,0-50c0-4.5,4.7-4.8,4.7-4.8v58.4
	c0.2,5.8-2.6,9.1-5.6,12.3c13.1,0.5,25.5-2.1,26.1-13.3c0,0,0-53.1,0-55.9c0-2.8,4.6-2.9,4.6,0s0,53.3,0,53.3
	c0.1,9.4,8.3,17.1,25.6,15.9c-4.6-3.7-6-7.5-6-12.9c0-5.4,0-57.7,0-57.7s4.8-0.2,4.8,4.8c0,5,0,40.3,0,48.7
	c0,10.8,13,15.3,27.9,14.9c-4.9-3.6-8.2-8-8.2-13.8v-58.6c-0.5-8.6-4-16.7-10.9-24.3c33.3-5.1,57.3-18.4,69.3-42.2
	c19.7-0.7,37.4,0.9,53.8,5l0.7-3c-16.3-4-33.7-5.7-53.1-5.1c0.7-1.5,1.3-3,1.9-4.6c17.9-1.4,36.4-1.3,54.9,0.5L420.8,250.7z
	 M185.1,328.7c-1.7,0-3.1,1-3.1,2.2c0,1.2,1.4,2.2,3.1,2.2c1.7,0,3.1-1,3.1-2.2C188.2,329.7,186.8,328.7,185.1,328.7z"/>
</svg>
