<?xml version="1.0" encoding="utf-8"?>
<!-- Generator: Adobe Illustrator 17.1.0, SVG Export Plug-In . SVG Version: 6.00 Build 0)  -->
<!DOCTYPE svg PUBLIC "-//W3C//DTD SVG 1.1//EN" "http://www.w3.org/Graphics/SVG/1.1/DTD/svg11.dtd">
<svg version="1.1" id="Layer_1" xmlns="http://www.w3.org/2000/svg" xmlns:xlink="http://www.w3.org/1999/xlink" x="0px" y="0px"
	 viewBox="0 0 92.2 100" enable-background="new 0 0 92.2 100" xml:space="preserve">
<path fill="#FFFFFF" d="M85,0H16.9H7.4C3.5,0,0,3.2,0,7c0,0,0,0,0,0.1c0,0.2,0.3,0.6,0.3,0.8l7.8,70.3c0.1,1,0.5,2,1,2.8
	c0.7,1.4,1.8,2.4,3.2,3.1l31,15.2c1,0.5,2.1,0.7,3.1,0.7c1,0,2.1-0.2,3.1-0.7l30.9-15.2c2.5-1.3,4-3.9,3.9-6.7l7.6-69.7
	c0-0.2,0.1-0.6,0.1-0.8c0,0,0,0,0-0.1C92.2,3.2,88.9,0,85,0z M27.4,47.9l11.8,11.8c2.3,2.3,2.3,6.1,0,8.4c-2.3,2.3-6.1,2.3-8.4,0
	L13.6,50.9c0,0-0.2,0-0.2-0.1c-0.9-0.9-1.8-2-1.8-3.1l0,0c0-0.3,0.1-0.7,0.1-1.2c0-1.5,0.7-3.1,1.8-4.3c0,0,0.1,0,0.1-0.1l5.5-5.5
	l11.8-11.8c2.3-2.3,6.1-2.3,8.4,0c2.3,2.3,2.3,6.1,0,8.4L26.2,46.7L27.4,47.9z M80.6,50.8C80.5,50.8,80.5,50.9,80.6,50.8l-5.5,5.5
	L63.4,68.1c-2.3,2.3-6.1,2.3-8.4,0c-2.3-2.3-2.3-6.1,0-8.4l13-13l-1.4-1.4L54.8,33.5c-2.3-2.3-2.3-6.1,0-8.4c2.3-2.3,6.1-2.3,8.4,0
	l17.2,17.2c0,0,0.1,0,0.1,0.1c0.9,0.9,1.4,2,1.6,3.1c0,0.2,0,0.5,0.1,0.6c0,0.1,0,0.3,0,0.5C82.4,48.2,81.8,49.7,80.6,50.8z"/>
</svg>
