<svg xmlns="http://www.w3.org/2000/svg" xmlns:xlink="http://www.w3.org/1999/xlink" version="1.1" id="Your_Icon" x="0px" y="0px" width="100px" height="100px" viewBox="0 0 100 100" enable-background="new 0 0 100 100" xml:space="preserve">
<path d="M94.086,40.933c-0.591-2.89-1.474-5.733-2.623-8.45c-1.128-2.667-2.524-5.239-4.149-7.645  c-1.61-2.382-3.458-4.623-5.494-6.658c-2.036-2.036-4.276-3.884-6.659-5.494c-2.406-1.625-4.978-3.021-7.645-4.149  c-2.716-1.149-5.559-2.031-8.45-2.623C56.102,5.308,53.052,5,50,5c-3.052,0-6.103,0.308-9.067,0.914  c-2.89,0.591-5.733,1.474-8.45,2.623c-2.667,1.128-5.239,2.524-7.645,4.149c-2.382,1.61-4.623,3.458-6.659,5.494  c-2.036,2.036-3.884,4.276-5.494,6.658c-1.625,2.406-3.021,4.978-4.149,7.645c-1.149,2.717-2.031,5.559-2.623,8.45  C5.308,43.897,5,46.948,5,50s0.308,6.103,0.914,9.067c0.591,2.89,1.474,5.733,2.623,8.45c1.128,2.667,2.524,5.239,4.149,7.645  c1.61,2.382,3.458,4.623,5.494,6.659c2.036,2.036,4.276,3.884,6.659,5.494c2.406,1.625,4.978,3.021,7.645,4.149  c2.716,1.149,5.559,2.032,8.45,2.623C43.897,94.692,46.948,95,50,95c3.052,0,6.103-0.308,9.067-0.914  c2.89-0.591,5.733-1.474,8.45-2.623c2.667-1.128,5.239-2.524,7.645-4.149c2.382-1.61,4.623-3.458,6.659-5.494  c2.036-2.036,3.884-4.276,5.494-6.659c1.625-2.406,3.021-4.978,4.149-7.645c1.149-2.717,2.031-5.559,2.623-8.45  C94.692,56.103,95,53.052,95,50S94.692,43.897,94.086,40.933z M77.988,49.669l-7.46-18.356l21.919,18.356H77.988z M69.442,69.599  l-19.481,8.045c-0.045-0.022-0.095-0.035-0.149-0.035c-0.053,0-0.103,0.013-0.148,0.034l-19.39-8.046l-8.23-19.453  c0.021-0.044,0.033-0.093,0.033-0.146s-0.012-0.101-0.033-0.145l8.23-19.423l19.391-8.076c0.045,0.022,0.095,0.034,0.148,0.034  c0.053,0,0.103-0.013,0.148-0.034l19.481,8.076l7.892,19.418c-0.023,0.045-0.036,0.096-0.036,0.151s0.013,0.105,0.036,0.151  L69.442,69.599z M50.128,21.701V7.547l18.393,21.779L50.128,21.701z M49.451,21.702l-18.303,7.623L49.451,7.55V21.702z   M21.391,49.669H7.544l21.605-18.31L21.391,49.669z M21.391,50.346l7.759,18.34L7.543,50.346H21.391z M49.451,78.298v14.152  L31.147,70.703L49.451,78.298z M50.128,78.299l18.394-7.597L50.128,92.454V78.299z M77.988,50.346h14.461L70.527,68.732  L77.988,50.346z M93.059,49.291L70.2,30.149l10.339-10.513C88.126,27.266,92.873,37.725,93.059,49.291z M80.058,19.159  L69.721,29.671L50.522,6.937C62.009,7.074,72.413,11.707,80.058,19.159z M49.099,6.944l-19.106,22.73l-10.361-10.21  C27.221,11.917,37.607,7.18,49.099,6.944z M19.156,19.945l10.359,10.209L6.941,49.286C7.126,37.877,11.748,27.547,19.156,19.945z   M6.941,50.715l22.574,19.162L19.156,80.055C11.748,72.454,7.126,62.124,6.941,50.715z M19.633,80.536l10.36-10.18l19.106,22.7  C37.607,92.82,27.221,88.083,19.633,80.536z M50.523,93.063L69.721,70.36l10.338,10.48C72.415,88.292,62.01,92.926,50.523,93.063z   M80.54,80.363L70.2,69.882l22.859-19.172C92.873,62.275,88.127,72.733,80.54,80.363z"/>
</svg>