<?xml version="1.0" encoding="utf-8"?>
<!-- Generator: Adobe Illustrator 17.1.0, SVG Export Plug-In . SVG Version: 6.00 Build 0)  -->
<!DOCTYPE svg PUBLIC "-//W3C//DTD SVG 1.1//EN" "http://www.w3.org/Graphics/SVG/1.1/DTD/svg11.dtd">
<svg version="1.1" id="Your_Icon" xmlns="http://www.w3.org/2000/svg" xmlns:xlink="http://www.w3.org/1999/xlink" x="0px" y="0px"
	 viewBox="0 0 100 100" enable-background="new 0 0 100 100" xml:space="preserve">
<path fill="#FFFFFF" d="M94.1,40.9c-0.6-2.9-1.5-5.7-2.6-8.5c-1.1-2.7-2.5-5.2-4.1-7.6c-1.6-2.4-3.5-4.6-5.5-6.7
	c-2-2-4.3-3.9-6.7-5.5c-2.4-1.6-5-3-7.6-4.1c-2.7-1.1-5.6-2-8.5-2.6c-3-0.6-6-0.9-9.1-0.9c-3.1,0-6.1,0.3-9.1,0.9
	c-2.9,0.6-5.7,1.5-8.5,2.6c-2.7,1.1-5.2,2.5-7.6,4.1c-2.4,1.6-4.6,3.5-6.7,5.5s-3.9,4.3-5.5,6.7c-1.6,2.4-3,5-4.1,7.6
	c-1.1,2.7-2,5.6-2.6,8.5c-0.6,3-0.9,6-0.9,9.1s0.3,6.1,0.9,9.1c0.6,2.9,1.5,5.7,2.6,8.4c1.1,2.7,2.5,5.2,4.1,7.6
	c1.6,2.4,3.5,4.6,5.5,6.7c2,2,4.3,3.9,6.7,5.5c2.4,1.6,5,3,7.6,4.1c2.7,1.1,5.6,2,8.5,2.6c3,0.6,6,0.9,9.1,0.9
	c3.1,0,6.1-0.3,9.1-0.9c2.9-0.6,5.7-1.5,8.4-2.6c2.7-1.1,5.2-2.5,7.6-4.1c2.4-1.6,4.6-3.5,6.7-5.5c2-2,3.9-4.3,5.5-6.7
	c1.6-2.4,3-5,4.1-7.6c1.1-2.7,2-5.6,2.6-8.5c0.6-3,0.9-6,0.9-9.1S94.7,43.9,94.1,40.9z M78,49.7l-7.5-18.4l21.9,18.4H78z M69.4,69.6
	l-19.5,8c0,0-0.1,0-0.1,0c-0.1,0-0.1,0-0.1,0l-19.4-8L22,50.1c0,0,0-0.1,0-0.1s0-0.1,0-0.1l8.2-19.4l19.4-8.1c0,0,0.1,0,0.1,0
	c0.1,0,0.1,0,0.1,0l19.5,8.1l7.9,19.4c0,0,0,0.1,0,0.2s0,0.1,0,0.2L69.4,69.6z M50.1,21.7V7.5l18.4,21.8L50.1,21.7z M49.5,21.7
	l-18.3,7.6L49.5,7.6V21.7z M21.4,49.7H7.5l21.6-18.3L21.4,49.7z M21.4,50.3l7.8,18.3L7.5,50.3H21.4z M49.5,78.3v14.2L31.1,70.7
	L49.5,78.3z M50.1,78.3l18.4-7.6L50.1,92.5V78.3z M78,50.3h14.5L70.5,68.7L78,50.3z M93.1,49.3L70.2,30.1l10.3-10.5
	C88.1,27.3,92.9,37.7,93.1,49.3z M80.1,19.2L69.7,29.7L50.5,6.9C62,7.1,72.4,11.7,80.1,19.2z M49.1,6.9L30,29.7L19.6,19.5
	C27.2,11.9,37.6,7.2,49.1,6.9z M19.2,19.9l10.4,10.2L6.9,49.3C7.1,37.9,11.7,27.5,19.2,19.9z M6.9,50.7l22.6,19.2L19.2,80.1
	C11.7,72.5,7.1,62.1,6.9,50.7z M19.6,80.5L30,70.4l19.1,22.7C37.6,92.8,27.2,88.1,19.6,80.5z M50.5,93.1l19.2-22.7l10.3,10.5
	C72.4,88.3,62,92.9,50.5,93.1z M80.5,80.4L70.2,69.9l22.9-19.2C92.9,62.3,88.1,72.7,80.5,80.4z"/>
</svg>
