<?xml version="1.0" encoding="utf-8"?>
<!-- Generator: Adobe Illustrator 17.1.0, SVG Export Plug-In . SVG Version: 6.00 Build 0)  -->
<!DOCTYPE svg PUBLIC "-//W3C//DTD SVG 1.1//EN" "http://www.w3.org/Graphics/SVG/1.1/DTD/svg11.dtd">
<svg version="1.1" id="Layer_3" xmlns="http://www.w3.org/2000/svg" xmlns:xlink="http://www.w3.org/1999/xlink" x="0px" y="0px"
	 viewBox="0 0 531.4 269.3" enable-background="new 0 0 531.4 269.3" xml:space="preserve">
<ellipse fill="#6181B6" cx="265.7" cy="134.6" rx="265.7" ry="134.6"/>
<g>
	<path fill="#FFFFFF" d="M150.7,93.3c12.1,0,20.1,2.2,24.1,6.7c4,4.5,5,12.1,2.9,22.9c-2.2,11.3-6.4,19.3-12.7,24.2
		c-6.3,4.8-15.8,7.2-28.6,7.2h-19.3l11.9-61H150.7z M73.3,216.1h31.8l7.5-38.8h27.2c12,0,21.9-1.3,29.6-3.8
		c7.8-2.5,14.8-6.7,21.1-12.7c5.3-4.9,9.6-10.3,12.9-16.2c3.3-5.9,5.6-12.4,7-19.5c3.4-17.3,0.8-30.7-7.6-40.4
		c-8.4-9.6-21.8-14.5-40.2-14.5h-61.1L73.3,216.1z"/>
	<path fill="#FFFFFF" d="M233.8,31.6h31.5l-7.5,38.8h28.1c17.7,0,29.8,3.1,36.5,9.2c6.7,6.2,8.7,16.1,6,29.9l-13.2,67.8h-32
		l12.5-64.5c1.4-7.3,0.9-12.3-1.6-15c-2.5-2.7-7.7-4-15.8-4h-25.2L237,177.3h-31.5L233.8,31.6z"/>
	<path fill="#FFFFFF" d="M398.5,93.3c12.1,0,20.1,2.2,24.1,6.7c4,4.5,5,12.1,2.9,22.9c-2.2,11.3-6.4,19.3-12.7,24.2
		c-6.3,4.8-15.8,7.2-28.6,7.2h-19.3l11.9-61H398.5z M321.2,216.1h31.8l7.5-38.8h27.2c12,0,21.9-1.3,29.6-3.8
		c7.8-2.5,14.8-6.7,21.1-12.7c5.3-4.9,9.6-10.3,12.9-16.2c3.3-5.9,5.6-12.4,7-19.5c3.4-17.3,0.8-30.7-7.6-40.4s-21.8-14.5-40.2-14.5
		h-61.1L321.2,216.1z"/>
</g>
</svg>
