<?xml version="1.0" encoding="utf-8"?>
<!-- Generator: Adobe Illustrator 17.1.0, SVG Export Plug-In . SVG Version: 6.00 Build 0)  -->
<!DOCTYPE svg PUBLIC "-//W3C//DTD SVG 1.1//EN" "http://www.w3.org/Graphics/SVG/1.1/DTD/svg11.dtd">
<svg version="1.1" id="Layer_1" xmlns="http://www.w3.org/2000/svg" xmlns:xlink="http://www.w3.org/1999/xlink" x="0px" y="0px"
	 viewBox="0 0 100 100" enable-background="new 0 0 100 100" xml:space="preserve">
<path fill="#FFFFFF" d="M19.8,97.5h59.4c4.3,0,7.7-3.5,7.7-7.7V10.2c0-4.3-3.5-7.7-7.7-7.7H19.8C15.5,2.5,12,6,12,10.2v79.6
	C12,94,15.5,97.5,19.8,97.5z M37.7,39.8c0.4-1.6,2.3-2.7,4.1-3.7l0.1-0.1c0.5-0.3,1.5-0.8,2.4-1.2l0.3-0.1c0.8-0.3,1.7-0.6,1.8-1.6
	c0.1-0.7-0.3-1.2-0.7-1.7c-0.1-0.1-0.2-0.3-0.3-0.4c-1.7-2.3-2.4-4.7-2.3-7.4c0.2-3.4,2.3-5.7,5.5-6c0.3,0,0.7-0.1,1-0.1
	c1.9,0,3.5,0.7,4.6,1.9c1.3,1.4,1.9,3.4,1.7,5.9c-0.1,1.3-0.7,3.1-1.4,4.4c-0.2,0.3-0.4,0.7-0.7,1c-0.7,0.9-1.4,1.8-1.1,2.9
	c0.2,0.8,1.6,1.3,2.5,1.6l0.2,0.1c0.2,0.1,0.3,0.1,0.4,0.2c1.6,0.7,4.7,2.1,5.4,4.2c0.2,0.5,0.3,1.8,0,2.7c-1,2.7-6.8,3-11.8,3
	c-2.2,0-4.7,0-6.9-0.5c-1.6-0.3-3.7-0.8-4.6-2.3C37.5,41.8,37.4,40.9,37.7,39.8z M26.4,60.7h46.2c1.1,0,1.9,0.9,1.9,1.9
	s-0.9,1.9-1.9,1.9H26.4c-1.1,0-1.9-0.9-1.9-1.9C24.5,61.5,25.3,60.7,26.4,60.7z M26.4,69.7h46.2c1.1,0,1.9,0.9,1.9,1.9
	c0,1.1-0.9,1.9-1.9,1.9H26.4c-1.1,0-1.9-0.9-1.9-1.9S25.3,69.7,26.4,69.7z M26.4,78.7h46.2c1.1,0,1.9,0.9,1.9,1.9
	c0,1.1-0.9,1.9-1.9,1.9H26.4c-1.1,0-1.9-0.9-1.9-1.9C24.5,79.5,25.3,78.7,26.4,78.7z"/>
</svg>
