<?xml version="1.0" encoding="utf-8"?>
<!-- Generator: Adobe Illustrator 17.1.0, SVG Export Plug-In . SVG Version: 6.00 Build 0)  -->
<!DOCTYPE svg PUBLIC "-//W3C//DTD SVG 1.1//EN" "http://www.w3.org/Graphics/SVG/1.1/DTD/svg11.dtd">
<svg version="1.1" id="Layer_1" xmlns="http://www.w3.org/2000/svg" xmlns:xlink="http://www.w3.org/1999/xlink" x="0px" y="0px"
	 viewBox="0 0 100 100" enable-background="new 0 0 100 100" xml:space="preserve">
<path fill="#FFFFFF" d="M72.2,56.5c-1.4-1.4-3.3-2.3-5.4-2.5c-0.4,0-1.2-0.2-1.8-0.7c-0.4-0.4-0.7-1-0.7-1.6
	c-0.1-1.3-0.5-2.6-1.1-3.8l3.3-3.3c1.2-1.2,2.9-1.6,4.5-1.2c6.2,1.6,13-0.4,17.8-5.2c4.1-4.1,6-9.7,5.6-15.1l-15.8,8.7l-7.2-4.4
	l0.2-8.4l16.3-9c-7.6-6.8-19.3-6.5-26.6,0.8c-4.7,4.7-6.5,11.1-5.4,17.2c0.3,1.4-0.1,2.9-1.3,4.1l-8.5,8.5L32.3,26.9l-0.1-0.1
	c-0.3-1.4-0.9-3.5-2.9-5.3c-2.1-1.8-5.6-4.7-7.9-6.3c-2.7-1.9-6-1.7-8.3,0.7l-1.6,1.6c-2.3,2.3-2.6,5.6-0.7,8.3
	c1.6,2.2,4.4,5.8,6.3,7.9c1.7,2,3.8,2.6,5.3,2.9l0,0l0.1,0.1l13.5,13.9L8.1,78.5c-3.4,3.4-3.4,8.9,0,12.2c3.4,3.4,8.9,3.4,12.2,0
	l23-23c1.1,0.7,2.4,1,3.8,1.1c0.6,0,1.2,0.3,1.6,0.7c0.6,0.6,0.7,1.4,0.7,1.8c0.2,2.1,1,4,2.5,5.4l14.7,14.7
	c4.8,4.8,12.5,4.8,17.3,0l2.9-2.9c4.8-4.8,4.8-12.5,0-17.3L72.2,56.5z M25.9,33.4c0,0-1-1.2-1.8-1.3c-1-0.2-2.4-0.4-3.4-1.5
	c-1.8-2-4.5-5.4-6-7.5c-0.6-0.9-0.5-1.5,0.1-2.1l1.6-1.6c0.6-0.6,1.2-0.8,2.1-0.1c2.1,1.5,5.5,4.2,7.5,6c1.1,1,1.3,2.3,1.5,3.4
	c0.2,0.9,1.3,1.8,1.3,1.8l13.9,13.4l0,0l4.7,4.5L43.9,52l-4.5-4.7l0,0L25.9,33.4z M83.5,85.1L80.6,88c-2.9,2.9-7.5,2.9-10.4,0
	L55.4,73.3c-0.6-0.6-1-1.5-1.1-2.4c-0.1-1.7-0.8-3.5-2.1-4.8c-1.3-1.3-3.1-2.1-4.8-2.1c-0.1,0-0.2,0-0.2,0c-0.1,0-0.2,0-0.3,0
	c0,0,0,0,0,0c-0.1,0-0.2,0-0.2-0.1c0,0,0,0-0.1,0c-0.1,0-0.1,0-0.2-0.1c0,0-0.1,0-0.1,0c-0.1,0-0.1-0.1-0.2-0.1c0,0-0.1,0-0.1-0.1
	c-0.1,0-0.1-0.1-0.2-0.1c0,0-0.1,0-0.1-0.1c0,0-0.1-0.1-0.1-0.1c0,0-0.1-0.1-0.2-0.1c0,0-0.1-0.1-0.1-0.1C45.2,63,45.1,63,45,62.9
	c-1.4-1.4-1.4-3.8,0-5.2l8.1-8.1c1.4-1.4,3.8-1.4,5.2,0c0.1,0.1,0.2,0.2,0.2,0.2c0,0,0.1,0.1,0.1,0.1c0,0.1,0.1,0.1,0.1,0.2
	c0,0,0.1,0.1,0.1,0.1c0,0,0.1,0.1,0.1,0.1c0,0.1,0.1,0.1,0.1,0.2c0,0,0,0.1,0.1,0.1c0,0.1,0.1,0.1,0.1,0.2c0,0,0,0.1,0,0.1
	c0,0.1,0.1,0.1,0.1,0.2c0,0,0,0,0,0.1c0,0.1,0,0.2,0.1,0.2c0,0,0,0,0,0c0,0.1,0,0.2,0,0.3c0,0.1,0,0.2,0,0.2
	c0.1,1.8,0.8,3.5,2.1,4.8c1.3,1.3,3.1,2,4.8,2.1c0.8,0.1,1.7,0.4,2.4,1.1l14.7,14.7C86.4,77.5,86.4,82.2,83.5,85.1z"/>
</svg>
