<svg xmlns="http://www.w3.org/2000/svg" xmlns:xlink="http://www.w3.org/1999/xlink" version="1.1" id="Layer_1" x="0px" y="0px" width="100px" height="100px" viewBox="0 0 100 100" enable-background="new 0 0 100 100" xml:space="preserve">
<path d="M72.188,56.484c-1.431-1.428-3.347-2.306-5.4-2.472c-0.428-0.033-1.23-0.175-1.781-0.73  c-0.437-0.435-0.69-1.014-0.721-1.627c-0.064-1.332-0.453-2.614-1.112-3.761l3.337-3.333c1.2-1.203,2.914-1.619,4.452-1.225  c6.151,1.575,12.952-0.416,17.777-5.243c4.144-4.146,6.016-9.702,5.619-15.124l-15.786,8.671l-7.182-4.355l0.179-8.4l16.349-8.98  c-7.614-6.787-19.291-6.531-26.596,0.773c-4.664,4.665-6.451,11.117-5.364,17.152c0.253,1.423-0.099,2.911-1.283,4.094l-8.485,8.482  L32.285,26.948l-0.088-0.088c-0.292-1.408-0.904-3.532-2.895-5.267c-2.114-1.842-5.642-4.695-7.887-6.28  c-2.736-1.934-6.016-1.674-8.347,0.659l-1.61,1.61c-2.333,2.333-2.59,5.608-0.659,8.344c1.587,2.244,4.439,5.775,6.281,7.89  c1.725,1.982,3.843,2.597,5.251,2.888l0.016,0.019l0.087,0.073l13.459,13.908L8.123,78.478c-3.378,3.378-3.378,8.856,0,12.234  c3.379,3.379,8.853,3.379,12.234,0l23.027-23.023c1.141,0.657,2.426,1.045,3.755,1.109c0.619,0.03,1.198,0.286,1.63,0.722  c0.555,0.553,0.698,1.354,0.73,1.783c0.166,2.052,1.046,3.968,2.473,5.397l14.727,14.728c4.763,4.765,12.515,4.765,17.282,0  l2.934-2.935c4.762-4.764,4.762-12.516,0-17.28L72.188,56.484z M25.919,33.424c0,0-0.958-1.151-1.827-1.319  c-1.036-0.202-2.388-0.364-3.355-1.473c-1.758-2.02-4.489-5.395-5.977-7.501c-0.626-0.885-0.49-1.499,0.128-2.118l1.609-1.609  c0.619-0.62,1.234-0.755,2.118-0.128c2.105,1.487,5.484,4.217,7.501,5.975c1.112,0.967,1.273,2.321,1.476,3.356  c0.166,0.867,1.317,1.825,1.317,1.825l13.85,13.405l0,0l4.695,4.541l-3.588,3.591l-4.546-4.693l0,0L25.919,33.424z M83.486,85.063  l-2.934,2.935c-2.879,2.878-7.543,2.878-10.421,0L55.404,73.269c-0.647-0.643-1-1.516-1.071-2.357  c-0.14-1.734-0.805-3.497-2.135-4.824c-1.335-1.338-3.068-2.05-4.822-2.136c-0.079-0.004-0.157-0.011-0.237-0.023  c-0.091-0.01-0.178-0.026-0.265-0.044c-0.012-0.002-0.025-0.005-0.037-0.007c-0.079-0.016-0.159-0.036-0.242-0.059  c-0.018-0.006-0.039-0.011-0.06-0.018c-0.07-0.022-0.142-0.047-0.214-0.074c-0.027-0.01-0.055-0.02-0.083-0.032  c-0.062-0.027-0.131-0.054-0.193-0.084c-0.032-0.017-0.067-0.035-0.099-0.052c-0.06-0.028-0.116-0.059-0.171-0.091  c-0.039-0.024-0.084-0.05-0.124-0.077c-0.043-0.03-0.094-0.057-0.138-0.089c-0.05-0.037-0.103-0.078-0.15-0.117  c-0.036-0.026-0.07-0.051-0.103-0.078c-0.084-0.07-0.163-0.144-0.242-0.221c-1.439-1.439-1.439-3.772,0-5.211l8.146-8.146  c1.439-1.438,3.77-1.438,5.209,0c0.08,0.078,0.152,0.159,0.223,0.244c0.027,0.032,0.051,0.066,0.079,0.099  c0.039,0.051,0.08,0.101,0.114,0.154c0.032,0.043,0.06,0.091,0.092,0.138c0.024,0.041,0.051,0.082,0.074,0.126  c0.037,0.053,0.064,0.11,0.092,0.165c0.02,0.034,0.036,0.067,0.051,0.103c0.032,0.065,0.06,0.128,0.085,0.193  c0.012,0.027,0.023,0.054,0.035,0.082c0.024,0.071,0.051,0.143,0.072,0.216c0.007,0.022,0.012,0.04,0.02,0.061  c0.019,0.078,0.044,0.159,0.059,0.239c0,0.013,0.005,0.024,0.008,0.036c0.017,0.088,0.032,0.175,0.039,0.264  c0.012,0.079,0.024,0.159,0.029,0.241c0.082,1.752,0.793,3.485,2.133,4.823c1.324,1.326,3.089,1.994,4.822,2.134  c0.84,0.068,1.712,0.424,2.36,1.067l14.727,14.727C86.36,77.519,86.364,82.186,83.486,85.063z"/>
</svg>