<?xml version="1.0" encoding="utf-8"?>
<!-- Generator: Adobe Illustrator 17.1.0, SVG Export Plug-In . SVG Version: 6.00 Build 0)  -->
<!DOCTYPE svg PUBLIC "-//W3C//DTD SVG 1.1//EN" "http://www.w3.org/Graphics/SVG/1.1/DTD/svg11.dtd">
<svg version="1.1" id="Layer_1" xmlns="http://www.w3.org/2000/svg" xmlns:xlink="http://www.w3.org/1999/xlink" x="0px" y="0px"
	 viewBox="0 0 87.5 54.6" enable-background="new 0 0 87.5 54.6" xml:space="preserve">
<g>
	<g>
		<path fill="#000000" d="M25,33.4C25,33.4,25,33.4,25,33.4c0,0-1.6-1-2-1.5l-1.2,0.2c-1-0.1-12.3-0.5-13.5,0.4
			c-1.2,1-2.8,0.2-3.6,0.8c-0.9,0.6,2.6,2.4,2.6,2.4s13.6-0.5,15.2-0.6c0.7,0,1.5-0.4,2-0.9L24.2,35v0l-0.5,0.2l1.1,2.2
			c0,0-1.4,2.4-3.6,1.5c-2.1-0.9,0.9,2.4-0.6,2.6c-1.4,0.3-2,0.3-2.6,0.1c-0.5-0.1-0.1,1.6,0.1,2.4c0.2,0.7,0.5,1.5-0.9,1.5
			s-2-0.6-2-0.3c-0.1,0.3,0.3,2.5,0.3,2.8c0.1,0.3,1.2,0.8-0.9,0.8l-1.9,0.5c0.8,0.2,4,0.4,4,0.4s0.8,0.4,0.6-0.4
			c-0.3-0.8-1.3-2.8-1.3-2.8h2.9c0,0,1-1.5,0-2.5c-1-1.1,0.7-0.9,1.4-0.8c0.8,0.1,2.1-1,1.2-2.1c-0.9-1.1,0.8-1,2-1.1
			c1.2-0.2,3.9-3.6,3.9-3.6L25,33.4L25,33.4z M51,38.4c-0.7-0.8-33-27-34.7-28h-0.7c-0.9,0-1.4-0.5-2.4-0.5V8.5l-1.4,0h-1.2l0.6,0.7
			v1.3h0.9c-3.3,0-4.8,4-4.8,4l17.7,13.6l-1.5,3.4l5,3.6c0,0,12.5,10,14.4,11.2c1.9,1.2,4.4,3,8.2,0C54.8,43.4,51.7,39.2,51,38.4z
			 M23.6,35.2L8.5,40.4l-2,2.2l3,0.4l14.5-6.6L23.6,35.2z M8.7,42.3C8.3,42.3,8,42,8,41.6S8.3,41,8.7,41c0.4,0,0.7,0.3,0.7,0.7
			S9,42.3,8.7,42.3z M75,32.2c-0.3,0-16.6,5.2-16.6,5.2l-4,5.1l4.4,1.5l20.1-5.8c0,0,8.8-5.3,8.5-6.9C87.1,29.7,75.3,32.2,75,32.2z
			 M67,50.9c-0.7,2-5.3-1.8-6.4-0.6c-1.2,1.2-2.4,0.3-2.4,0.3l-3.4-1.9l-0.3,0c-0.5-1.8,1.1-3,1-3.4c-0.1-0.3,0.7-0.3,1.4-0.1
			c0.7,0.3,1.2,0.9,1.7,0.1c0.5-0.9-2-2-2-2s-3.6-1.1-2.8,0s-3.7,5.3-3.7,5.3s2.6,1.5,2.6,1.8c0,0.3,5,3.7,6.1,4
			c1,0.3,4.4-0.5,6.8-1.3C67.7,52.5,67.7,49,67,50.9z M54.2,41.5c0,0,3.7-3.8,3.4-4.1C57.3,37,54.2,35,54.2,35V41.5z M59.6,29
			l-0.7-0.3l0.1,0.9l-0.7-0.3l0.1,0.9l-0.7-0.3l0.1,0.9l-0.7-0.3l0.1,0.9l-0.7-0.3l0.1,0.9l0,0l-0.7-0.3l0,0.9l-0.1,0.1l-0.7-0.2
			l0,0.8l-0.4,0.2v0.7l2.7,2.3c0.3-0.3,14.5-14.3,16.4-16.9s5.7-4.9,3.4-8.8c0,0-0.3,1-0.8,1.7l-0.9-0.3l0.1,0.9l-0.7-0.3l0.1,0.9
			l-0.7-0.3l0.1,0.9l-0.7-0.3l0.1,0.9l-0.7-0.3l0.1,0.9l-0.7-0.3l0.1,0.9l-0.7-0.3l0.1,0.9l-0.7-0.3l0.1,0.9l-0.7-0.3l0.1,0.9
			L69,18.6l0.1,0.9l-0.7-0.3l0.1,0.9l-0.7-0.3l0.1,0.9L67,20.6l0.1,0.9l-0.7-0.3l0.1,0.9L65.6,22l0.1,0.9l-0.7-0.3l0.1,0.9l-0.7-0.3
			l0.1,0.9L63.6,24l0.1,0.9l-0.7-0.3l0.1,0.9l-0.7-0.3l0.1,0.9L61.5,26l0.1,0.9l-0.7-0.3l0.1,0.9l-0.7-0.3l0.1,0.9l-0.7-0.3L59.6,29
			z M75.8,13.1c-0.1,0.1-0.2,0.2-0.3,0.3c0,0,0,0,0,0l0,0L75.8,13.1z M69.3,19.6C69.3,19.6,69.3,19.6,69.3,19.6L69.3,19.6L69.3,19.6
			z M68.7,20.2C68.6,20.2,68.6,20.2,68.7,20.2l-0.1,0.1L68.7,20.2z M68.1,20.8c-0.1,0.1-0.1,0.1-0.2,0.2l0,0L68.1,20.8z M67.5,21.4
			c-0.1,0.1-0.2,0.2-0.2,0.2l0,0l-0.1,0L67.5,21.4z M66.8,22l-0.3,0.3l-0.1,0L66.8,22z M66.1,22.8L65.9,23l0,0L66.1,22.8z
			 M65.4,23.5l-0.2,0.2l0,0L65.4,23.5z M64.6,24.2l-0.1,0.1l0,0L64.6,24.2z M63.9,24.9L63.9,24.9L63.8,25L63.9,24.9z M63.2,25.6
			L63.2,25.6L63.2,25.6L63.2,25.6z M62.5,26.4L62.5,26.4L62.5,26.4L62.5,26.4z M52.4,38.7l0.2-0.5l6.2-37.9l-1.1,0.9L57,0l-6.8,35.5
			l-0.3,1l0.6,0.5L52.4,38.7z M39.3,19.8c-0.4,1.7-1.5,6.8-1.5,6.8s0.9,0.9,0.9,0.1c0.1-0.8,0.7-2.5,1.4-4.8
			c0.7-2.2,2.7-0.9,3.8-0.2c1.1,0.7,2.3,9.1,2.3,9.1l-0.9,2.5l4.6,3.4l-3.1-10.9l1.1-4.6l-3.9-3.5c0,0-0.2-1.3,0.3-1.8
			c0.5-0.5,1.4-5.9,2.1-9c0.8-3.1-0.5-5.2-0.5-5.2s-1.3,3.5-2.7,8.2c-1.4,4.7-2.4,2.2-2.4,2c0-0.3-3.5-9.8-3.7-9.1
			c-0.3,0.7-1,6,0,6.6S39.7,18.2,39.3,19.8z M42,17.6c0.7,0,1.3,0.5,1.3,1s-0.6,1-1.3,1c-0.7,0-1.3-0.5-1.3-1S41.3,17.6,42,17.6z
			 M7.3,25c0,0-0.9-0.1,2,3.1c2.8,3,12.8,3.5,13.7,3.5l0,0l0,0c0,0,0.2,0,0.2,0v-0.2l0.8-2.1l-1.1-0.6l-10.2-8.2h-1.5v1l9.4,7.7
			l-1,0C11.1,28.2,7.3,25,7.3,25z M8.2,12.2L8.2,12.2l1.1-1.4l-0.4-0.2c0-0.1,0.1-0.1,0.1-0.1L5.6,9.5l-1.2-6L0.2,0.9
			c0,0-0.9,5.7,1.1,7.1c2,1.5,4.4,4,5.2,5.1C7,13.7,8.2,13,8.2,12.2z"/>
	</g>
</g>
</svg>
