<?xml version="1.0" encoding="utf-8"?>
<!-- Generator: Adobe Illustrator 17.0.0, SVG Export Plug-In . SVG Version: 6.00 Build 0)  -->
<!DOCTYPE svg PUBLIC "-//W3C//DTD SVG 1.1//EN" "http://www.w3.org/Graphics/SVG/1.1/DTD/svg11.dtd">
<svg version="1.1" id="Layer_1" xmlns="http://www.w3.org/2000/svg" xmlns:xlink="http://www.w3.org/1999/xlink" x="0px" y="0px"
	 width="525px" height="500.528px" viewBox="0 0 525 500.528" enable-background="new 0 0 525 500.528" xml:space="preserve">
<path fill-rule="evenodd" clip-rule="evenodd" fill="#EC542B" d="M253.687,42.109c6.76,0,12.241,5.481,12.241,12.241
	c0,6.761-5.48,12.241-12.241,12.241c-6.76,0-12.241-5.481-12.241-12.241C241.446,47.59,246.926,42.109,253.687,42.109z"/>
<path fill-rule="evenodd" clip-rule="evenodd" fill="#CA452A" d="M170.868,23.025l1.01-2.526l81.606,32.643l-1.01,2.526
	L170.868,23.025"/>
<path fill-rule="evenodd" clip-rule="evenodd" fill="#EC542B" d="M167.293,0c14.272,0,25.842,11.57,25.842,25.842
	c0,14.272-11.57,25.842-25.842,25.842c-14.272,0-25.842-11.57-25.842-25.842C141.451,11.57,153.021,0,167.293,0z"/>
<path fill-rule="evenodd" clip-rule="evenodd" fill="#CA452A" d="M398.499,323.884l-2.698-0.346l13.601-106.09l2.698,0.346
	L398.499,323.884"/>
<path fill-rule="evenodd" clip-rule="evenodd" fill="#CA452A" d="M281.216,482.369l-2.07-1.765l78.886-92.489l2.07,1.765
	L281.216,482.369"/>
<path fill-rule="evenodd" clip-rule="evenodd" fill="#EC542B" d="M395.79,310.11c6.76,0,12.241,5.481,12.241,12.241
	c0,6.761-5.48,12.241-12.241,12.241c-6.76,0-12.241-5.481-12.241-12.241C383.549,315.59,389.03,310.11,395.79,310.11z"/>
<path fill-rule="evenodd" clip-rule="evenodd" fill="#CA452A" d="M36.622,237.177l-2.518-1.028l54.404-133.293l2.519,1.028
	L36.622,237.177"/>
<path fill-rule="evenodd" clip-rule="evenodd" fill="#CA452A" d="M369.314,66.804l1.269,2.406L25.117,251.467l-1.269-2.406
	L369.314,66.804"/>
<path fill-rule="evenodd" clip-rule="evenodd" fill="#CA452A" d="M508.703,72.087l-0.049,2.72l-149.611-2.72l0.049-2.72
	L508.703,72.087"/>
<path fill-rule="evenodd" clip-rule="evenodd" fill="#CA452A" d="M86.057,107.024l1.979-1.867l272.021,288.348l-1.979,1.867
	L86.057,107.024"/>
<path fill-rule="evenodd" clip-rule="evenodd" fill="#EC542B" d="M31.282,212.18c17.277,0,31.282,14.006,31.282,31.283
	s-14.006,31.283-31.282,31.283C14.006,274.747,0,260.741,0,243.463S14.006,212.18,31.282,212.18z"/>
<path fill-rule="evenodd" clip-rule="evenodd" fill="#EC542B" d="M357.707,372.676c11.267,0,20.402,9.134,20.402,20.402
	s-9.134,20.402-20.402,20.402s-20.402-9.134-20.402-20.402S346.44,372.676,357.707,372.676z"/>
<path fill-rule="evenodd" clip-rule="evenodd" fill="#EC542B" d="M85.687,95.209c6.76,0,12.241,5.481,12.241,12.241
	s-5.48,12.241-12.241,12.241c-6.76,0-12.241-5.481-12.241-12.241S78.926,95.209,85.687,95.209z"/>
<path fill-rule="evenodd" clip-rule="evenodd" fill="#EC542B" d="M367.228,59.846c6.009,0,10.881,4.872,10.881,10.881
	c0,6.009-4.872,10.881-10.881,10.881s-10.881-4.872-10.881-10.881C356.347,64.717,361.219,59.846,367.228,59.846z"/>
<path fill-rule="evenodd" clip-rule="evenodd" fill="#CA452A" d="M168.68,38.171l2.59-0.832c2.146-0.689,4.443,0.492,5.133,2.637
	l24.955,77.699c0.689,2.146-0.492,4.444-2.637,5.133l-2.59,0.832c-2.146,0.689-4.444-0.492-5.133-2.637l-24.955-77.699
	C165.354,41.158,166.535,38.86,168.68,38.171z"/>
<path fill-rule="evenodd" clip-rule="evenodd" fill="#CA452A" d="M399.602,316.937l0.538,2.667L76.435,384.89l-0.538-2.667
	L399.602,316.937"/>
<path fill-rule="evenodd" clip-rule="evenodd" fill="#EC542B" d="M238.018,92.489c81.877,0,148.251,66.376,148.251,148.254
	s-66.374,148.254-148.251,148.254S89.767,322.622,89.767,240.743S156.141,92.489,238.018,92.489z"/>
<path fill-rule="evenodd" clip-rule="evenodd" fill="#CA452A" d="M142.927,328.351l1.25,1.57c0.691,0.867,0.551,2.135-0.312,2.831
	l-60.923,49.193c-0.863,0.697-2.122,0.558-2.813-0.309l-1.25-1.57c-0.691-0.867-0.551-2.135,0.312-2.832l60.923-49.193
	C140.977,327.346,142.237,327.484,142.927,328.351z"/>
<path fill-rule="evenodd" clip-rule="evenodd" fill="#CA452A" d="M358.685,154.158l118.236-66.132
	c1.749-0.978,3.996-0.415,5.019,1.258l1.234,2.02c1.023,1.673,0.434,3.823-1.315,4.801l-118.236,66.132
	c-1.749,0.978-3.996,0.415-5.019-1.258l-1.234-2.02C356.347,157.286,356.936,155.137,358.685,154.158z"/>
<path fill-rule="evenodd" clip-rule="evenodd" fill="#CA452A" d="M361.766,74.268l1.504,0.439c1.246,0.363,1.396,1.778,0.335,3.16
	l-38.422,50.041c-1.061,1.382-2.931,2.207-4.177,1.844l-1.504-0.439c-1.246-0.363-1.396-1.778-0.335-3.16l38.422-50.041
	C358.651,74.73,360.521,73.904,361.766,74.268z"/>
<path fill-rule="evenodd" clip-rule="evenodd" fill="#EC542B" d="M80.246,361.795c9.765,0,17.681,7.916,17.681,17.682
	c0,9.765-7.916,17.682-17.681,17.682s-17.681-7.916-17.681-17.682C62.565,369.711,70.481,361.795,80.246,361.795z"/>
<path fill-rule="evenodd" clip-rule="evenodd" fill="#CA452A" d="M360.48,226.148l39.179-11.396c0.721-0.21,1.476,0.205,1.686,0.926
	l0.76,2.612c0.21,0.721-0.205,1.476-0.926,1.686l-39.179,11.396c-0.721,0.21-1.476-0.205-1.686-0.926l-0.76-2.612
	C359.344,227.112,359.758,226.357,360.48,226.148z"/>
<path fill-rule="evenodd" clip-rule="evenodd" fill="#EC542B" d="M412.111,198.579c9.765,0,17.681,7.916,17.681,17.682
	c0,9.765-7.916,17.682-17.681,17.682c-9.765,0-17.681-7.916-17.681-17.682C394.43,206.496,402.346,198.579,412.111,198.579z"/>
<path fill-rule="evenodd" clip-rule="evenodd" fill="#EC542B" d="M495.078,51.685c16.526,0,29.922,13.397,29.922,29.923
	s-13.397,29.923-29.922,29.923s-29.922-13.397-29.922-29.923S478.552,51.685,495.078,51.685z"/>
<path fill-rule="evenodd" clip-rule="evenodd" fill="#CA452A" d="M269.43,354.414l2.692-0.392c1.487-0.217,2.867,0.813,3.084,2.299
	l15.305,104.98c0.217,1.487-0.813,2.867-2.299,3.084l-2.692,0.392c-1.487,0.217-2.867-0.813-3.084-2.299l-15.305-104.98
	C266.914,356.011,267.944,354.63,269.43,354.414z"/>
<path fill-rule="evenodd" clip-rule="evenodd" fill="#CA452A" d="M270.661,348.194c6.76,0,12.241,2.436,12.241,5.441
	c0,3.005-5.48,5.441-12.241,5.441c-6.76,0-12.241-2.436-12.241-5.441C258.42,350.629,263.9,348.194,270.661,348.194z"/>
<path fill-rule="evenodd" clip-rule="evenodd" fill="#EC542B" d="M288.342,440.683c16.526,0,29.922,13.397,29.922,29.923
	s-13.397,29.923-29.922,29.923s-29.922-13.397-29.922-29.923S271.816,440.683,288.342,440.683z"/>
<g>
	<path fill="#FFFFFF" d="M232.835,203.674c-0.447,0.745-0.919,1.303-1.415,1.676c-0.497,0.372-1.143,0.558-1.937,0.558
		c-0.845,0-1.824-0.421-2.941-1.266c-1.117-0.844-2.532-1.774-4.245-2.792c-1.712-1.017-3.773-1.948-6.181-2.792
		c-2.408-0.844-5.324-1.266-8.75-1.266c-3.228,0-6.082,0.435-8.563,1.303c-2.483,0.869-4.556,2.048-6.218,3.537
		c-1.664,1.489-2.917,3.239-3.76,5.25c-0.845,2.011-1.266,4.183-1.266,6.516c0,2.979,0.732,5.449,2.197,7.41
		c1.464,1.961,3.4,3.637,5.809,5.026c2.407,1.39,5.138,2.595,8.191,3.611c3.053,1.019,6.181,2.074,9.383,3.165
		c3.202,1.093,6.33,2.321,9.383,3.686c3.053,1.366,5.783,3.09,8.191,5.175c2.407,2.085,4.343,4.643,5.808,7.67
		c1.464,3.028,2.197,6.752,2.197,11.17c0,4.667-0.794,9.047-2.383,13.143c-1.589,4.096-3.91,7.658-6.962,10.686
		c-3.053,3.028-6.802,5.412-11.245,7.148c-4.443,1.737-9.495,2.606-15.154,2.606c-6.901,0-13.193-1.253-18.877-3.76
		c-5.685-2.506-10.537-5.895-14.558-10.165l4.17-6.851c0.396-0.546,0.881-1.005,1.452-1.378c0.57-0.372,1.203-0.558,1.899-0.558
		c1.042,0,2.234,0.558,3.574,1.675s3.016,2.346,5.026,3.686s4.442,2.569,7.298,3.686c2.854,1.117,6.341,1.676,10.462,1.676
		c3.425,0,6.479-0.472,9.159-1.415c2.681-0.942,4.952-2.271,6.814-3.984c1.861-1.713,3.288-3.761,4.282-6.144
		c0.992-2.383,1.489-5.038,1.489-7.968c0-3.227-0.733-5.87-2.197-7.931c-1.465-2.06-3.388-3.785-5.771-5.175
		c-2.383-1.39-5.101-2.569-8.154-3.538c-3.053-0.968-6.181-1.96-9.383-2.979c-3.202-1.017-6.33-2.197-9.382-3.537
		c-3.053-1.34-5.771-3.078-8.154-5.212c-2.383-2.134-4.308-4.803-5.771-8.005c-1.465-3.202-2.197-7.16-2.197-11.877
		c0-3.772,0.732-7.421,2.197-10.946c1.463-3.524,3.586-6.652,6.367-9.383c2.78-2.729,6.218-4.915,10.313-6.553
		c4.096-1.638,8.799-2.457,14.111-2.457c5.958,0,11.394,0.943,16.308,2.83c4.915,1.887,9.208,4.617,12.883,8.191L232.835,203.674z"
		/>
	<path fill="#FFFFFF" d="M322.939,188.334v6.33h-55.477v44.308h48.031v6.33h-48.031v48.403h-7.67v-105.37H322.939z"/>
</g>
</svg>
