<?xml version="1.0" encoding="utf-8"?>
<!-- Generator: Adobe Illustrator 17.1.0, SVG Export Plug-In . SVG Version: 6.00 Build 0)  -->
<!DOCTYPE svg PUBLIC "-//W3C//DTD SVG 1.1//EN" "http://www.w3.org/Graphics/SVG/1.1/DTD/svg11.dtd">
<svg version="1.1" id="Calque_1" xmlns="http://www.w3.org/2000/svg" xmlns:xlink="http://www.w3.org/1999/xlink" x="0px" y="0px"
	 viewBox="0 0 93 40.4" enable-background="new 0 0 93 40.4" xml:space="preserve">
<metadata><?xpacket begin="﻿" id="W5M0MpCehiHzreSzNTczkc9d"?>
<x:xmpmeta xmlns:x="adobe:ns:meta/" x:xmptk="Adobe XMP Core 5.5-c014 79.151739, 2013/04/03-12:12:15        ">
   <rdf:RDF xmlns:rdf="http://www.w3.org/1999/02/22-rdf-syntax-ns#">
      <rdf:Description rdf:about=""
            xmlns:dc="http://purl.org/dc/elements/1.1/"
            xmlns:xmp="http://ns.adobe.com/xap/1.0/"
            xmlns:xmpGImg="http://ns.adobe.com/xap/1.0/g/img/"
            xmlns:xmpMM="http://ns.adobe.com/xap/1.0/mm/"
            xmlns:stRef="http://ns.adobe.com/xap/1.0/sType/ResourceRef#"
            xmlns:xmpTPg="http://ns.adobe.com/xap/1.0/t/pg/"
            xmlns:stDim="http://ns.adobe.com/xap/1.0/sType/Dimensions#"
            xmlns:xmpG="http://ns.adobe.com/xap/1.0/g/">
         <dc:format>image/svg+xml</dc:format>
         <xmp:CreatorTool>Adobe Illustrator CS3</xmp:CreatorTool>
         <xmp:CreateDate>2010-05-19T09:37:41+10:00</xmp:CreateDate>
         <xmp:ModifyDate>2010-05-19T09:37:41+10:00</xmp:ModifyDate>
         <xmp:MetadataDate>2010-05-19T09:37:41+10:00</xmp:MetadataDate>
         <xmp:Thumbnails>
            <rdf:Alt>
               <rdf:li rdf:parseType="Resource">
                  <xmpGImg:width>256</xmpGImg:width>
                  <xmpGImg:height>112</xmpGImg:height>
                  <xmpGImg:format>JPEG</xmpGImg:format>
                  <xmpGImg:image>/9j/4AAQSkZJRgABAgEASABIAAD/7QAsUGhvdG9zaG9wIDMuMAA4QklNA+0AAAAAABAASAAAAAEA&#xA;AQBIAAAAAQAB/+4ADkFkb2JlAGTAAAAAAf/bAIQABgQEBAUEBgUFBgkGBQYJCwgGBggLDAoKCwoK&#xA;DBAMDAwMDAwQDA4PEA8ODBMTFBQTExwbGxscHx8fHx8fHx8fHwEHBwcNDA0YEBAYGhURFRofHx8f&#xA;Hx8fHx8fHx8fHx8fHx8fHx8fHx8fHx8fHx8fHx8fHx8fHx8fHx8fHx8fHx8f/8AAEQgAcAEAAwER&#xA;AAIRAQMRAf/EAaIAAAAHAQEBAQEAAAAAAAAAAAQFAwIGAQAHCAkKCwEAAgIDAQEBAQEAAAAAAAAA&#xA;AQACAwQFBgcICQoLEAACAQMDAgQCBgcDBAIGAnMBAgMRBAAFIRIxQVEGE2EicYEUMpGhBxWxQiPB&#xA;UtHhMxZi8CRygvElQzRTkqKyY3PCNUQnk6OzNhdUZHTD0uIIJoMJChgZhJRFRqS0VtNVKBry4/PE&#xA;1OT0ZXWFlaW1xdXl9WZ2hpamtsbW5vY3R1dnd4eXp7fH1+f3OEhYaHiImKi4yNjo+Ck5SVlpeYmZ&#xA;qbnJ2en5KjpKWmp6ipqqusra6voRAAICAQIDBQUEBQYECAMDbQEAAhEDBCESMUEFURNhIgZxgZEy&#xA;obHwFMHR4SNCFVJicvEzJDRDghaSUyWiY7LCB3PSNeJEgxdUkwgJChgZJjZFGidkdFU38qOzwygp&#xA;0+PzhJSktMTU5PRldYWVpbXF1eX1RlZmdoaWprbG1ub2R1dnd4eXp7fH1+f3OEhYaHiImKi4yNjo&#xA;+DlJWWl5iZmpucnZ6fkqOkpaanqKmqq6ytrq+v/aAAwDAQACEQMRAD8A9U4q7FXYq7FXYq7FXYq7&#xA;FXYq7FXYq7FXYq7FXYqsmnhgjMk0ixRjq7kKPvORnMRFk0GUYmRoCyg9X1m303SpNRYetEgXgEI+&#xA;IsQFoelN+uY+q1ccOI5OYbtPppZcghyLzvUPzD165JEDJaRnoIxVqe7NX8KZyeft3PP6agPL9b0u&#xA;HsfDHn6ikdxq2pXJrcXc0v8AruzfrOazJqMk/qlI/Fz4afHHlED4IXllFNtKsN7dQGsEzxHxRiv6&#xA;sshklH6SQwlijLmAU4sfPHmO0IAujOg/YnHqV/2R+P8AHNhh7Y1GP+LiHnv+37XDy9l4J/w17tv2&#xA;Ms0j8yNOuSsWoRm0kO3qirxn5/tL/nvm90vb+Oe2QcJ7+jp9R2LOO8DxD7WXRSxSxrJE4kjcVV1I&#xA;II8QRm9jISFjcOmlEg0ea7JIdirsVdirsVdirsVdirsVdirsVdirsVdirsVdirsVdirsVdirsVdi&#xA;qS3fnHQbTUxp085WeoV24korHoGb6c1+TtPDDJ4ZO/2Odj7NzTx8YGzGPzUmkD6dFyPpkSsV7cvh&#xA;Fc0/tFI3AdN/0O17BiKmeu36UvtJpH/La9DMWEd4qID2WsbUH0scxsUiez5A9J/8S5OSIGuj5w/W&#xA;xLnmip3NO540tO540tO540tO540tO540tJvoHmrUtFmBgf1LYmsts5+BvGn8p9xmfou0MmnPp3j3&#xA;OFq9BjzjfaXe9X0PXbDWbMXNo3TaWJvto3gw/Uc7XSayGeHFH5dzyGq0s8EuGX9qYZlOM7FXYq7F&#xA;XYq7FXYq7FXYq7FXYq7FXYq7FXYq7FVG2vrK65/VbiOf0zxk9J1fifBuJNDlcMsJ/SQa7myeKcPq&#xA;BF96T3fnTR7XXU0aT1PrDMqNIAPTV3pxUmte/hmFk7TxQzeEbv7N3Nx9mZZ4fFFV9uyZ6nq+m6XA&#xA;J7+dYImPFSakk+AABJzLz6iGIXM0HEwaeeU1AWVe2ube6t0uLeQSwSjlHIu4IycMkZxEomwWE4Sg&#xA;TGQohUybB4f5qb/nZNS/5iJP+JHPP+0P7+f9Yve6AfuIf1Qyb81ZuV3pwH2fSdgf9Yj+mbb2glco&#xA;e4uq7AjUZ+8Jfp7n/lXeqCuwu46D5+nmNh/xGf8AXH6HJzD/AA2H9Q/pYpyzTu3p3LFadyxWncsV&#xA;p3LFadyxWncsVpMNE1y90e/S7tW3G0kZ+y6d1bMnS6qeCfFH+1x9VpY5ocMv7HtOkaraarp8V7at&#xA;WOQbqeqsOqn3Gd3ptRHNATjyLw2o08sMzCXMIzL2h2KuxV2KuxV2KuxV2KuxV2KuxV2KuxVJvNnm&#xA;E6DpP11YhM7SLEiE8RVgTU/QuYWv1fgY+Kr3pzuz9H+YycF1tbUGsfpHym+qLH6RltZX9OtaMqsD&#xA;v81xjqPE05yVVxKy03hakY7upBhf5SSf7kr9K9YVPHxo1K/jmj9nz65Dyd77Qx9ET5pV5huFH5gy&#xA;PQ0S8hqP9XgD+rMTVy/wwn+kP0OXo4f4EB/QP6WQfm9IVTSk7MZz93p/1zYe0J2gP636HXezsd5n&#xA;+r+lFaDeSwflfLMjGN4orhY3XYgmRqH51bLtJkMdASOgl95adXiEu0AD1MfuCTflRdznW7q3Mh9J&#xA;7dpGQnYusiAN86McwuwZnxZC9uG/tDne0GMeFGVb8VfYWMeZH/52LVP+Yuf/AJOtmq1v99P+tL73&#xA;a6IfuIf1I/cyf80mpc6X/wAw38Rm17d+qH9V1XYI9M/6yA02UH8vdXXut1Ca/MoP4Zj4T/gWQf0h&#xA;+hyM8f8ADcf9U/pYtzzU07enc8aWnc8aWnc8aWnc8aWnc8aWnc8aWnc8aWmW/lz5jOnauLGZv9Dv&#xA;iE3Oyy9Eb6fsn+zNx2Nq/CycB+mX3um7Z0XiY+MfVD7uv63rudi8Y7FXYq7FXYq7FXYq7FXYq7FX&#xA;Yq7FUr1DzNpGn6na6ZdSlLu7p6ShSR8TcV5HtVhTMXLrMeOYhI+qTl4dDlyY5ZIj0xY5+bbAeXbY&#xA;V3N2hA9hFJ/XNd29/cj+t+guz9nh+/l/U/SF/lubj+V0jg8jHa3pI9w0pph0Z/wE/wBWf6Ua2P8A&#xA;rgB3yh/vWOflHIP07dp3NqSPkJE/rmu7BP72X9X9Idn7RD9zE/0v0FJ/Mk6jzxdyDdUvBX/YsAf1&#xA;Zh6w/wCFSP8ASc3RQ/wSI/oMl/OGQeppKdwJzX5mMfwzZ+0B3gPf+h1fs3HaZ/q/pVNHl5flReV2&#xA;4CZQfm4P8cOnP+AS+P3sdTH/AFxj8PuSb8qjXzO3/MNJ/wASXMPsP+//AM0/oc3t8f4P/nD9LHvM&#xA;cgfzDqjL0a7nI+RlbNfq980/6x+92WijWGH9WP3Mi/Mx2a70lialrGMk+5JzY9s7yh/UDrewx6Z/&#xA;1yhdLb/kH+tH/l5t/wDiQyrD/imT+tFtzj/Dcf8AVkxflmrdtTuWK07litO5YrTuWK07litO5YrT&#xA;uWK04OwIINCNwRitPe/K2rfpbQbO+Y1ldOM3/GRDxf7yK53uiz+LijLr19755r9P4OaUOl7e5Ncy&#xA;nDdirsVdirsVdirsVdirsVdirsVeU/mHcMvn7TT19JLag+UzN/HOY7UP+FR8uH73r+x4Xo5+fF9w&#xA;Tj84ZAuj2Kd2uCR8gh/rmV29/dxH9L9Dh+zY/eyP9H9Kzy3OB+VN8QKlYbtD/suX/NWDSH/AZe6S&#xA;dbD/AFxj74JD+UcoHmadT1e0kA/5GRn+GYPYe2Y/1T94dj7RR/wcf1x9xSLzTMqebdSetQl5ITT/&#xA;ACX3zC1h/fyP9Iuw0Eb00B/QH3Ms/ORwLvTFruI5SR7Fl/pm07e+qHuLpvZoemfvH6Vuky8vyk1I&#xA;dOErLXx/eRn+ODAf8Al7/wBITqI12lD3foKVflYx/wAWRivWGWv3DMbsb+/+Bczt8f4MfeGPa63+&#xA;5zUf+Ymb/k4cwNSP3sv6x+92WkH7qH9UfcyL8ybhXu9HC9DpsLg+zFv6Zn9rG5Q/qB1nYkKjk/4Y&#xA;f0IXSW/50XXvaa0/4mcrwD/Bsnvi3agf4Xi90/uYzzzW07Wnc8aWnc8aWnc8aWnc8aWnc8aWnc8a&#xA;Wnc8aWnc8aWnq35PX5k0y/sia+hMsqjwEq02+mPOn7CyXCUe4/f/AGPIe0mKskZ94r5f2vQM3zzb&#xA;sVdirsVdirsVdiqXa5r+m6Jax3WoOY4ZJVhUqCx5NU9uwAJOUajUQxRuXK6cnS6TJnkYwFkC0TqN&#xA;9BYWFxez19G2jaWQLuSEFaD3yzLkEImR5ANWHEckxAc5GkL5c12DXNIh1KGNoll5AxtQlWUlSKjr&#xA;0yrS6gZoCY2tu1ulOnynGTdK1rrGmXd7c2VtcpLdWhAuYlO6k/r8DTocnDPCUjEHePNhk02SEROQ&#xA;IjLkXkP5nXCp52dt/wBykHL6AG2+/OX7WP8AhHup7PsOF6T3ksk/OeTjYaYlPtSyNX/VUD/jbM/t&#xA;0+mI8y6z2Zj65nyCG8t3BH5T6qaA8TOg+TBf+asr0p/wKfxbNbD/AFxh/m/pSX8ppaebAtK87eVf&#xA;l9k/wzE7G2z/AALn+0Mf8G/zgkHmlv8AnZtX/wCY24/5OtmFrB++n/WP3ux0A/wfH/Uj9wZf+cUo&#xA;e/0xxsHt2YD5tXNp25vKJ8nS+zcahMf0lLSpyfyh1jjsUu1Qn5vAT+DZHCf8Bn/W/wCJZ6iP+uWP&#xA;+r+iSXflbIf8Y2oB2aOYH5emT/DKOyP8YHx+5ye3h/gsvePvY9rEpfVr1z1a4lJ+Zc5g595y95dl&#xA;po1jiP6I+5kH5htS50T/ALZFr+t8ze0xvD/hcf0uu7GHpyf8Nl+hQ0eUnyT5iTsstk1f9aRx/DIY&#xA;P8XyDzj95bNTH/C8R8p/cGNc8wKdpTueNLTueNLTueNLTueNLTueNLTueNLTueNLTueNLSYaV5h1&#xA;bSVnGnXDW5uAqysoHIhakUJBI69svw6jJivgNW42o0ePNXGOLhULrVdRu2LXV1NOx6mSRn6/6xOV&#xA;zyTl9RJbIaeEPpiB7gst7+8tmDW88kLDoY3ZT+BGCM5R5EhM8MZfUAWTaL+Z3mbTmVZpvr9uPtR3&#xA;G7U9pB8VfnXNjg7VzY+Z4h5/rdXqewsGTkOA+X6uT1Tyx5x0fzDCTauY7pBWa0koHX3H8y+4zo9J&#xA;rYZx6efc8jruzcumPq3j0PRPMzHXuxVid75kvIfzGsNEWQCxmtWaSOg3lIdweXXpGAPnmunqZDVR&#xA;x/wmP27/AKnc4tDE6GWavWJfZsP0pL+dU/HS9Nh/nnd/+ASn/G+Ynbh9ER5ud7MQvJM/0f0/sT7z&#xA;de8vy+u7qv8AfWkZrX/fvEf8bZmayd6Ynvj97ruzsVa2Me6R+y0v/J+f1fKkif75upE+9Uf/AI2y&#xA;nsaV4fdI/ocn2khWpB74j9LHfyzvfU8+6sa/Dcx3DCnj66sPwrmD2XO9TPzv73Z9uYq0cP6Jj/uS&#xA;kP5nylvO+oCtQghUf8iEP6zmH2rvqJfD7g7HsKP+CQ+P+6LJPziuC9joJryEqzScvH4Yv+asz+2p&#xA;XGHx/Q6v2bhU8vlX++Q3lucr+U2u78itwygV6BlhH8cr0p/wKfv/AFNuth/rli/q/wDFJV+VMpHn&#xA;K3UftxTKf+AJ/hmP2Qazj3FzPaCP+Cn3j72P+YG/3Pal/wAxU3/JxswtR/eS/rH73Y6MfuYf1R9z&#xA;K/zZlD6hpLjYPYIwHzZjmx7XNygf6Lp/Z6NQyD+mVulXAH5S61HTc30dT7EwH/jTBhP+BTH9L/iW&#xA;Woh/rljP9A/779aB/K+Vh5309R0cTA/L0HP8Mq7K/wAYj8fuLkdux/wSfw/3QY/qrf7lLz/jPJ/x&#xA;M5hZvrPvLsdOP3cf6o+5OvPEjNLopYkk6RZGp90JzL1+5h/wuLg9lR2yf8Nn963RXH+DPMgrvzsC&#xA;B3p6smDB/cZP837ynVD/AArD/n/cGO8swXZ07litO5YrTuWK07litO5YrTuWK07litO5YrTuWK07&#xA;litO5YrTuWK0r2OoXdjdxXdpK0NxC3KOReoP+fUZPHOUJCUTRDXlwxyRMZC4l755M80weYtIW5FE&#xA;u4qR3cI/ZenUf5LdR93bOx0WrGaF9er512noDpsvD/CeR/HchvL/AJqn1HzVrmkSBBFYMv1biKNQ&#xA;fDJy8fipkdPqjPLOB5R5fpbdZ2eMWnxZRznz/QwbXtS9P847Zq/DFcWsFfaRFVv+ThzVZ8la0HzA&#xA;eg0mC+yz5xkfkT+pE/nhcf6RpEFfspO5H+sUH/GuT7bO8R7/ANDV7Kw9OQ/1f0o/zJfc/wAnbRid&#xA;5YLSInfcxslf+TeXamd6Ie6LjaLFXakvKUz87/Wp/kvdhdG1ZT0glWU/7JD3/wBhkexZVCXkWXtP&#xA;jvLj8xX2/tYn+Vd0w88WgY1M6zKT7+kz/wDGua/so1nHnf3O57fx/wCCS8q+8BBfmHMH86aqRtSU&#xA;L/wKKP4ZV2jvnl72/saNaWHu/SyD807hpNL8rkkUazL7dKskVf1ZmdqG4Y/6v6nXdgQrJn/r/pkh&#xA;/L9wq/lZ5jFKsLiGo9neJRkNOa0mT3j9DZrIX2jh/qn7OJAflbKw886co6OJwfl6Dn+GU9l/38fj&#xA;9xcjt+P+CT/zf90GP6vITq16Sakzykk9a8zmJm+s+8uy00f3cf6o+5lH5nzl77RSK8G0m2dQe3Jn&#xA;zO7TNyh/UH6XU9hQqGT/AIbL9C3S7hB+V+sxk/Eb6Cn08D/xqccR/wAEmP6QTngf5Qxn+hL9KF/L&#xA;SUp540sjerSr/wAFC4/jlfZu2ePx+4t3bkb0k/h/ugx27f8A0qb/AF2/Wcwpjcuzxj0j3J55yuEk&#xA;k0fjX4NJs0aviEzL1hsw/qRdf2ZAgZP+Gz+9bozf86p5i/6M/wDk8cGEfucn+b96dSP8Jw/5/wDu&#xA;Ug55h07Gnc8aWnc8aWnc8aWnc8aWnc8aWnc8aWnc8aWnc8aWnc8aWnc8aWnc8aWnc8aWnc8aWmW/&#xA;lhrz6Z5qt4WaltqH+jSr25Mf3Zp486D5E5sey83h5QOktv1Om7d0gy6cn+KHqH6fsTP8uNXEn5lX&#xA;0ldtSN3QeJL+t/xpmV2fk/wkn+df63F7a01aCI/mcP3cP6WN+adTK+e9QvAd7e/Ygj/iiTiO/wDk&#xA;Zh6mf7+Uu6X3O00GD/A4Q74feP2sh/Oy5D+ZLOJWqqWatsairyP/AAUZl9sG8gH9H9brfZeFYJH+&#xA;n+gN6xf8vyb0da/E12YmFabI0xHz6DHLP/A4j+l+tGmw12pk/qX/ALlZ+Vt8INK81f5Nj63Sv90k&#xA;v/NWDsyVQyf1f1p7fxcWTB/Xr5mLHvIFz6PnPSH8bhU/5GAp/wAbZiaE1mj73Z9sQ4tLkH9H7t1P&#xA;zxMX836wSa0upVr/AKrcafRTBrd80vey7KjWlx/1QnH5gTl9G8p9Qo0uMAe4CqT9PHMjXm4Y/wCo&#xA;4XY8Ky5/+GH9KzQ7mn5beZYqVrPZ718ZAf8AjTBhP+DZB5x+9lqof4fhP9Gf3ftQv5aSEeeNK4mh&#xA;LyD6DE4OV9nf38fx0be3B/gk/h94Y/fSs97cOxqzSOSfcscxJ/UXZYo1ADyDJPzCufVudDalF/Q9&#xA;nx8aMGbf/gszdebMP6kXV9jQqOX/AIdP9DWmyr/yrrWFr8QvrYkexDU/Vgx/4vL+sE54/wCHY/6k&#xA;lH8upQnnbSSd6ylf+CRl/jkez9s8fez7ajekye79LH55leeR1+yzFhXwJrmJLcuyhGgAm/mlv3mm&#xA;f9s20/5N5kakbx/qxcLQDaf/AAyX3rtHlP8AhnzAn7JS1Y/MTgD9eHD/AHU/h96NTH/CMR/rf7lI&#xA;uWYtOwp3LGlp3LGlp3LGlp3LGlp3LGlp3LGlp3LGlp3LGlp3LGlp3LGlp3LGlp3LGlp3LGlpUtrl&#xA;7e4injNJIXWRD7qajJRNG2M8YlExPIsr/LGwkH5h28JJrZG4MhG32EaP/iTDNj2dj/wgDut0/buY&#xA;fkSf53D94KQ+aYJI/Neq243cXs6r03rKaffmNqYVlkP6R+92OgkDpoS/oR+5kv5y25tvM9qnIsDY&#xA;QgMa78XdO/8Aq5l9qwrIP6odV7Mz49PI/wBM/cCt1O1dPyg0e4rs+oyNT2IlT9ceOSH+CRP9L9ac&#xA;GQHtPJH/AGsf70/pWflxbPPpnmx1JqulSoADSpZWYf8AEMGghccn9Qsu25iOTAP9tH4+1IvJKGbz&#xA;foyDqLyB/oRwx/4jmNpI3lj/AFg7DtQ8OlyH+hL7Q352Qxeb9ZQ13vJn3/y3Lfxx1cayy/rFeyzx&#xA;aXGf6A+5OPP1sYdH8pyGv7zS03rXwf8A5mZfrYVDH/UcHsifFlzjuyn9X6FuhRM35aeZpqjis9nt&#xA;32kA/wCN8cMf8HyHzinVy/w/CP6M/u/YhvyyQy+etJQdnkbrT7ETt/DIdnxvPH8dG3t01o8h8h94&#xA;Y9fho765RvtJK6n5hiMxZipF2eHeAPkGS/mJC0FzoSE1/wBwtlQ9Pshl/wCNcy9dGjD+pF1XY0uK&#xA;OU/7dP8AQs06EN+XOsT7/Df2tPD4Vcf8zMGOP+DyP9IMs0v8Oxj+hL9H6lL8uF9TzvpC1p++Lf8A&#xA;AozfwwaAfvo+9l22a0mT3fpY9OBHNJGDUIxUH5GmYhjRdnHcAp15sR4pNJ5Ajnplo617hk675k6m&#xA;NcP9UOB2cQRk/wCGT+9vRgT5X8xSV2VbRaf609f+NccQ/dT+H3rqv8Ywj+v/ALlIeeY1Oxp3PGlp&#xA;3PGlp3PGlp3PGlp3PGlp3PGlp3PGlp3PGlp3PGlp3PGlp3PGlp3PGlp3PGlpWs4XuruC2j3eeRYk&#xA;A8XYKP14Ywsgd7XlkIRMj0FvXvIOkmH8zfNUxX4YGcLt0+tS+qtP9iudBo8VajIfxuXiu19Rxdn4&#xA;B31/sRTE/M+ncvzh+qU+G4v7Vif8mURux7eJzC1GP/Cq75D9DudDmrsvi7oS+y00/PmHjqulT/78&#xA;gkT/AIBwf+N8u7Yj6onycT2RleOY7pD7R+xF+YrL0/yR0yo/u/Qn/wCRrk/8zcnnh/gcfg06LLfa&#xA;0/PiHyH7FL8l7MT6H5kJFfrCJBvv0jkrt/s8j2XC4T8/2s/afLw5sPkSftH6mJflbD6/nzSlpUK0&#xA;kh2rThC7D8RmF2fG80fx0dz2/Lh0c/h9pC38z4/R8+aslKVkR/H7cSP/AMbY6+NZpfjonsGXFo8Z&#xA;8j9hIZP+cVp9X0XyrtQxW7wtXr8McNB+BzL7ThUMfu/U6n2aycWXP5yB+2Sn5Vtuf5O+Y5DtzuCR&#xA;UbUiELfrwaeH+Cz9/wCpn2hOu1MI/o/fxJT+TsYk89WrbfuopnFfeMrt/wAFlHZkf3w+Lme0prRy&#xA;8zH72N+ZU9HzHqsNOPp3lwnEduMrDMXPGskh5l2mhPFgge+EfuZl+c9sbfUtGqKEaekVTsf3btsR&#xA;/ssz+1IVKP8AVdH7MT4seT/hhPzU9HgJ/JnXZ60pqEW3iAYBt/weRxR/wSR/pfqZamX+uuIf7Wf9&#xA;9+pL/wApE9Tz9pp2ognYg/8AGBwPxOV9mx/fx+P3OT7RGtFP/N/3QY3rK+lrF9GRxKXEq8R2o5FM&#xA;xMsakfe7TTG8UT/RH3Mk/MiEQT+X1BJrollUnxUOv8My9dGjD+pF1fYkuIZf+HT/AEKOhJ/zoHmi&#xA;XbeXT1HjtK5P68jhj+4n/ms9Wf8ADcA8sn3BivLMOncU7ljS07ljS07ljS07ljS07ljS07ljS07l&#xA;jS07ljS07ljS07ljS07ljS07ljS07ljS0zj8ovL76r5qiu3WtpplLiRu3qf7qX58vi+jNh2bg48l&#xA;9I7/AKnQe0esGHTmI+rJt8Ov6vi9/WGJJHkRFWSShkcAAtQUHI96DOloPnBkSACdg8w1jTef556U&#xA;1PhkthdMf+Mccqj/AIaMZqsmP/C4+6/ves02euyJ+UuH5mP60P8An/DWz0Wf+SSdP+DVD/xpke14&#xA;7RPvbPY+XqyDyj9l/rT7zlYGP8opLShBt7G0FPD0WiPf/VzI1MP8GruA/Q67szLfaYl/OnP7eJBf&#xA;kRBx8qXcx6y3rgf6qxR0/EnK+yo1jJ83I9rZXqYjugPvLC/yfsyv5hPGRvZxXHXcihEfb/WzB7Oh&#xA;++91u99pMl6IH+cY/rQ/5v2xP5gzouzXKW5G3coE+n7OR7Rj++PnTb7Nz/wIH+aZffbMfz6gVdD0&#xA;qRQAIrho1HcBo67f8Bmd2tH0R97o/ZGd5pjvjf2/tW+TbWv5K6qdh6sN9LtvXgpH/MvBpo/4LL3S&#xA;T2nk/wBdoeRgPn/axv8AImMyeb7l96RWMhr2qZYxQ/ecxeyo/vT7v1O09rDWlA75j7pMc85W1fP2&#xA;qW3Ej1b9/hHU+rJX8eWY2ph++kP6TtOzJ/4HCXdAfYGbfn/HxvdGlofjjnXl2PFkNP8Ahszu1xvE&#xA;+90PsebhkHnH9LWh29fyL1U05c5Xkof8iWPf6OFccUf8El+O5dVP/XfH7q+w/rST8lE9TzxG1K+l&#xA;bzPXw2C1/wCGyjswfvfg7D2oNaQ+cgxjzYoi81azGDUJfXKg/KZhmJqBWSX9Y/e7bs43p8Z/oR+4&#xA;Mx/OaAw3OgVIqNOSMqOg4H+3M3tKNGP9V0fsxPijl/4YT80v0ZKflR5hmoPivbVK9/hZT/xtleIf&#xA;4PP3hydUf9csQ/oS/SwjlmDTv6dyxpadyxpadyxpadyxpadyxpadyxpadyxpadyxpadyxpadyxpa&#xA;dyxpadyxpaR+iaNqWt6lFp2nRGW5lOw6Kqjq7nso7nJ4sMpy4Y83H1Wpx4MZnM1EPpTyb5Vs/LOi&#xA;RafAfUlP7y6uKUMkpG5+Q6KPDOo02nGKHCHyvtPtCWqymZ2HQdw/HNPMyHXqLWVm12l40CG7jQxp&#xA;cFR6gRiCVDdaEjI8Iu+rYMshHgs8J3rpbGPzJ8m3fmrSLWztJkhlguklZ5K09PiyPSg6jlUfLMbW&#xA;ac5YgDvdt2H2nHR5ZTkCQYkbd/MJv5p0qXUvLGpabbKpmuLaSO3Q0C8+PwCp6b0y3Pj4sZiO5wuz&#xA;9QMWohklyEgT+lKvyw0C/wBD8oW1nqEfpXbPJNLFUErzb4Qad+NK5VosRhjAPNy+3tZDUaqU4G47&#xA;D5Me/L3ybrOkefPMGoXlt6Vm/qx2k1RxkWaZZV4AeCqK+B2zH0mmlDLIkbftdn2z2nizaPFCJuW1&#xA;juqNboD8x/Kutah+Y+i3VpZTXFk626z3CKTHGY52L83GyUQg7/RleswSlmiQNtvvcjsTtDFi0OSM&#xA;pAT9VDqbiKrv3T786NH1DU/KMa2NvJczW13HO8cSl34cHQkKN9i4JpmR2jjMsewui6/2Y1MMWpPG&#xA;RESiRvtvYP6EX5N0K/g/LGHSJ4mgvZrS5UxSDiytcNIyhgeh+Mdclp8RGDhPOj9rR2nq4S7QOWJu&#xA;IlHf+rX6mJ/kj5Z1zTdU1O71Kwmsl9JYIzOjRlmL8m4hgOQ+HqNsxOzcEoyJkKdz7U67DlxwjjkJ&#xA;b3sb6JV5n8m6/cfmv6kOnTPY3N3BP9ZVWMPpjgZWaTotDWo/syrPppnUbDYkOZoO08MezaMxxxjI&#xA;V1vetmSfnl5e1fVLLSrnTrSW8No8ySxwIZHAmCUPFQWp+7zJ7TwymImIunV+ymsxYp5I5JCPEBV7&#xA;cr/WjNC8rasv5PyaNLAyanPb3DLbNRWDvIzxoa9CRStcniwS/LcP8VFo1evxntMZQf3YlHf4AEsZ&#xA;/JLyvrln5ivNQ1CwmtLeK2eBWnRoiZXkQ0UMByoqNXMbs3BKMySK2dr7U6/DPBGEJCRMr2N7Uf1h&#xA;j/nTyN5pn8938Vrps0kd/ctLbzpGxhKzNy5NIBxWnL4q9Mx9TpchymhzLs+y+1dPHRwMpgGEaIvf&#xA;by+5mn52+VdY1GHSrrSrOS7jtBJDLFArSSKG4lDxWrEfCa+GZvaWCUuExF06H2W7QxYjOOSQiZUR&#xA;ew62gdK8j+Yl/KDUrBrNk1O7uReRWjCkpjQxDiVO4akbEL1yuGln+XIr1E39zkajtXAe04T4v3cY&#xA;8N9LPF9m43eYHy15lBodJvQR1H1eX/mnNZ4E/wCafk9b+e0/+qQ/0w/W7/DfmT/q03n/AEjy/wDN&#xA;OPgT/mn5L+ewf6pD/TB3+G/Mn/VpvP8ApHl/5px8Cf8ANPyX89g/1SH+mDv8N+ZP+rTef9I8v/NO&#xA;PgT/AJp+S/nsH+qQ/wBMHf4b8yf9Wm8/6R5f+acfAn/NPyX89g/1SH+mDv8ADfmT/q03n/SPL/zT&#xA;j4E/5p+S/nsH+qQ/0wd/hvzJ/wBWm8/6R5f+acfAn/NPyX89g/1SH+mDv8N+ZP8Aq03n/SPL/wA0&#xA;4+BP+afkv57B/qkP9MHf4b8yf9Wm8/6R5f8AmnHwJ/zT8l/PYP8AVIf6YO/w35k/6tN5/wBI8v8A&#xA;zTj4E/5p+S/nsH+qQ/0wd/hvzJ/1abz/AKR5f+acfAn/ADT8l/PYP9Uh/pgq23lDzZcvwh0a9c9z&#xA;9XkAFfElQBhGnyHlE/JhPtLTRFnJD/TBmPl/8kPM986yaq8el23VlJEsxHsqHiPpb6MzMXZk5fV6&#xA;Q6TWe1Wnxisd5JfIfb+p7H5Y8oaH5as/q2mQcWenrXD0aWQj+dqD7htm4waeGIVF4fX9pZtVLiyH&#xA;3DoPcnOXuA//2Q==</xmpGImg:image>
               </rdf:li>
            </rdf:Alt>
         </xmp:Thumbnails>
         <xmpMM:DocumentID>uuid:971E3EA93164DF118E6D90B556E55533</xmpMM:DocumentID>
         <xmpMM:InstanceID>uuid:981E3EA93164DF118E6D90B556E55533</xmpMM:InstanceID>
         <xmpMM:DerivedFrom rdf:parseType="Resource">
            <stRef:instanceID>uuid:5D6A817A07F311DDB65DBE16EC1FED5E</stRef:instanceID>
            <stRef:documentID>uuid:5D6A817907F311DDB65DBE16EC1FED5E</stRef:documentID>
         </xmpMM:DerivedFrom>
         <xmpTPg:MaxPageSize rdf:parseType="Resource">
            <stDim:w>92.985001</stDim:w>
            <stDim:h>40.383003</stDim:h>
            <stDim:unit>Points</stDim:unit>
         </xmpTPg:MaxPageSize>
         <xmpTPg:NPages>1</xmpTPg:NPages>
         <xmpTPg:HasVisibleTransparency>False</xmpTPg:HasVisibleTransparency>
         <xmpTPg:HasVisibleOverprint>False</xmpTPg:HasVisibleOverprint>
         <xmpTPg:PlateNames>
            <rdf:Seq>
               <rdf:li>Cyan</rdf:li>
               <rdf:li>Magenta</rdf:li>
               <rdf:li>Yellow</rdf:li>
               <rdf:li>Black</rdf:li>
            </rdf:Seq>
         </xmpTPg:PlateNames>
         <xmpTPg:SwatchGroups>
            <rdf:Seq>
               <rdf:li rdf:parseType="Resource">
                  <xmpG:groupName>Default Swatch Group</xmpG:groupName>
                  <xmpG:groupType>0</xmpG:groupType>
               </rdf:li>
            </rdf:Seq>
         </xmpTPg:SwatchGroups>
      </rdf:Description>
   </rdf:RDF>
</x:xmpmeta>
                                                                                                    
                                                                                                    
                                                                                                    
                                                                                                    
                                                                                                    
                                                                                                    
                                                                                                    
                                                                                                    
                                                                                                    
                                                                                                    
                                                                                                    
                                                                                                    
                                                                                                    
                                                                                                    
                                                                                                    
                                                                                                    
                                                                                                    
                                                                                                    
                                                                                                    
                                                                                                    
                           
<?xpacket end="w"?>
	</metadata>
<linearGradient id="SVGID_1_" gradientUnits="userSpaceOnUse" x1="46.4925" y1="56" x2="46.4925" y2="15.617" gradientTransform="matrix(1 0 0 -1 0 56)">
	<stop  offset="0" style="stop-color:#F79810"/>
	<stop  offset="1" style="stop-color:#F8310E"/>
</linearGradient>
<path fill="url(#SVGID_1_)" d="M1.1,24.2c-0.2,0-0.3,0.1-0.4,0.4L0,29.7l0.7,5.1c0,0.2,0.2,0.4,0.4,0.4c0.2,0,0.3-0.1,0.4-0.4l0,0v0
	c0,0,0,0,0,0l0.8-5.1l-0.8-5.2C1.4,24.3,1.2,24.2,1.1,24.2z M4.9,21.3c0-0.2-0.2-0.4-0.4-0.4c-0.2,0-0.4,0.2-0.4,0.4
	c0,0-0.9,8.4-0.9,8.4l0.9,8.2c0,0.2,0.2,0.4,0.4,0.4c0.2,0,0.4-0.2,0.4-0.4l1-8.2L4.9,21.3z M19.3,13.6c-0.4,0-0.7,0.3-0.7,0.7
	l-0.7,15.4l0.7,9.9c0,0.4,0.3,0.7,0.7,0.7c0.4,0,0.7-0.3,0.7-0.7v0l0.8-9.9L20,14.3C20,13.9,19.7,13.6,19.3,13.6z M11.8,19
	c-0.3,0-0.5,0.2-0.5,0.5l-0.8,10.2l0.8,9.8c0,0.3,0.3,0.5,0.5,0.5c0.3,0,0.5-0.2,0.5-0.5l0.9-9.8l-0.9-10.2
	C12.3,19.2,12.1,19,11.8,19z M26.9,40.3c0.5,0,0.8-0.4,0.9-0.9l0.7-9.8L27.7,9.2c0-0.5-0.4-0.9-0.9-0.9c-0.5,0-0.8,0.4-0.9,0.9
	c0,0-0.6,20.5-0.6,20.5l0.6,9.8C26,39.9,26.4,40.3,26.9,40.3z M42.4,40.4c0.6,0,1.2-0.5,1.2-1.2v0v0l0.5-9.5L43.5,6.1
	c0-0.6-0.5-1.2-1.2-1.2c-0.6,0-1.2,0.5-1.2,1.2l-0.4,23.6c0,0,0.4,9.5,0.4,9.5C41.2,39.8,41.7,40.4,42.4,40.4z M34.6,40.3
	c0.6,0,1-0.4,1-1v0l0.6-9.6L35.6,9.1c0-0.6-0.5-1-1-1c-0.6,0-1,0.4-1,1L33,29.7l0.5,9.6C33.5,39.9,34,40.3,34.6,40.3z M15.5,40.2
	c0.3,0,0.6-0.3,0.6-0.6l0.9-9.9l-0.9-9.4c0-0.3-0.3-0.6-0.6-0.6c-0.3,0-0.6,0.3-0.6,0.6l-0.8,9.4l0.8,9.9
	C14.9,40,15.2,40.2,15.5,40.2z M8.1,39.7c0.2,0,0.4-0.2,0.5-0.5l1-9.5l-1-9.9c0-0.3-0.2-0.5-0.5-0.5c-0.2,0-0.4,0.2-0.5,0.5
	c0,0-0.9,9.9-0.9,9.9l0.9,9.5C7.7,39.5,7.9,39.7,8.1,39.7z M38.4,8.7c-0.6,0-1.1,0.5-1.1,1.1l-0.5,19.9l0.5,9.6
	c0,0.6,0.5,1.1,1.1,1.1c0.6,0,1.1-0.5,1.1-1.1v0l0.6-9.6L39.5,9.8C39.5,9.2,39,8.7,38.4,8.7z M23.1,40.3c0.4,0,0.8-0.3,0.8-0.8
	l0.8-9.9l-0.8-18.9c0-0.4-0.4-0.8-0.8-0.8c-0.4,0-0.8,0.3-0.8,0.8c0,0-0.7,18.9-0.7,18.9l0.7,9.9C22.3,40,22.6,40.3,23.1,40.3z
	 M31.6,39.4L31.6,39.4l0.7-9.7L31.6,8.5c0-0.5-0.4-0.9-0.9-0.9c-0.5,0-0.9,0.4-0.9,0.9l-0.6,21.1l0.6,9.7c0,0.5,0.4,0.9,0.9,0.9
	C31.2,40.3,31.6,39.9,31.6,39.4L31.6,39.4z M81.5,17.5c-1.6,0-3.1,0.3-4.4,0.9C76.2,8.1,67.6,0,57,0c-2.6,0-5.1,0.5-7.3,1.4
	c-0.9,0.3-1.1,0.7-1.1,1.3V39c0,0.7,0.6,1.3,1.2,1.4c0,0,31.5,0,31.7,0c6.3,0,11.4-5.1,11.4-11.4S87.9,17.5,81.5,17.5z M46.3,2.7
	c-0.7,0-1.3,0.6-1.3,1.3l-0.5,25.8l0.5,9.4c0,0.7,0.6,1.2,1.3,1.2c0.7,0,1.2-0.6,1.3-1.3v0l0.6-9.4L47.5,3.9
	C47.5,3.2,47,2.7,46.3,2.7z"/>
</svg>
