<?xml version="1.0" encoding="utf-8"?>
<!-- Generator: Adobe Illustrator 17.1.0, SVG Export Plug-In . SVG Version: 6.00 Build 0)  -->
<!DOCTYPE svg PUBLIC "-//W3C//DTD SVG 1.1//EN" "http://www.w3.org/Graphics/SVG/1.1/DTD/svg11.dtd">
<svg version="1.1" id="Your_Icon" xmlns="http://www.w3.org/2000/svg" xmlns:xlink="http://www.w3.org/1999/xlink" x="0px" y="0px"
	 viewBox="0 0 612 792" enable-background="new 0 0 612 792" xml:space="preserve">
<path fill="#3498DB" d="M536.1,218.5c-4.9-4.3-12.9-3.7-17.1,1.2l-145,168.9c2.4-22,3.7-45.3,3.1-69.8l108.9-127.3
	c4.3-4.9,3.7-12.9-1.2-17.1c-4.9-4.3-12.9-3.7-17.1,1.2L375.2,284c-1.8-19-4.9-37.9-8.6-56.3l67.9-80.2c4.3-4.9,3.7-12.9-1.2-17.1
	c-4.9-4.3-12.9-3.7-17.1,1.2l-57.5,67.3c-6.1-19-13.5-36.7-22.6-52c-59.4-98.5-200.7-25.1-206.2-22h-0.6
	c-6.1,3.1-146.9,78.3-98.5,183c22,47.7,69.8,95.5,121.8,132.2l-88.7,104c-4.3,4.9-3.7,12.9,1.2,17.1s12.9,3.7,17.1-1.2l90.6-105.9
	c12.9,8,25.1,15.3,37.9,22l-96.1,112.6c-4.3,4.9-3.7,12.9,1.2,17.1c4.9,4.3,12.9,3.7,17.1-1.2l99.8-116.9
	c15.3,6.7,30,12.2,42.8,15.9L165.2,632.8c-4.3,4.9-3.7,12.9,1.2,17.1c4.9,4.3,12.9,3.7,17.1-1.2l120-140.1c9.8,0,18.4-1.2,24.5-4.3
	h0.6c15.9-8.6,28.8-33.7,36.7-67.3l171.4-200.1C541.6,230.1,541,222.8,536.1,218.5z"/>
<path fill="#3498DB" d="M586.9,262c-4.9-4.3-12.9-3.7-17.1,1.2L216.6,676.3c-4.3,4.9-3.7,12.9,1.2,17.1s12.9,3.7,17.1-1.2
	l353.1-413.1C593,274.2,592.4,266.3,586.9,262z"/>
</svg>
