<svg xmlns="http://www.w3.org/2000/svg" xmlns:xlink="http://www.w3.org/1999/xlink" version="1.1" id="Layer_1" x="0px" y="0px" width="69.975px" height="82.153px" viewBox="15.127 5.038 69.975 82.153" enable-background="new 15.127 5.038 69.975 82.153" xml:space="preserve">
<g id="Captions">
	<rect x="-606" y="-138" width="185" height="99"/>
	<rect x="-414" y="-174" width="100" height="30"/>
	<text transform="matrix(1 0 0 1 -347.9995 -157.5)" fill="#000000" font-family="'Helvetica'" font-size="2.4">http://thenounproject.com</text>
	<text transform="matrix(1 0 0 1 -406.8345 -162.5)" fill="#000000" font-family="'Helvetica-Bold'" font-size="6.1578">The Noun Project</text>
	<text transform="matrix(1 0 0 1 -405.7144 -157.7002)" fill="#000000" font-family="'Helvetica-Bold'" font-size="4">Icon Template</text>
	<text transform="matrix(1 0 0 1 -592.4995 -127.5)" fill="#000000" font-family="'Helvetica-Bold'" font-size="6.1578">Reminders</text>
	<line fill="#000000" stroke="#FFFFFF" stroke-miterlimit="10" x1="-406" y1="-152.5" x2="-396" y2="-152.5"/>
	<line fill="#000000" stroke="#FFFFFF" stroke-miterlimit="10" x1="-593" y1="-121.5" x2="-576" y2="-121.5"/>
	<g>
		<g>
			<g>
				<rect x="-584.802" y="-106.682" fill="#000000" width="8.721" height="8.642"/>
				<path fill="#000000" d="M-578.455-95.688h4.747v-4.703h-4.747V-95.688z M-573.266-95.251h-5.63v-5.579h5.63V-95.251      L-573.266-95.251z M-580.221-93.938h8.279v-8.203h-8.279V-93.938L-580.221-93.938z M-571.5-93.5h-9.163v-9.079h9.163V-93.5      L-571.5-93.5z"/>
				<polygon fill="#000000" points="-580.149,-93.867 -580.292,-94.009 -572.013,-102.213 -571.871,-102.071     "/>
			</g>
		</g>
	</g>
	<rect x="-593" y="-80" fill="none" width="35" height="32.5"/>
	<text transform="matrix(1 0 0 1 -592.9995 -77.8428)" fill="#000000" font-family="'Helvetica-Bold'" font-size="3">Strokes</text>
	<text transform="matrix(1 0 0 1 -592.9995 -72.8428)" fill="#000000" font-family="'Helvetica'" font-size="2.4">Try to keep strokes at 4px</text>
	<text transform="matrix(1 0 0 1 -592.9995 -67.8428)" fill="#000000" font-family="'Helvetica'" font-size="2.4">Minimum stroke weight is 2px</text>
	<text transform="matrix(1 0 0 1 -592.9995 -63.3428)" fill="#000000" font-family="'Helvetica'" font-size="2.4">For thicker strokes use even </text>
	<text transform="matrix(1 0 0 1 -592.9995 -60.3428)" fill="#000000" font-family="'Helvetica'" font-size="2.4">numbers: 6px, 8px etc.</text>
	<text transform="matrix(1 0 0 1 -592.9995 -55.8428)" fill="#000000" font-family="'Helvetica-Bold'" font-size="2.4">Remember to expand strokes </text>
	<text transform="matrix(1 0 0 1 -592.9995 -52.8428)" fill="#000000" font-family="'Helvetica-Bold'" font-size="2.4">before saving as an SVG </text>
	<rect x="-550.5" y="-80" fill="none" width="35" height="32.5"/>
	<text transform="matrix(1 0 0 1 -550.4995 -77.8428)" fill="#000000" font-family="'Helvetica-Bold'" font-size="3">Size</text>
	<text transform="matrix(1 0 0 1 -550.4995 -72.8428)" fill="#000000" font-family="'Helvetica'" font-size="2.4">Cannot be wider or taller than </text>
	<text transform="matrix(1 0 0 1 -550.4995 -69.3428)" fill="#000000" font-family="'Helvetica'" font-size="2.4">100px (artboard size)</text>
	<text transform="matrix(1 0 0 1 -550.4995 -64.3428)" fill="#000000" font-family="'Helvetica'" font-size="2.4">Scale your icon to fill as much of </text>
	<text transform="matrix(1 0 0 1 -550.4995 -61.3428)" fill="#000000" font-family="'Helvetica'" font-size="2.4">the artboard as possible</text>
	<rect x="-508" y="-80" fill="none" width="35" height="32.5"/>
	<text transform="matrix(1 0 0 1 -507.9995 -77.8428)" fill="#000000" font-family="'Helvetica-Bold'" font-size="3">Ungroup</text>
	<text transform="matrix(1 0 0 1 -507.9995 -72.8428)" fill="#000000" font-family="'Helvetica'" font-size="2.4">If your design has more than one </text>
	<text transform="matrix(1 0 0 1 -507.9995 -69.8428)" fill="#000000" font-family="'Helvetica'" font-size="2.4">shape, make sure to ungroup</text>
	<rect x="-464" y="-80" fill="none" width="35" height="32.5"/>
	<text transform="matrix(1 0 0 1 -463.9995 -77.8428)" fill="#000000" font-family="'Helvetica-Bold'" font-size="3">Save as</text>
	<text transform="matrix(1 0 0 1 -463.9995 -72.8428)" fill="#000000" font-family="'Helvetica'" font-size="2.4">Save as .SVG and make sure </text>
	<text transform="matrix(1 0 0 1 -463.9995 -69.8428)" fill="#000000" font-family="'Helvetica'" font-size="2.4">&#8220;Use Artboards&#8221; is checked</text>
	<text transform="matrix(1.0074 0 0 1 -539.5425 -107.4062)" fill="#000000" font-family="'Helvetica'" font-size="2.5731">100px</text>
	<text transform="matrix(1.0074 0 0 1 -454.9995 -99)" fill="#000000" font-family="'Helvetica-Bold'" font-size="5.1462">.SVG</text>
	<rect x="-540.514" y="-103.185" fill="#000000" width="10.261" height="10.185"/>
	<rect x="-540.477" y="-106.234" fill="#000000" width="0.522" height="2.337"/>
	<rect x="-530.812" y="-106.234" fill="#000000" width="0.523" height="2.337"/>
	<rect x="-541" y="-105.663" fill="#000000" width="11.233" height="0.572"/>
	<g>
		<rect x="-497.805" y="-104.156" fill="#000000" width="10.305" height="10.156"/>
		<rect x="-490.809" y="-109.293" fill="#000000" width="3.308" height="3.261"/>
	</g>
	<rect x="-592.5" y="-115.5" fill="#000000" stroke="#FFFFFF" stroke-miterlimit="10" width="30" height="30"/>
	<rect x="-550.5" y="-115.5" fill="#000000" stroke="#FFFFFF" stroke-miterlimit="10" width="30" height="30"/>
	<rect x="-507.5" y="-115.5" fill="#000000" stroke="#FFFFFF" stroke-miterlimit="10" width="30" height="30"/>
	<rect x="-463.5" y="-115.5" fill="#000000" stroke="#FFFFFF" stroke-miterlimit="10" width="30" height="30"/>
</g>
<path d="M-366.55-48.026c-5.109-0.354-27.434-22.882-33.652-53.425c-6.219-30.542,33.646-28.673,33.646-28.673l1.371-0.006  c0,0,39.857-1.863,33.64,28.679c-6.219,30.543-28.484,53.193-33.652,53.425C-365.197-48.026-365.682-47.967-366.55-48.026z"/>
<path d="M-366.83,90.975c-5.109-0.354-27.434-22.883-33.652-53.426c-6.219-30.542,33.646-28.673,33.646-28.673l1.371-0.006  c0,0,39.858-1.863,33.64,28.679c-6.219,30.543-28.484,53.193-33.653,53.426C-365.477,90.975-365.961,91.033-366.83,90.975z"/>
<path d="M-89.921,90.975c-5.109-0.354-27.434-22.883-33.652-53.426C-129.792,7.007-89.927,8.876-89.927,8.876l1.371-0.006  c0,0,39.858-1.863,33.641,28.679c-6.219,30.543-28.484,53.193-33.652,53.426C-88.567,90.975-89.052,91.033-89.921,90.975z"/>
<path d="M49.438,87.164c-5.109-0.354-27.434-22.882-33.652-53.425C9.566,3.197,49.432,5.066,49.432,5.066l1.371-0.006  c0,0,39.858-1.863,33.641,28.679C78.225,64.282,55.96,86.932,50.792,87.164C50.791,87.164,50.307,87.225,49.438,87.164z"/>
<path d="M-229.24-48.026c-5.109-0.354-27.434-22.882-33.652-53.425c-6.219-30.542,33.646-28.673,33.646-28.673l1.371-0.006  c0,0,39.857-1.863,33.64,28.679c-6.219,30.543-28.484,53.193-33.652,53.425C-227.888-48.026-228.372-47.967-229.24-48.026z"/>
<path d="M-88.85-48.026c-5.109-0.354-27.434-22.882-33.652-53.425c-6.219-30.542,33.646-28.673,33.646-28.673l1.371-0.006  c0,0,39.857-1.863,33.64,28.679c-6.219,30.543-28.484,53.193-33.652,53.425C-87.497-48.026-87.981-47.967-88.85-48.026z"/>
<path d="M48.817-48.026c-5.109-0.354-27.434-22.882-33.652-53.425c-6.219-30.542,33.646-28.673,33.646-28.673l1.371-0.006  c0,0,39.857-1.863,33.64,28.679C77.604-70.908,55.338-48.258,50.17-48.026C50.17-48.026,49.686-47.967,48.817-48.026z"/>
<path d="M187.311-48.026c-5.108-0.354-27.434-22.882-33.651-53.425c-6.22-30.542,33.646-28.673,33.646-28.673l1.371-0.006  c0,0,39.857-1.863,33.641,28.679c-6.219,30.543-28.484,53.193-33.652,53.425C188.663-48.026,188.18-47.967,187.311-48.026z"/>
<polygon fill="#000000" points="-219.923,-115.083 -233.646,-97 -229.071,-97 -234.79,-90 -230.216,-90 -237.077,-74.917   -222.21,-93 -226.784,-93 -221.066,-100 -226.784,-100 "/>
<path fill="#000000" d="M-113.402-105c0,0,1,1,3,0c0,0,2-1,5.386-3.942c2.289-1.989,5.504-3.866,7.299-0.948  c1.795,2.918,16.386,29.014,16.386,29.014s0.637,0.252,0.888-0.386c0,0-2.729-5.288-3.37-12.614c0,0-0.045-2.166-2.343-3.81  l10.121,0.043c0,0-6.019,1.096-1.365,8.224c0,0,5.854,9.525-0.505,12.548c-7.093,3.371-9.155-2.238-11.012-6.52  c-2.517-5.802-11.108-24.76-11.108-24.76s-1.307-1.932-4.219,0.985c-4.157,4.164-8.334,3.191-8.334,3.191L-113.402-105z"/>
<g>
	<path fill="#000000" d="M-78.989-108.741c0.004,0.459-0.06,1.03,0.318,1.665c0.29,0.484,0.629,0.935,0.851,1.323   c0.295,0.511,0.473,1.102,0.403,1.662c-0.112,0.892-0.655,1.757-1.015,2.243c-0.046-0.003-0.093-0.006-0.14-0.01   c0.269-0.465,0.782-1.215,0.851-2.042c0.041-0.463-0.068-0.984-0.313-1.401c-0.272-0.483-0.778-0.931-1.258-1.03   c-0.213,1.702-0.427,3.404-0.641,5.106c-0.051,0.405-0.331,0.752-0.702,0.974c-0.362,0.223-0.812,0.306-1.187,0.22   c-0.239-0.054-0.449-0.191-0.585-0.361c-0.144-0.173-0.213-0.389-0.185-0.613c0.044-0.353,0.325-0.648,0.683-0.849   c0.358-0.207,0.793-0.317,1.139-0.266c0.302,0.045,0.563,0.114,0.7,0.286c0.29-2.311,0.58-4.622,0.869-6.933   C-79.13-108.76-79.06-108.751-78.989-108.741z"/>
</g>
<g>
	<path fill="#000000" d="M181.152-111.995c0.19,1.424,0.218,3.222,1.638,5.046c1.092,1.393,2.317,2.659,3.159,3.778   c1.115,1.472,1.898,3.239,1.898,5.004c0,2.816-1.349,5.716-2.273,7.366c-0.147,0.008-0.293,0.017-0.441,0.023   c0.653-1.55,1.958-4.08,1.85-6.678c-0.055-1.456-0.596-3.031-1.521-4.231c-1.033-1.396-2.779-2.59-4.309-2.712   c0,5.373,0,10.744,0,16.115c0,1.277-0.737,2.467-1.805,3.298c-1.037,0.835-2.402,1.268-3.601,1.145   c-0.763-0.074-1.47-0.416-1.956-0.894c-0.516-0.482-0.812-1.124-0.812-1.831c0-1.114,0.758-2.14,1.789-2.9   c1.032-0.784,2.342-1.296,3.435-1.272c0.954,0.023,1.793,0.134,2.286,0.616c0-7.294,0-14.587,0-21.879   C180.71-112,180.932-111.999,181.152-111.995z"/>
</g>
<path fill="#000000" d="M192.113-94.176c1.543-1.023,4.338-2.44,5.421-3.815c0.942-1.2,1.054-2.082,1.108-3.595  c0.057-1.367-0.654-3.563-0.988-3.937c0.125-0.103,0.252-0.205,0.377-0.307c0.666,1.126,1.222,2.829,1.222,4.821  c0,1.054-0.194,1.992-0.608,2.875c0.193,0.571,0.305,1.17,0.305,1.996c0,1.848-0.499,4.463-2.109,6.522  c-0.857,1.108-1.971,2.065-3.324,3.173c-1.189,1.001-1.343,2.367-1.399,2.671c-0.248-0.032-0.496-0.07-0.744-0.11  c0-7.705,0-15.409,0-23.114c0-1.269,0.815-2.522,1.868-3.442c1.076-0.954,2.438-1.556,3.656-1.562  c0.808-0.006,1.5,0.273,1.998,0.723c0.529,0.451,0.834,1.097,0.834,1.835c0,1.164-0.777,2.287-1.83,3.134  c-1.029,0.874-2.361,1.462-3.498,1.507c-0.969,0.036-1.789-0.022-2.284-0.459C192.113-101.565,192.113-97.871,192.113-94.176z   M197.479-96.162c-0.805,1.027-1.472,1.693-2.83,2.889c-1.191,1.094-2.477,3.062-2.533,5.055c2.484-1.2,4.365-2.37,5.613-5.172  c0.39-0.887,0.64-2.174,0.666-2.917c0.027-0.427,0.041-0.964,0.013-1.335C198.157-97.128,197.841-96.619,197.479-96.162z"/>
<path fill="#000000" d="M201.701-109.538c0.717,0.076,1.294,0.737,1.294,1.455c0,0.719-0.577,1.238-1.294,1.183  c-0.719-0.057-1.301-0.683-1.301-1.42C200.4-109.058,200.982-109.611,201.701-109.538z"/>
<path fill="#000000" d="M-355.723,35.281c0,0,1.027,0.516,1.002,1.621c-0.026,1.105-0.58,1.77-0.845,1.941  c-0.262,0.171-1.606,0-1.606,0s-0.316-0.051-0.396-0.394c-0.08-0.343-0.158-0.785-0.158-0.785l-0.845,0.073L-359,38  c0.028-0.601-0.023-1.464,0-2c0.219,0.034,1.077,0.178,1.116,0.288c0.053,0.147,0.211,0.124,0.211,0.124l0.368-0.885  c0,0,0.133-0.246,0.344-0.246C-356.751,35.281-355.723,35.281-355.723,35.281z"/>
<path fill="#000000" d="M-356.09,43.477c0,0,1.027,0.516,1.001,1.621c-0.025,1.105-0.579,1.769-0.843,1.941  c-0.265,0.172-1.608,0-1.608,0s-0.316-0.049-0.396-0.395c-0.079-0.343-0.158-0.785-0.158-0.785l-0.843,0.074L-360,47  c0.028-0.571,0.904-2.186,0.932-2.762c0.207,0.032,0.775,0.131,0.816,0.246c0.054,0.147,0.212,0.123,0.212,0.123l0.368-0.885  c0,0,0.132-0.246,0.344-0.246C-357.118,43.477-356.09,43.477-356.09,43.477z"/>
<path fill="#000000" d="M-356.554,52.283c0,0,1.028,0.517,1.001,1.622c-0.025,1.104-0.578,1.769-0.843,1.938  c-0.264,0.174-1.608,0-1.608,0s-0.316-0.049-0.396-0.393c-0.079-0.346-0.158-0.786-0.158-0.786l-0.843,0.073L-360,55  c0.03-0.51,0.549-1.309,0.584-1.939c0.215,0.035,0.661,0.119,0.7,0.229c0.054,0.147,0.213,0.123,0.213,0.123l0.368-0.886  c0,0,0.131-0.244,0.343-0.244C-357.581,52.283-356.554,52.283-356.554,52.283z"/>
<path fill="#000000" d="M-362.349,38.459c0.275,0.264,0.65,0.426,1.064,0.426c0.84,0,1.521-0.67,1.521-1.497  c0-0.828-0.682-1.499-1.521-1.499c-0.841,0-1.522,0.671-1.522,1.499C-362.807,37.809-362.631,38.188-362.349,38.459z   M-363.167,45.223l-0.001,0.005c-0.029,0.117-0.046,0.241-0.046,0.37c0,0.004,0,0.007,0,0.012l-2.025,16.708l0.001,0.363  l-1.585,0.002l0.002-0.365l-1.98-16.878l-0.047,0.004c-0.077-0.754-0.727-1.344-1.514-1.344c-0.842,0-1.523,0.67-1.523,1.498  c0,0.828,0.682,1.498,1.523,1.498c0.437,0,0.83-0.182,1.107-0.471l0.343,6.574c-0.277-0.376-0.726-0.621-1.233-0.621  c-0.84,0-1.521,0.671-1.521,1.498c0,0.826,0.682,1.497,1.521,1.497c0.251,0,0.489-0.062,0.697-0.166l-0.733,6.909l-0.007,0.371  h-0.528c0,0-0.027-0.644-0.27-1.444c-0.246-0.802-1.497-2.995-1.687-4.091c-0.041-0.236-0.125-1.553-0.232-3.473v-0.644  c0,0-0.013,0.001-0.035,0.005c-0.107-1.984-0.233-4.487-0.362-7.075l0.04,0.015v-1.743c0,0-0.05,0.006-0.122,0.018  c-0.1-2.038-0.196-4.068-0.283-5.887l0,0l-0.079-1.701c0,0,0.084-0.013,0,0c-0.138-2.933-0.23-4.979-0.23-4.979  s-0.219-1.604,0.869-1.657c1.087-0.054,6.524,0,6.524,0s6.251-0.065,7.339-0.012c1.086,0.053,0.869,1.657,0.869,1.657  s-0.08,1.773-0.204,4.384c-0.072-0.013-0.121-0.018-0.121-0.018v1.743l0.043-0.016c-0.094,1.963-0.201,4.217-0.312,6.48  c-0.061-0.01-0.099-0.014-0.099-0.014v1.743l0.015-0.006c-0.128,2.595-0.255,5.103-0.362,7.085c-0.069-0.011,0,0,0,0l-0.115,1.729  l0.019-0.007c-0.076,1.306-0.136,2.171-0.167,2.358c-0.192,1.096-1.441,3.288-1.687,4.09c-0.246,0.803-0.272,1.444-0.272,1.444  l-0.61,0.002l-0.008-0.36l-0.466-6.976c0.235,0.146,0.514,0.231,0.812,0.231c0.842,0,1.522-0.67,1.522-1.497  s-0.681-1.498-1.522-1.498c-0.453,0-0.857,0.194-1.137,0.503l0.35-6.358c0.269,0.232,0.62,0.373,1.006,0.373  c0.84,0,1.521-0.67,1.521-1.498c0-0.828-0.682-1.498-1.521-1.498C-362.402,44.1-362.998,44.577-363.167,45.223z M-369.629,38.38  c0.236-0.264,0.382-0.61,0.382-0.992c0-0.828-0.684-1.499-1.523-1.499c-0.841,0-1.521,0.671-1.521,1.499  c0,0.827,0.681,1.497,1.521,1.497C-370.317,38.885-369.911,38.689-369.629,38.38z"/>
<path fill="#000000" d="M-358.58,36.062c-0.023,0.536-0.05,1.109-0.078,1.71l-0.043,0.016v-1.743  C-358.701,36.044-358.652,36.049-358.58,36.062z"/>
<path fill="#000000" d="M-372,53v2l-1.039-0.27l-0.843-0.072c0,0-0.079,0.441-0.159,0.787c-0.078,0.344-0.395,0.392-0.395,0.392  s-1.345,0.173-1.608,0c-0.263-0.171-0.816-0.834-0.844-1.938c-0.026-1.105,1.002-1.621,1.002-1.621s1.027,0,1.239,0  c0.211,0,0.342,0.244,0.342,0.244l0.37,0.885c0,0,0.158,0.025,0.21-0.122c0.047-0.128,0.67-0.226,0.818-0.246  C-372.893,53.256-372.011,52.794-372,53z"/>
<path fill="#000000" d="M-373,46l-0.395-0.066l-0.845-0.074c0,0-0.078,0.442-0.157,0.785c-0.079,0.346-0.396,0.395-0.396,0.395  s-1.345,0.172-1.606,0c-0.265-0.173-0.818-0.836-0.845-1.941c-0.025-1.105,1.002-1.621,1.002-1.621s1.028,0,1.238,0  c0.211,0,0.344,0.246,0.344,0.246l0.368,0.885c0,0,0.158,0.024,0.211-0.123c0.039-0.11,0.599-0.211,0.817-0.246  C-373.236,44.811-373.026,45.434-373,46z"/>
<path fill="#000000" d="M-373,38.475l-0.738-0.656l-0.843-0.074c0,0-0.079,0.441-0.158,0.785c-0.079,0.346-0.396,0.394-0.396,0.394  s-1.345,0.173-1.608,0c-0.265-0.173-0.817-0.835-0.843-1.941c-0.027-1.104,1.001-1.62,1.001-1.62s1.027,0,1.238,0  c0.212,0,0.343,0.245,0.343,0.245l0.369,0.884c0,0,0.158,0.025,0.212-0.121c0.038-0.107,0.593-0.209,0.815-0.246  C-373.582,36.663-373.027,37.883-373,38.475z"/>
<path fill="#000000" d="M-355.723,31c0,0,1.027,0.516,1.002,1.621c-0.026,1.105-0.58,1.77-0.845,1.941c-0.262,0.171-1.606,0-1.606,0  s-0.316-0.051-0.396-0.394s-0.158-0.785-0.158-0.785l-0.845,0.073l-0.43,0.262c0.028-0.601-0.023-1.464,0-2  c0.219,0.034,1.077,0.178,1.116,0.288c0.053,0.147,0.211,0.124,0.211,0.124l0.368-0.885c0,0,0.133-0.246,0.344-0.246  C-356.751,31-355.723,31-355.723,31z"/>
<path fill="#000000" d="M-373,34.193l-0.738-0.656l-0.843-0.074c0,0-0.079,0.441-0.158,0.785c-0.079,0.346-0.396,0.394-0.396,0.394  s-1.345,0.173-1.608,0c-0.265-0.173-0.817-0.835-0.843-1.941c-0.027-1.104,1.001-1.62,1.001-1.62s1.027,0,1.238,0  c0.212,0,0.343,0.245,0.343,0.245l0.369,0.884c0,0,0.158,0.025,0.212-0.121c0.038-0.107,0.593-0.209,0.815-0.246  C-373.582,32.382-373.027,33.602-373,34.193z"/>
<path fill="#000000" d="M-373.423,41.945l-0.063-0.024l-0.77-0.067c0,0-0.072,0.404-0.145,0.717  c-0.072,0.315-0.361,0.359-0.361,0.359s-1.227,0.158-1.468,0c-0.241-0.157-0.746-0.763-0.77-1.771  c-0.024-1.01,0.914-1.48,0.914-1.48s0.938,0,1.13,0c0.193,0,0.313,0.225,0.313,0.225l0.337,0.808c0,0,0.145,0.022,0.193-0.112  c0.035-0.098,0.413-0.172,0.616-0.205C-373.472,40.885-373.448,41.404-373.423,41.945z"/>
<path fill="#000000" d="M-373,50.267l-0.063-0.024l-0.77-0.067c0,0-0.072,0.404-0.145,0.719c-0.072,0.313-0.361,0.358-0.361,0.358  s-1.227,0.157-1.468,0c-0.241-0.158-0.747-0.764-0.771-1.772c-0.024-1.008,0.915-1.481,0.915-1.481s0.939,0,1.131,0  c0.193,0,0.312,0.225,0.312,0.225l0.336,0.807c0,0,0.146,0.023,0.194-0.111c0.034-0.098,0.412-0.172,0.616-0.205  C-373.049,49.207-373.024,49.726-373,50.267z"/>
<path fill="#000000" d="M-359,41.945l0.063-0.024l0.77-0.067c0,0,0.072,0.404,0.145,0.717c0.072,0.315,0.361,0.359,0.361,0.359  s1.227,0.158,1.468,0c0.241-0.157,0.746-0.763,0.77-1.771c0.025-1.01-0.914-1.48-0.914-1.48s-0.938,0-1.13,0  c-0.193,0-0.313,0.225-0.313,0.225l-0.337,0.808c0,0-0.144,0.022-0.193-0.112c-0.034-0.098-0.412-0.172-0.616-0.205  C-358.951,40.885-358.975,41.404-359,41.945z"/>
<path fill="#000000" d="M-359.576,50.267l0.062-0.024l0.771-0.067c0,0,0.072,0.404,0.144,0.719c0.072,0.313,0.361,0.358,0.361,0.358  s1.228,0.157,1.468,0c0.241-0.158,0.747-0.764,0.771-1.772c0.024-1.009-0.914-1.479-0.914-1.479s-0.938,0-1.131,0  s-0.313,0.225-0.313,0.225l-0.336,0.807c0,0-0.145,0.023-0.193-0.111c-0.035-0.098-0.413-0.172-0.617-0.205  C-359.527,49.207-359.553,49.726-359.576,50.267z"/>
<path fill="#000000" d="M-356.081-102.042c0,0,0.965,0.484,0.941,1.522c-0.025,1.038-0.545,1.66-0.793,1.822  c-0.247,0.16-1.509,0-1.509,0s-0.297-0.047-0.371-0.369c-0.074-0.322-0.148-0.737-0.148-0.737l-0.793,0.068L-359-99  c0.026-0.563,0.101-1.822,0.123-2.326c0.205,0.032,0.73,0.126,0.768,0.229c0.049,0.139,0.197,0.116,0.197,0.116l0.346-0.83  c0,0,0.125-0.231,0.322-0.231C-357.046-102.042-356.081-102.042-356.081-102.042z"/>
<path fill="#000000" d="M-356.426-94.348c0,0,0.965,0.484,0.94,1.522c-0.024,1.037-0.544,1.66-0.792,1.822s-1.51,0-1.51,0  s-0.297-0.046-0.371-0.369c-0.074-0.323-0.148-0.738-0.148-0.738l-0.792,0.069L-360-91c0.026-0.536,0.754-2.091,0.778-2.632  c0.195,0.031,0.728,0.123,0.767,0.23c0.05,0.139,0.199,0.115,0.199,0.115l0.346-0.83c0,0,0.123-0.231,0.322-0.231  C-357.391-94.348-356.426-94.348-356.426-94.348z"/>
<path fill="#000000" d="M-356.86-86.08c0,0,0.965,0.486,0.939,1.523c-0.023,1.037-0.543,1.66-0.791,1.82  c-0.248,0.162-1.511,0-1.511,0s-0.297-0.045-0.371-0.367c-0.073-0.324-0.147-0.74-0.147-0.74l-0.792,0.07L-360-83  c0.028-0.479,0.311-1.771,0.344-2.365c0.201,0.033,0.729,0.125,0.766,0.23c0.051,0.139,0.199,0.115,0.199,0.115l0.346-0.83  c0,0,0.123-0.23,0.322-0.23C-357.826-86.08-356.86-86.08-356.86-86.08z"/>
<path fill="#000000" d="M-372-85l1,2l-1.338-0.781l-0.791-0.068c0,0-0.074,0.414-0.148,0.738c-0.074,0.322-0.371,0.369-0.371,0.369  s-1.263,0.16-1.511,0c-0.246-0.162-0.766-0.783-0.791-1.822c-0.025-1.037,0.94-1.521,0.94-1.521s0.965,0,1.163,0  c0.198,0,0.321,0.23,0.321,0.23l0.348,0.83c0,0,0.148,0.023,0.197-0.115c0.043-0.121,0.628-0.211,0.768-0.23  C-372.2-85.166-372.011-85.193-372-85z"/>
<path fill="#000000" d="M-372-91l-0.672-1.042l-0.793-0.069c0,0-0.074,0.415-0.148,0.738c-0.074,0.323-0.371,0.369-0.371,0.369  s-1.262,0.162-1.509,0c-0.248-0.162-0.768-0.785-0.793-1.822c-0.023-1.038,0.941-1.522,0.941-1.522s0.965,0,1.163,0  c0.197,0,0.322,0.231,0.322,0.231l0.346,0.83c0,0,0.148,0.023,0.197-0.115c0.037-0.104,0.562-0.197,0.768-0.23  C-372.523-93.096-372.025-91.533-372-91z"/>
<path fill="#000000" d="M-372-98.527l-0.994-1.167l-0.791-0.07c0,0-0.074,0.416-0.148,0.738c-0.074,0.324-0.371,0.369-0.371,0.369  s-1.263,0.162-1.511,0c-0.247-0.162-0.768-0.784-0.791-1.822c-0.025-1.038,0.939-1.521,0.939-1.521s0.966,0,1.163,0  c0.199,0,0.322,0.23,0.322,0.23l0.346,0.83c0,0,0.148,0.024,0.199-0.114c0.035-0.102,0.556-0.197,0.766-0.231  C-372.848-100.779-372.025-99.083-372-98.527z"/>
<path fill="#000000" d="M-362.301-99.058c0.258,0.248,0.61,0.4,0.999,0.4c0.789,0,1.429-0.63,1.429-1.406  c0-0.777-0.64-1.407-1.429-1.407c-0.79,0-1.43,0.63-1.43,1.407C-362.731-99.669-362.566-99.312-362.301-99.058z M-363.07-92.708  l-0.001,0.005c-0.028,0.11-0.043,0.227-0.043,0.347c0,0.005,0,0.007,0,0.011l-1.902,15.686l0.002,0.342l-1.488,0.002l0.002-0.344  l-1.859-15.844l-0.044,0.004c-0.073-0.708-0.682-1.262-1.421-1.262c-0.79,0-1.431,0.629-1.431,1.405  c0,0.777,0.641,1.407,1.431,1.407c0.409,0,0.779-0.17,1.039-0.442l0.322,6.171c-0.26-0.352-0.682-0.582-1.158-0.582  c-0.788,0-1.429,0.631-1.429,1.406s0.641,1.406,1.429,1.406c0.236,0,0.459-0.057,0.655-0.156l-0.689,6.486l-0.006,0.348h-0.496  c0,0-0.025-0.602-0.254-1.355c-0.23-0.752-1.404-2.812-1.583-3.842c-0.038-0.221-0.117-1.457-0.218-3.26v-0.602  c0,0-0.012,0-0.033,0.004c-0.101-1.863-0.22-4.212-0.34-6.642l0.037,0.014v-1.637c0,0-0.046,0.006-0.114,0.017  c-0.094-1.914-0.184-3.82-0.266-5.526l0,0l-0.074-1.597c0,0,0.078-0.013,0,0c-0.129-2.754-0.217-4.674-0.217-4.674  s-0.205-1.506,0.816-1.557c1.021-0.05,6.125,0,6.125,0s5.869-0.062,6.891-0.011c1.02,0.049,0.816,1.556,0.816,1.556  s-0.075,1.665-0.191,4.115c-0.068-0.011-0.114-0.017-0.114-0.017v1.637l0.04-0.015c-0.088,1.843-0.188,3.959-0.293,6.083  c-0.056-0.008-0.092-0.012-0.092-0.012v1.637l0.014-0.006c-0.12,2.436-0.239,4.79-0.34,6.652c-0.065-0.01-0.108-0.016-0.108-0.016  v1.639l0.018-0.008c-0.071,1.227-0.128,2.039-0.157,2.215c-0.18,1.029-1.353,3.088-1.583,3.84c-0.23,0.754-0.256,1.357-0.256,1.357  h-0.572l-0.008-0.338l-0.438-6.549c0.221,0.139,0.482,0.219,0.763,0.219c0.79,0,1.43-0.631,1.43-1.406s-0.64-1.406-1.43-1.406  c-0.425,0-0.805,0.184-1.067,0.473l0.328-5.969c0.252,0.217,0.582,0.35,0.944,0.35c0.788,0,1.428-0.63,1.428-1.407  c0-0.776-0.64-1.405-1.428-1.405C-362.352-93.762-362.911-93.315-363.07-92.708z M-369.137-99.132  c0.222-0.248,0.357-0.573,0.357-0.932c0-0.777-0.641-1.407-1.429-1.407c-0.791,0-1.429,0.63-1.429,1.407  c0,0.776,0.638,1.406,1.429,1.406C-369.782-98.658-369.4-98.842-369.137-99.132z"/>
<g>
	<path fill="#000000" d="M63-88c0,1.104-0.896,2-2,2H37c-1.104,0-2-0.896-2-2v-15c0-1.104,0.896-2,2-2h24c1.104,0,2,0.896,2,2V-88z"/>
</g>
<rect x="41" y="-105" width="16" height="6"/>
<g>
	<path d="M42-92c0,0.55-0.225,1-0.5,1S41-91.45,41-92v-7c0-0.55,0.225-1,0.5-1s0.5,0.45,0.5,1V-92z"/>
</g>
<g>
	<path d="M57-92c0,0.55-0.225,1-0.5,1S56-91.45,56-92v-7c0-0.55,0.225-1,0.5-1s0.5,0.45,0.5,1V-92z"/>
</g>
<g>
	<path d="M49-92c0,0.55-0.225,1-0.5,1S48-91.45,48-92v-7c0-0.55,0.225-1,0.5-1s0.5,0.45,0.5,1V-92z"/>
</g>
<rect x="41" y="-109" width="16" height="11"/>
<polygon fill="#000000" points="-96,59 -96,54 -96,54 -96,52 -99,52 -99,48 -101,48 -101,45 -102,45 -102,41 -97,41 -97,44 -96,44   -96,48 -96,48 -96,29 -95,29 -95,28 -91,28 -91,28.756 -91,28.756 -91,44 -90,44 -90,40 -87,40 -87,44 -86,44 -86,40 -83,40   -83,44.635 -83,44.635 -83,34 -81,34 -81,33 -79,33 -79,34 -78,34 -78,55 -80,55 -80,59 "/>
<polygon fill="#000000" points="-97,44 -97,39.756 -97,39.756 -97,39 -100,39 -100,40 -101,40 -101,44 "/>
<path fill="#000000" d="M-30,45"/>
<rect x="-91.61" y="28" width="0.911" height="0.912"/>
<rect x="-82" y="33" fill="#000000" width="3" height="2"/>
<rect x="-82" y="32" width="3" height="1"/>
<path fill="#000000" d="M-30,34"/>
<rect x="-84" y="39" width="1" height="5"/>
<g>
	<path d="M-263.751,22.9c0,0,33.268-22.151,71.447,0.119"/>
	<g>
		<path d="M-192.304,23.02c-0.086,44.2-34.932,59.947-34.932,59.947c-0.251,0.113-0.607,0.206-0.792,0.206s-0.541-0.093-0.791-0.207    c0,0-34.847-15.864-34.933-60.065"/>
	</g>
	<polygon points="-193,27 -263,27 -262,22 -194,22  "/>
	<polygon points="-263,23 -259,23 -259,23  "/>
</g>
<path fill="#000000" d="M-227.758,53.389c0.439,2.053,0.87,1.451,0.87,1.451s0.197,0.171,0.387,0.7c0.141,0.394,0.291,0.291,0.291,0  c0-0.29,0.369,0.37,0.501,0.714c0.133,0.344,0.291,0.211,0.238-0.105c-0.053-0.316,0.026-0.396,0.211,0.053  c0.185,0.449,0.607,0.714,0.607,0.714c-0.053-0.265,0.079-0.317,0.079-0.317c0.211,0.502,0.554,0.767,0.554,0.767  c0-0.105,0.159-0.237,0.159-0.237c-0.026,0.211,0.185,0.396,0.66,1.004c0.475,0.608,0.529,0.869,0.529,0.869s0-0.66-0.053-1.003  c-0.053-0.345,0.053-0.636-0.186-0.872c-0.237-0.236,0.106-0.105,0.106-0.105s-0.291-0.422-0.502-0.606  c-0.212-0.185,0.211-0.054,0.211-0.054s-0.211-0.476-0.449-0.58c-0.237-0.105,0.105-0.133,0.105-0.133s-0.264-0.265-0.528-0.476  c-0.264-0.211-0.132-0.476,0.106-0.157c0.237,0.315,0.211,0.104,0.211,0.104c-0.026-0.265,0.079-0.37,0.29,0.079  c0.212,0.449,0.607,0.476,0.607,0.476s-0.132-0.423-0.053-0.37c0.08,0.053,0.37,0.344,0.581,0.635s0.317,0.157,0.265-0.158  c-0.053-0.317,0.026-0.186,0.476,0.289c0.448,0.477,0.501,0.238,0.501,0.238c-0.079-0.423,0-0.555,0-0.555  c0.212,0.316,0.608,0.66,0.872,0.846c0.265,0.186,0.29-0.105,0.211-0.344s0.212-0.025,0.396,0.186s0.66,0.422,0.713,0.316  c0.053-0.105-0.026-0.449-0.026-0.449s0.423,0.291,0.871,0.528c0.449,0.237,0.291-0.187,0.291-0.187s0,0,0.501,0.317  c0.502,0.317,0.291-0.211,0.291-0.211c0.105,0.132,0.792,0.343,1.399,0.528c0.608,0.185,1.004,0.527,1.004,0.527  c-0.105-0.369-0.951-0.951-1.294-1.215c-0.344-0.265-0.317-0.238-0.607-0.635c-0.291-0.396-0.713-0.501-0.713-0.501l0.265-0.132  c-0.212-0.344-0.846-0.423-0.846-0.423c0.105-0.054,0.105-0.186,0.105-0.186c-0.316-0.344-1.003-0.344-1.003-0.344  c0.158-0.026,0.316-0.132,0.316-0.132s-0.053-0.186-0.316-0.291c-0.265-0.105-0.846-0.105-0.846-0.105l0.132-0.132  c0.212-0.104-0.448-0.317-0.448-0.317s-0.344,0.026-0.555-0.157c-0.212-0.185-0.634-0.132-0.634-0.132  c0.132-0.053,0.105-0.265,0.105-0.265c-0.449-0.133-1.057-0.079-1.057-0.079c0.132-0.08,0.079-0.238,0.079-0.238  c-0.449-0.185-1.215,0.158-0.95,0.027c0.264-0.133-0.053-0.212-0.053-0.212c-0.265-0.053-0.555,0.054-0.846,0.079  c-0.291,0.026-0.079-0.211-0.079-0.211c-0.158-0.132-0.344-0.449-0.344-0.449s1.03,0.29,1.506,0.317  c0.476,0.024,0.396-0.08,0.079-0.345c-0.317-0.265,0.607-0.053,0.978,0c0.369,0.054,1.029,0.186,0.607-0.104  c-0.423-0.291-0.317-0.396-0.317-0.396s0.846,0.104,1.373,0.236c0.528,0.133-0.053-0.555-0.053-0.555s0.634,0.238,1.03,0.266  c0.396,0.026,0.66-0.027,0.502-0.105c-0.158-0.079-0.37-0.581-0.37-0.581s0.925,0.185,1.373,0.185c0.449,0-0.105-0.554-0.105-0.554  s0.792,0.079,1.162,0.079c0.369,0-0.291-0.528-0.291-0.528s1.294,0.264,1.347,0.079c0.053-0.185-0.264-0.476-0.264-0.476  s0,0,0.924,0c0.925,0,0.344-0.476,0.344-0.476c1.374,0.106,0.978-0.369,0.978-0.369c1.109,0.079,0.766-0.423,0.766-0.423  c0.37,0.053,0.846-0.291,0.846-0.291s0.237-0.026,0.581-0.185c0.343-0.158,1.108-0.237,1.663-0.343  c0.556-0.106-0.66-0.213-1.161-0.239l0,0c-0.502-0.026-1.083,0.291-1.294,0.079c-0.212-0.211-0.846-0.026-0.846-0.026  c-0.185-0.476-1.056,0.053-0.897-0.105c0.159-0.158-0.079-0.264-0.37-0.237c-0.29,0.026-0.766,0.132-0.766,0.132  s0.343-0.291-0.132-0.185c-0.476,0.105-0.978,0.343-0.978,0.343c0.053-0.132,0.105-0.422-0.133-0.369  c-0.237,0.053-0.766,0.423-0.766,0.423l-0.053-0.265c-0.396,0.105-0.897,0.528-0.897,0.528c0.053-0.291-0.053-0.449-0.37-0.291  c-0.316,0.159-0.792,0.502-0.792,0.502l0.026-0.396c0,0-0.396,0.08-0.607,0.291c-0.211,0.211-0.476,0.344-0.476,0.344  c0.132-0.186-0.079-0.344-0.079-0.344c-0.449,0.211-0.897,0.713-0.897,0.713V47.8c0,0-0.423,0.159-0.607,0.37  c-0.186,0.211-0.528,0.423-0.528,0.423c0.079-0.237-0.105-0.344-0.105-0.344c-0.502,0.186-1.03,0.819-1.03,0.819l-0.105-0.344  c-0.344,0.158-0.872,0.846-0.872,0.846c-0.026-0.265-0.185-0.238-0.396,0.026c-0.212,0.264-0.555,0.739-0.555,0.739l-0.079-0.237  c0,0-0.158,0.211-0.555,0.581c-0.396,0.369-1.109,0.688-1.611,0.95c-0.501,0.266,0.396-0.66,0.714-0.95  c0.316-0.291,0.712-0.607,0.712-0.607c-0.211,0-0.369-0.185-0.369-0.185c0.476-0.105,1.083-0.74,1.479-0.846  c0.396-0.105,0.396-0.344,0.105-0.344c-0.29,0-0.422-0.079-0.422-0.079c0.581-0.132,1.294-0.634,1.558-0.818  c0.265-0.185-0.37-0.265-0.37-0.265s0.396-0.264,0.688-0.396c0.29-0.132,0.131-0.237,0.131-0.237  c0.344-0.053,0.661-0.211,0.555-0.344c-0.105-0.132-0.343-0.264-0.343-0.264c0.687-0.105,1.241-0.766,1.162-0.871  c-0.079-0.106-0.344-0.237-0.344-0.237c0.634-0.159,0.502-0.396,0.502-0.396c0.316-0.053,0.845-0.344,0.739-0.449  c-0.106-0.105-0.476-0.185-0.476-0.185c0.423-0.105,0.581-0.396,0.581-0.396c0.528-0.185,0.74-0.422,0.74-0.422  c-0.079-0.159-0.528-0.291-0.528-0.291c0.687-0.185,1.003-0.766,1.003-0.766c-0.131-0.105-0.448-0.159-0.448-0.159  c0.317-0.026,0.607-0.237,0.607-0.237l-0.159-0.079c0.186-0.053,0.872-0.344,0.767-0.502c-0.105-0.158-0.687-0.265-0.687-0.265  c0.369-0.105,1.32-0.687,1.241-0.818c-0.079-0.131-0.422-0.237-0.422-0.237c0.448-0.106,1.056-0.528,1.003-0.687  c-0.053-0.159-0.396-0.265-0.396-0.265c0.37-0.132,0.924-0.607,0.818-0.713c-0.106-0.106-0.396-0.105-0.396-0.105  s0.792-0.369,0.792-0.634c0-0.264-0.396-0.264-0.396-0.264c0.555-0.344,0.66-0.713,0.66-0.713l-0.316-0.133  c1.029-0.581,0.316-0.607,0.316-0.607s0.105-0.053,0.344-0.316c0.237-0.265,1.082-1.427,1.558-1.796  c0.476-0.37-0.025-0.186-0.659,0.185c-0.635,0.369-1.188,0.845-1.188,0.845c-0.185-0.053-0.607,0.502-0.607,0.502l-0.079-0.237  c0,0-0.37,0.713-0.423,0.528c-0.053-0.186-0.105-0.026-0.316,0.185c-0.212,0.211-0.238-0.079-0.238-0.079  c-0.343,0.132-0.607,0.845-0.607,0.845l-0.211-0.316c-0.264,0.158-0.476,0.634-0.476,0.634c-0.053-0.423-0.687,0.634-0.687,0.634  c-0.053-0.37-0.264-0.396-0.581,0.343c-0.316,0.74-0.343,0.396-0.343,0.396c-0.053-0.687-0.238-0.316-0.37-0.053  c-0.132,0.263-0.423,0.924-0.423,0.924c-0.053-0.132-0.026-0.739-0.396-0.132c-0.369,0.607-0.422,1.294-0.422,1.294l-0.37-0.528  c-0.344,0.423-0.423,1.426-0.423,1.426l-0.396-0.502c-0.396,0.396-0.158,1.479-0.291,1.399c-0.132-0.078-0.316-0.343-0.316-0.343  c-0.291,0.476-0.238,1.32-0.238,1.32c-0.026-0.211-0.29-0.29-0.29-0.29c-0.132,0.264-0.158,0.739-0.158,0.739  s-0.159-0.211-0.186,0.026c-0.026,0.238,0.053,0.925,0.053,0.925s-0.158-0.105-0.264-0.37c-0.106-0.265-0.265-0.29-0.237,0.291  c0.026,0.58-0.238,1.215-0.238,1.215c-0.527-0.872-0.264,1.294-0.264,1.294c-0.581,0.053-0.053,0.422-0.133,0.422  c-0.078,0-0.29,0.291-0.29,0.555c0,0.264,0,0.872-0.238,0.634c-0.237-0.237-0.211,0.185-0.131,0.423  c0.079,0.237-0.212,1.399-0.212,1.399c-0.132-0.237-0.264,0.265-0.264,0.265c-0.238,0.688-0.423,1.057-0.423,1.057  s0.132-1.214,0.291-1.638c0.158-0.423-0.212-0.158-0.212-0.158s0.105-0.186,0.344-0.581c0.237-0.396,0.343-0.978,0.555-1.241  c0.211-0.265,0.185-0.37,0.079-0.344s-0.423,0.053-0.423,0.053s0.476-0.66,0.846-1.268c0.369-0.607-0.291-0.344-0.291-0.344  c0.555-0.527,0.105-0.501,0.105-0.501c0.132-0.079,0.898-1.03,0.766-1.162s-0.66,0.026-0.66,0.026  c0.607-0.607,0.291-0.767,0.291-0.767c0.185-0.052,0.687-0.95,0.528-0.977c-0.159-0.026-0.66,0.158-0.66,0.158  c0.237-0.237,0.476-0.66,0.476-0.66l-0.317-0.053c0.265-0.159,0.66-1.03,0.528-1.057c-0.132-0.027-0.607,0.132-0.607,0.132  c0.422-0.476,0.792-1.531,0.607-1.531c-0.186,0-0.502,0.132-0.502,0.132s0.766-0.977,0.634-1.082  c-0.132-0.106-0.634,0.026-0.634,0.026c0.396-0.476,0.158-0.661,0.158-0.661s0.502-0.897,0.37-0.897  c-0.132,0-0.581,0.132-0.581,0.132c0.449-0.581,0.502-1.373,0.502-1.373c-0.265,0.026-0.502,0.265-0.502,0.265  c0.476-0.951,0.449-1.453,0.105-1.242c-0.344,0.212-0.237-0.026-0.237-0.026c0.316-0.369,0.343-1.188,0.343-1.188l-0.396,0.054  c0.185-0.317,0.501-1.215,0.264-1.188c-0.237,0.027-0.501,0.132-0.501,0.132c0.132-0.238,0.475-1.373,0.264-1.32  c-0.211,0.053-0.396,0.185-0.396,0.185c0.133-0.396,0.133-1.109,0.133-1.109c-0.133,0-0.37,0.186-0.37,0.186  c0.37-1.241-0.132-0.767-0.132-0.767c0.237-1.136-0.186-0.66-0.186-0.66s0-0.185,0.053-0.687c0.054-0.502-0.105-0.528-0.105-0.528  s-0.025-1.004,0.238-1.822c0.263-0.818,0.105-0.845-0.265-0.132c-0.37,0.713-0.766,2.482-0.766,2.482  c-0.105-0.264-0.265,0.105-0.211,0.449c0.053,0.343-0.054,0.316-0.054,0.316s0.026-0.476-0.185-0.079s0.079,1.057,0.079,1.057  s-0.211,0.026-0.316-0.159c-0.106-0.185-0.159,0-0.159,0c-0.237,0.476,0.026,1.269,0.026,1.269  c-0.237-0.396-0.396-0.265-0.396-0.265c-0.238,0.37,0.079,1.637,0.079,1.637s-0.369-0.501-0.555-0.132  c-0.186,0.37,0.264,1.479,0.264,1.479s-0.369-0.449-0.528-0.159c-0.158,0.291,0.317,1.348,0.317,1.348  c-0.317-0.344-0.449-0.186-0.449-0.186c-0.158,0.449,0.423,1.479,0.423,1.479s-0.528-0.448-0.607-0.185  c-0.079,0.263,0.185,0.818,0.185,0.818c-0.29,0.026,0.291,0.793,0.291,0.793c-0.528-0.291-0.581-0.106-0.581-0.106  c-0.053,0.37,0.158,0.74,0.158,0.74s-0.132-0.054-0.079,0.132c0.053,0.185,0.316,0.555,0.316,0.555s-0.475-0.37-0.502,0  c-0.026,0.369,0.581,1.188,0.581,1.188s-0.316-0.29-0.448-0.132c-0.133,0.158,0.396,0.978,0.396,0.978  c-0.105,0.132,0.212,0.449,0.212,0.449l-0.344-0.133c-0.29,0.186,0.634,1.109,0.237,0.978c-0.396-0.132,0.291,0.766,0.291,0.766  s-0.237,0.026-0.502-0.158c-0.264-0.185-0.185,0.185,0,0.66s0.634,1.427,0.634,1.427s-0.185-0.132-0.502-0.026  c-0.316,0.105,0.582,1.214,0.449,1.188c-0.132-0.026-0.053,0.185-0.053,0.185l0.555,0.951c0,0,0.079,0.053-0.344,0  c-0.422-0.053,0.37,1.162,0.581,1.559c0.212,0.396,0.132,0.316,0.026,0.29c-0.106-0.026-0.237-0.29,0.106,0.555  c0.343,0.846,0.185,1.348,0.185,1.348s-0.581-0.793-0.607-1.215c-0.026-0.422-0.158-0.211-0.158-0.211  c-0.211,0.211-0.265-1.373-0.238-1.77c0.027-0.396-0.079-0.555-0.29-0.132c-0.211,0.422-0.264-0.265-0.264-0.265  s0-0.845-0.026-1.082c-0.026-0.238-0.158-0.423-0.291-0.186c-0.132,0.238-0.211-0.237-0.211-0.237s0.026-0.449,0.026-1.029  c0-0.581,0.026-0.37-0.37,0c-0.396,0.369-0.211-0.186-0.158-0.291c0.053-0.105,0.211-0.581-0.026-0.449  c-0.238,0.133-0.185-0.369-0.185-0.713c0-0.343-0.106-0.105-0.265,0.08c-0.158,0.185-0.237,0.053-0.237,0.053  s-0.053-0.344-0.026-0.925c0.027-0.581-0.105-0.502-0.265-0.264c-0.158,0.237-0.316,0.026-0.316,0.026l-0.053-0.846  c0,0-0.105,0.053-0.079-0.343c0.026-0.396-0.211-0.396-0.317-0.105c-0.105,0.291-0.211,0.186-0.211,0.186s0.026-0.317,0-0.688  c-0.026-0.369-0.158-0.29-0.158-0.29s-0.026-0.528-0.158-0.476c-0.133,0.053-0.423,0.528-0.423,0.528s0.079-0.422,0.079-0.66  c0-0.237-0.237-0.211-0.237-0.211s-0.053-0.978-0.158-0.898c-0.106,0.08-0.423,0.449-0.423,0.449  c-0.026-0.872-0.132-1.505-0.291-1.452c-0.158,0.053-0.396,0.396-0.396,0.396s0-0.079-0.027-0.475  c-0.025-0.396-0.185-0.291-0.185-0.291s0.026-0.66-0.211-0.606c-0.238,0.053-0.502,0.29-0.502,0.29  c0.053-0.793-0.264-1.585-0.423-1.479c-0.158,0.106-0.343,0.423-0.343,0.423c-0.027-0.502-0.396-1.294-0.556-1.268  c-0.158,0.026-0.316,0.237-0.316,0.237c-0.053-0.634-0.344-1.083-0.555-1.057c-0.211,0.027-0.29,0.344-0.29,0.344  s-0.026-0.37-0.212-0.766c-0.185-0.396-0.396-0.079-0.396-0.079c-0.105-0.634-0.37-0.793-0.37-0.793l-0.211,0.079  c0.026-0.634-0.925-1.742-1.4-2.561c-0.475-0.819,0.027,0.792,0.159,1.319c0.132,0.528,0.501,0.767,0.369,1.109  c-0.132,0.344,0.079,0.66,0.079,0.66c-0.448-0.158,0.159,0.872,0.159,0.872c-0.66-0.133,0.211,0.95,0.211,0.95  c-0.687-0.211,0.238,1.03,0.238,1.03c-0.635-0.026,0.527,1.109,0.527,1.109s-0.396-0.265-0.527,0.105  c-0.133,0.37,0.977,1.004,0.977,1.004s-0.185-0.054-0.396,0.158c-0.212,0.211,0.554,0.607,0.554,0.607  c-0.211,0.132,0.37,0.422,0.37,0.422s-0.237-0.105-0.449,0.133c-0.211,0.237,0.555,0.66,0.555,0.66  c-0.328,0.117,0.218,0.359,0.344,0.412c-0.087-0.033-0.37-0.113-0.37,0.222c0,0.396,1.162,1.029,1.162,1.029  s-0.476-0.158-0.476,0.212c0,0.37,1.188,0.845,1.188,0.845l-0.502,0.212c0.08,0.316,1.268,0.792,1.268,0.792  c-0.369-0.105-0.528,0.132-0.528,0.132c0.159,0.37,0.449,0.396,1.03,0.766s-0.133-0.026,0,0.344  c0.132,0.369,0.766,0.607,0.766,0.607c-0.316,0,0.423,0.396,0.423,0.396s-0.344,0.026-0.264,0.186  c0.079,0.158,0.58,0.369,0.66,0.528c0.079,0.157,0.687,0.448,0.687,0.448s-0.449,0.053-0.344,0.158  c0.105,0.106,0.898,0.528,1.268,0.66s0.607,0.317,0.291,0.291s-0.265,0.237-0.265,0.237s0.792,0.317,1.215,0.555  c0.423,0.238,0.687,0.634,0.687,0.634s-0.264,0.185,0.053,0.291c0.317,0.105,1.295,1.32,1.295,1.32s-1.373-0.925-1.611-1.426  c-0.237-0.502-0.185,0.08-0.185,0.08s-0.317-0.238-0.66-0.819c-0.344-0.581-0.449-0.502-0.449-0.237  c0,0.265-0.448-0.291-0.581-0.607c-0.132-0.316-0.448-0.607-0.448-0.449c0,0.158-0.212,0.133-0.212,0.133l-0.581-0.502  c0,0-0.369-0.767-0.475-0.687c-0.106,0.078-0.132,0.343-0.132,0.343c-0.027,0.265-0.027,0.555-0.106,0.237  c-0.079-0.316-0.871-1.294-0.871-1.294s0,0.898-0.186,0.607c-0.185-0.291-1.029-1.215-1.108-1.082  c-0.079,0.132-0.159,0.422-0.159,0.422s-0.792-1.029-1.003-1.003c-0.212,0.026-0.133,0.369-0.133,0.369  c-0.079-0.29-0.766-0.95-0.845-0.845c-0.079,0.105-0.079,0.449-0.079,0.449c-0.186-0.344-0.897-0.898-0.977-0.819  c-0.08,0.079-0.054,0.476-0.054,0.476c-0.132-0.317-0.818-0.95-0.924-0.871c-0.106,0.079-0.186,0.343-0.186,0.343  s-0.633-0.739-0.766-0.66c-0.132,0.08-0.132,0.396-0.132,0.396s-0.528-0.476-0.687-0.476s-0.158,0.37-0.158,0.37  s-0.449-0.396-0.634-0.449c-0.186-0.053-0.265,0.132-0.265,0.132c-0.211-0.185-1.822-0.792-2.482-0.978  c-0.66-0.185,0.29,0.423,0.792,0.714c0.502,0.29,1.295,1.003,1.295,1.003s-0.159,0.026,0,0.185c0.158,0.159,0.475,0.423,0.475,0.423  s-0.237-0.053-0.158,0.159c0.08,0.211,0.898,0.343,0.898,0.343s-0.344,0.026-0.212,0.265c0.132,0.237,0.819,0.343,0.819,0.343  c-0.212,0.053-0.212,0.264-0.212,0.264c0.396,0.37,1.109,0.476,1.109,0.476c-1.136,0.37,0.607,0.607,0.607,0.607  s-0.317,0.186-0.053,0.344c0.264,0.158,1.057,0.291,1.057,0.291s-0.607,0.131-0.212,0.422c0.396,0.291,1.347,0.317,1.347,0.317  s-0.634,0.211-0.316,0.423c0.316,0.211,1.294,0.211,1.294,0.211s-0.449,0.264-0.185,0.449c0.264,0.185,1.215,0.079,1.215,0.079  s-0.423,0.211-0.026,0.396c0.396,0.186,1.399,0.027,1.399,0.027c-0.555,0.077-0.423,0.422,0.265,0.447  c0.687,0.025,1.664,0,1.452,0.055c-0.211,0.051-0.476,0.396-0.476,0.396s0.133,0,0.66,0.026c0.528,0.025,1.32-0.291,1.109-0.054  s-0.026,0.316,0.264,0.237c0.291-0.079,1.427,0.053,1.268,0.053c-0.158,0-0.343,0.238-0.343,0.238s0.528-0.053,0.95,0.079  c0.423,0.132-1.057-0.026-1.057-0.026s-0.739-0.105-0.95-0.186c-0.211-0.079-1.003-0.133-1.003-0.133s-0.607-0.078-0.846-0.157  c-0.237-0.079,0.026,0.265,0.026,0.265s-0.713-0.212-1.03-0.265c-0.316-0.054-0.026,0.237-0.105,0.237  c-0.079,0-0.502-0.054-0.897-0.026c-0.396,0.026-0.132,0.212-0.132,0.212l-0.344-0.053c-0.713-0.187-0.316,0.211-0.528,0.211  c-0.211,0-0.316,0.104-0.185,0.158c0.131,0.053-0.079,0.211-0.423,0.211c-0.344,0-0.581,0.104-0.476,0.131  c0.105,0.027,0,0.187,0,0.187c-0.792,0.158-0.607,0.527-0.607,0.527c-0.555-0.054-0.792,0.291-0.792,0.291l0.158,0.237  c-0.924,0-0.792,0.555-0.792,0.555c-0.555,0.105-1.373,1.057-1.901,1.451c-0.528,0.396-0.053,0.291,0.502-0.025  c0.555-0.316,1.585-0.634,1.426-0.527c-0.158,0.105,0.053,0.133,0.37,0c0.316-0.133,0.66-0.316,0.422-0.054  c-0.237,0.265-0.026,0.37,0.634,0c0.66-0.369-0.29,0.265,0.238,0.104c0.527-0.157,0.792-0.447,0.792-0.447l-0.026,0.316  c0.607-0.133,0.871-0.396,0.871-0.396l-0.053,0.396c0,0,0.237,0.025,0.555-0.316c0.317-0.344,0.105,0.132,0.105,0.132  s0.476-0.211,0.767-0.396c0.29-0.186,0.079,0.185,0.079,0.185s0.211-0.054,0.634-0.396c0.422-0.345,0.132,0.157,0.132,0.157  c0.555-0.106,0.978-0.528,0.978-0.528l-0.027,0.317c0.607-0.237,1.083-0.635,1.083-0.635l-0.026,0.291  c0.739-0.265,1.294-0.924,1.268-0.845c-0.026,0.078-0.132,0.343-0.132,0.343c0.237-0.104,1.188-0.58,1.188-0.58l-0.079,0.104  c0,0,0.079-0.104,0.792-0.369s0.053,0.132,0.053,0.132l-0.502,0.265c0,0-0.766,0.29-0.58,0.29c0.185,0-0.265,0.187-0.265,0.187  c-0.423,0.104-0.634,0.422-0.396,0.396c0.238-0.026,0,0.132,0,0.132c-0.343,0-0.634,0.291-0.634,0.291  c-0.633,0-0.95,0.316-0.792,0.316c0.158,0,0.185,0.158,0.185,0.158c-0.396,0-0.818,0.423-0.818,0.423l0.291,0.104  c-0.502,0.08-0.714,0.582-0.714,0.582c-0.316,0.078-0.422,0.527-0.422,0.527c0.158-0.158,0.528-0.105,0.237,0.053  c-0.29,0.159-0.37,0.661-0.37,0.661c-0.211,0.21-0.316,1.426-0.29,1.347c0.026-0.08,0.158-0.344,0.316-0.502  c0.159-0.158,0.37-0.396,0.555-0.66c0.186-0.265,0.396-0.369,0.396-0.369l-0.044,0.177c0.032-0.021,0.109-0.052,0.281-0.099  c0.396-0.104,0.528-0.502,0.528-0.502c-0.079,0.344,0.132,0.396,0.132,0.396c0.344-0.211,0.528-0.635,0.528-0.635l0.053,0.371  c0.396-0.291,0.555-0.582,0.555-0.582v0.344c0.396-0.29,0.607-0.713,0.607-0.713c-0.026,0.316,0.08,0.369,0.08,0.369  c0.369-0.369,0.607-1.029,0.607-1.029c0.078,0.396,0.158,0.159,0.343-0.186c0.185-0.344,0.423-0.236,0.423-0.236  s0.269,0.267,0.849-1.52v4.106h0.403L-227.758,53.389L-227.758,53.389z"/>
<path fill="#000000" d="M50.115,46.777c0.439,2.054,0.869,1.452,0.869,1.452s0.197,0.171,0.388,0.7c0.142,0.394,0.291,0.291,0.291,0  c0-0.29,0.369,0.37,0.501,0.714c0.133,0.343,0.291,0.211,0.238-0.106c-0.053-0.316,0.025-0.396,0.211,0.053  c0.185,0.449,0.607,0.714,0.607,0.714c-0.054-0.265,0.078-0.317,0.078-0.317c0.211,0.502,0.555,0.766,0.555,0.766  c0-0.104,0.158-0.237,0.158-0.237c-0.025,0.211,0.186,0.396,0.66,1.004c0.475,0.608,0.528,0.871,0.528,0.871s0-0.66-0.054-1.002  c-0.053-0.345,0.054-0.636-0.186-0.873c-0.236-0.237,0.105-0.104,0.105-0.104s-0.291-0.423-0.502-0.607  c-0.211-0.185,0.211-0.053,0.211-0.053s-0.211-0.476-0.448-0.581s0.104-0.132,0.104-0.132s-0.264-0.265-0.527-0.476  s-0.133-0.476,0.105-0.158c0.237,0.316,0.211,0.105,0.211,0.105c-0.025-0.265,0.079-0.37,0.291,0.079  c0.211,0.449,0.606,0.476,0.606,0.476s-0.132-0.423-0.054-0.37c0.08,0.053,0.371,0.344,0.582,0.634  c0.211,0.291,0.316,0.158,0.265-0.158c-0.054-0.317,0.026-0.185,0.476,0.29c0.448,0.476,0.502,0.238,0.502,0.238  c-0.08-0.423,0-0.555,0-0.555c0.211,0.316,0.607,0.66,0.871,0.845c0.266,0.186,0.29-0.105,0.211-0.343  c-0.078-0.238,0.213-0.026,0.396,0.185s0.66,0.423,0.713,0.317s-0.025-0.449-0.025-0.449s0.422,0.29,0.87,0.528  c0.449,0.237,0.291-0.186,0.291-0.186s0,0,0.501,0.317c0.502,0.317,0.291-0.211,0.291-0.211c0.105,0.132,0.792,0.343,1.399,0.528  c0.608,0.186,1.004,0.528,1.004,0.528c-0.104-0.37-0.951-0.951-1.294-1.215c-0.344-0.265-0.317-0.238-0.607-0.635  c-0.291-0.396-0.713-0.501-0.713-0.501l0.266-0.132c-0.213-0.344-0.847-0.423-0.847-0.423c0.104-0.053,0.104-0.185,0.104-0.185  c-0.315-0.344-1.002-0.344-1.002-0.344c0.158-0.026,0.315-0.132,0.315-0.132s-0.053-0.186-0.315-0.291  c-0.266-0.104-0.846-0.104-0.846-0.104l0.131-0.132c0.213-0.105-0.447-0.317-0.447-0.317s-0.344,0.026-0.555-0.158  c-0.213-0.185-0.635-0.132-0.635-0.132c0.133-0.053,0.105-0.264,0.105-0.264c-0.449-0.133-1.057-0.08-1.057-0.08  c0.131-0.079,0.078-0.237,0.078-0.237c-0.449-0.185-1.215,0.158-0.949,0.026c0.264-0.132-0.054-0.211-0.054-0.211  c-0.265-0.053-0.555,0.053-0.846,0.079s-0.079-0.211-0.079-0.211c-0.158-0.132-0.344-0.449-0.344-0.449s1.029,0.29,1.506,0.317  c0.477,0.025,0.396-0.08,0.078-0.344c-0.316-0.265,0.607-0.053,0.979,0c0.369,0.053,1.029,0.185,0.607-0.105  c-0.424-0.291-0.317-0.396-0.317-0.396s0.847,0.105,1.373,0.237C58.581,44.995,58,44.309,58,44.309s0.634,0.238,1.029,0.265  c0.396,0.027,0.66-0.026,0.503-0.105c-0.158-0.079-0.37-0.581-0.37-0.581s0.925,0.185,1.373,0.185c0.449,0-0.105-0.554-0.105-0.554  s0.793,0.079,1.162,0.079s-0.291-0.528-0.291-0.528s1.295,0.264,1.348,0.079s-0.265-0.476-0.265-0.476s0,0,0.925,0  c0.924,0,0.344-0.476,0.344-0.476c1.373,0.105,0.978-0.369,0.978-0.369c1.108,0.079,0.767-0.423,0.767-0.423  c0.369,0.053,0.846-0.291,0.846-0.291s0.236-0.026,0.58-0.185c0.344-0.158,1.109-0.237,1.664-0.343  c0.556-0.106-0.66-0.213-1.161-0.239l0,0c-0.503-0.026-1.083,0.291-1.294,0.079c-0.213-0.211-0.846-0.026-0.846-0.026  c-0.186-0.476-1.057,0.053-0.897-0.105s-0.079-0.264-0.37-0.237c-0.29,0.026-0.766,0.132-0.766,0.132s0.343-0.291-0.133-0.185  c-0.476,0.105-0.978,0.343-0.978,0.343c0.054-0.132,0.104-0.422-0.133-0.369s-0.767,0.423-0.767,0.423l-0.053-0.265  c-0.396,0.105-0.896,0.528-0.896,0.528c0.053-0.291-0.053-0.449-0.371-0.291c-0.315,0.159-0.791,0.502-0.791,0.502l0.025-0.396  c0,0-0.396,0.08-0.606,0.291c-0.212,0.211-0.476,0.344-0.476,0.344c0.131-0.186-0.08-0.344-0.08-0.344  c-0.449,0.211-0.896,0.713-0.896,0.713v-0.291c0,0-0.423,0.159-0.607,0.37c-0.186,0.211-0.527,0.423-0.527,0.423  c0.078-0.237-0.105-0.344-0.105-0.344c-0.502,0.186-1.029,0.819-1.029,0.819l-0.105-0.344c-0.344,0.158-0.872,0.846-0.872,0.846  c-0.026-0.265-0.185-0.238-0.396,0.026c-0.213,0.264-0.556,0.739-0.556,0.739l-0.079-0.237c0,0-0.158,0.211-0.555,0.581  c-0.396,0.369-1.109,0.687-1.611,0.95c-0.5,0.265,0.396-0.66,0.715-0.95c0.315-0.291,0.711-0.607,0.711-0.607  c-0.211,0-0.369-0.185-0.369-0.185c0.477-0.106,1.084-0.74,1.479-0.846c0.396-0.105,0.396-0.344,0.104-0.344  c-0.289,0-0.422-0.079-0.422-0.079c0.582-0.132,1.295-0.634,1.559-0.818c0.266-0.185-0.37-0.265-0.37-0.265s0.396-0.264,0.688-0.396  c0.289-0.132,0.131-0.237,0.131-0.237c0.344-0.053,0.66-0.211,0.555-0.344c-0.105-0.132-0.343-0.264-0.343-0.264  c0.687-0.105,1.241-0.766,1.161-0.871c-0.078-0.106-0.344-0.237-0.344-0.237c0.635-0.159,0.502-0.396,0.502-0.396  c0.316-0.053,0.846-0.344,0.74-0.449c-0.107-0.105-0.477-0.185-0.477-0.185c0.423-0.105,0.581-0.396,0.581-0.396  c0.528-0.185,0.739-0.422,0.739-0.422c-0.078-0.159-0.527-0.291-0.527-0.291c0.688-0.185,1.003-0.766,1.003-0.766  c-0.131-0.105-0.448-0.159-0.448-0.159c0.317-0.026,0.607-0.237,0.607-0.237l-0.159-0.079c0.187-0.053,0.872-0.344,0.767-0.502  c-0.104-0.158-0.687-0.265-0.687-0.265c0.368-0.105,1.319-0.687,1.241-0.818c-0.08-0.131-0.422-0.237-0.422-0.237  c0.447-0.106,1.056-0.528,1.002-0.687c-0.053-0.159-0.396-0.265-0.396-0.265c0.37-0.132,0.924-0.607,0.817-0.713  c-0.105-0.106-0.396-0.105-0.396-0.105s0.792-0.369,0.792-0.634c0-0.264-0.396-0.264-0.396-0.264c0.556-0.344,0.66-0.713,0.66-0.713  l-0.315-0.133c1.028-0.581,0.315-0.607,0.315-0.607s0.105-0.053,0.345-0.316c0.237-0.265,1.082-1.427,1.558-1.796  c0.477-0.37-0.025-0.186-0.658,0.185c-0.636,0.369-1.188,0.845-1.188,0.845c-0.185-0.053-0.606,0.502-0.606,0.502l-0.08-0.237  c0,0-0.369,0.713-0.423,0.528c-0.053-0.186-0.104-0.026-0.315,0.185c-0.213,0.211-0.238-0.079-0.238-0.079  c-0.344,0.132-0.607,0.845-0.607,0.845l-0.211-0.316c-0.264,0.158-0.476,0.634-0.476,0.634c-0.054-0.423-0.687,0.634-0.687,0.634  c-0.054-0.37-0.265-0.396-0.582,0.343c-0.315,0.74-0.343,0.396-0.343,0.396c-0.053-0.687-0.237-0.316-0.37-0.053  c-0.132,0.263-0.423,0.924-0.423,0.924c-0.053-0.132-0.026-0.739-0.396-0.132s-0.422,1.294-0.422,1.294l-0.371-0.528  c-0.344,0.423-0.422,1.426-0.422,1.426l-0.396-0.502c-0.396,0.396-0.158,1.479-0.291,1.399c-0.132-0.078-0.316-0.343-0.316-0.343  c-0.291,0.476-0.238,1.32-0.238,1.32c-0.025-0.211-0.289-0.29-0.289-0.29c-0.133,0.264-0.158,0.739-0.158,0.739  s-0.159-0.211-0.186,0.026c-0.026,0.238,0.053,0.925,0.053,0.925s-0.158-0.105-0.264-0.37c-0.106-0.265-0.266-0.29-0.237,0.291  c0.026,0.58-0.238,1.215-0.238,1.215c-0.526-0.872-0.265,1.294-0.265,1.294c-0.58,0.053-0.053,0.422-0.133,0.422  c-0.078,0-0.289,0.291-0.289,0.555c0,0.264,0,0.872-0.238,0.634c-0.237-0.237-0.211,0.185-0.131,0.423  c0.078,0.237-0.213,1.399-0.213,1.399c-0.131-0.237-0.263,0.265-0.263,0.265c-0.238,0.687-0.423,1.056-0.423,1.056  s0.132-1.214,0.291-1.637c0.158-0.423-0.212-0.158-0.212-0.158s0.105-0.186,0.344-0.581c0.237-0.396,0.343-0.978,0.554-1.241  c0.211-0.265,0.186-0.37,0.08-0.344c-0.106,0.026-0.424,0.053-0.424,0.053s0.477-0.66,0.846-1.268  c0.369-0.607-0.291-0.344-0.291-0.344c0.556-0.527,0.105-0.501,0.105-0.501c0.133-0.079,0.898-1.03,0.766-1.162  c-0.131-0.132-0.66,0.026-0.66,0.026c0.607-0.607,0.291-0.767,0.291-0.767c0.186-0.052,0.688-0.95,0.529-0.977  c-0.16-0.026-0.66,0.158-0.66,0.158c0.236-0.237,0.476-0.66,0.476-0.66l-0.317-0.053c0.266-0.159,0.66-1.03,0.528-1.057  s-0.606,0.132-0.606,0.132c0.422-0.476,0.791-1.531,0.606-1.531c-0.187,0-0.502,0.132-0.502,0.132s0.767-0.977,0.634-1.082  c-0.132-0.106-0.634,0.026-0.634,0.026c0.396-0.476,0.158-0.661,0.158-0.661s0.502-0.897,0.37-0.897  c-0.133,0-0.582,0.132-0.582,0.132c0.449-0.581,0.503-1.373,0.503-1.373c-0.265,0.026-0.503,0.265-0.503,0.265  c0.477-0.951,0.449-1.453,0.105-1.242c-0.344,0.212-0.236-0.026-0.236-0.026c0.315-0.369,0.343-1.188,0.343-1.188l-0.396,0.054  c0.184-0.317,0.5-1.215,0.264-1.188c-0.237,0.027-0.502,0.132-0.502,0.132c0.133-0.238,0.476-1.373,0.265-1.32  c-0.211,0.053-0.396,0.185-0.396,0.185c0.133-0.396,0.133-1.109,0.133-1.109c-0.133,0-0.371,0.186-0.371,0.186  c0.371-1.241-0.131-0.767-0.131-0.767c0.236-1.136-0.187-0.66-0.187-0.66s0-0.185,0.054-0.687c0.053-0.502-0.105-0.528-0.105-0.528  s-0.025-1.004,0.238-1.822c0.263-0.818,0.104-0.845-0.266-0.132c-0.37,0.713-0.766,2.482-0.766,2.482  c-0.105-0.264-0.265,0.105-0.211,0.449c0.053,0.343-0.054,0.316-0.054,0.316s0.026-0.476-0.185-0.079s0.079,1.057,0.079,1.057  s-0.211,0.026-0.316-0.159c-0.106-0.185-0.159,0-0.159,0c-0.237,0.476,0.026,1.269,0.026,1.269  c-0.237-0.396-0.396-0.265-0.396-0.265c-0.238,0.37,0.079,1.637,0.079,1.637s-0.369-0.501-0.555-0.132  c-0.186,0.37,0.264,1.479,0.264,1.479s-0.369-0.449-0.528-0.159c-0.158,0.291,0.317,1.348,0.317,1.348  c-0.317-0.344-0.449-0.186-0.449-0.186c-0.158,0.449,0.423,1.479,0.423,1.479s-0.528-0.448-0.607-0.185  c-0.079,0.263,0.185,0.818,0.185,0.818c-0.29,0.026,0.291,0.793,0.291,0.793c-0.528-0.291-0.581-0.106-0.581-0.106  c-0.053,0.37,0.158,0.74,0.158,0.74s-0.132-0.054-0.079,0.132c0.053,0.185,0.316,0.555,0.316,0.555s-0.475-0.37-0.502,0  c-0.026,0.369,0.581,1.188,0.581,1.188s-0.316-0.29-0.448-0.132c-0.133,0.158,0.396,0.978,0.396,0.978  c-0.105,0.132,0.212,0.449,0.212,0.449l-0.344-0.133c-0.29,0.186,0.634,1.109,0.237,0.978c-0.396-0.132,0.291,0.766,0.291,0.766  s-0.237,0.026-0.502-0.158c-0.264-0.185-0.185,0.185,0,0.66s0.634,1.427,0.634,1.427s-0.185-0.132-0.502-0.026  c-0.316,0.105,0.582,1.214,0.449,1.188c-0.132-0.026-0.053,0.185-0.053,0.185l0.555,0.951c0,0,0.079,0.053-0.344,0  c-0.422-0.053,0.37,1.162,0.581,1.559c0.212,0.396,0.132,0.316,0.026,0.29c-0.106-0.026-0.237-0.29,0.106,0.555  c0.343,0.845,0.185,1.347,0.185,1.347s-0.581-0.792-0.607-1.215c-0.026-0.422-0.158-0.211-0.158-0.211  c-0.211,0.211-0.265-1.373-0.238-1.77c0.027-0.396-0.079-0.555-0.29-0.132c-0.211,0.422-0.264-0.265-0.264-0.265  s0-0.845-0.026-1.082c-0.026-0.238-0.158-0.423-0.291-0.186c-0.132,0.238-0.211-0.237-0.211-0.237s0.026-0.449,0.026-1.029  c0-0.581,0.026-0.37-0.37,0c-0.396,0.369-0.211-0.186-0.158-0.291c0.053-0.105,0.211-0.581-0.026-0.449  c-0.238,0.133-0.185-0.369-0.185-0.713c0-0.343-0.106-0.105-0.265,0.08c-0.158,0.185-0.237,0.053-0.237,0.053  s-0.053-0.344-0.026-0.925c0.027-0.581-0.105-0.502-0.265-0.264c-0.158,0.237-0.316,0.026-0.316,0.026l-0.053-0.846  c0,0-0.105,0.053-0.079-0.343c0.026-0.396-0.211-0.396-0.317-0.106c-0.105,0.291-0.211,0.186-0.211,0.186s0.026-0.317,0-0.688  c-0.026-0.369-0.158-0.29-0.158-0.29s-0.026-0.528-0.158-0.476c-0.133,0.053-0.423,0.528-0.423,0.528s0.079-0.422,0.079-0.66  c0-0.237-0.237-0.211-0.237-0.211s-0.053-0.978-0.158-0.898c-0.106,0.08-0.423,0.449-0.423,0.449  c-0.026-0.872-0.132-1.505-0.291-1.452c-0.158,0.053-0.396,0.396-0.396,0.396s0-0.079-0.027-0.475  c-0.025-0.396-0.185-0.291-0.185-0.291s0.026-0.66-0.211-0.606c-0.238,0.053-0.502,0.29-0.502,0.29  c0.053-0.793-0.264-1.585-0.423-1.479c-0.158,0.106-0.343,0.423-0.343,0.423c-0.027-0.502-0.396-1.294-0.556-1.268  c-0.158,0.026-0.316,0.237-0.316,0.237c-0.053-0.634-0.344-1.083-0.555-1.057c-0.211,0.027-0.29,0.344-0.29,0.344  s-0.026-0.37-0.212-0.766c-0.185-0.396-0.396-0.079-0.396-0.079c-0.105-0.634-0.37-0.793-0.37-0.793l-0.211,0.079  c0.026-0.634-0.925-1.742-1.4-2.561c-0.475-0.819,0.027,0.792,0.159,1.319c0.132,0.528,0.501,0.767,0.369,1.109  c-0.132,0.344,0.079,0.66,0.079,0.66c-0.448-0.158,0.159,0.872,0.159,0.872c-0.66-0.133,0.211,0.95,0.211,0.95  c-0.687-0.211,0.238,1.03,0.238,1.03c-0.635-0.026,0.527,1.109,0.527,1.109s-0.396-0.265-0.527,0.105  c-0.133,0.37,0.977,1.004,0.977,1.004s-0.185-0.054-0.396,0.158c-0.212,0.211,0.554,0.607,0.554,0.607  c-0.211,0.132,0.37,0.422,0.37,0.422s-0.237-0.105-0.449,0.133c-0.211,0.237,0.555,0.66,0.555,0.66  c-0.328,0.117,0.218,0.359,0.344,0.412c-0.087-0.033-0.37-0.113-0.37,0.222c0,0.396,1.162,1.029,1.162,1.029  s-0.476-0.158-0.476,0.212c0,0.37,1.188,0.845,1.188,0.845l-0.502,0.212c0.08,0.316,1.268,0.792,1.268,0.792  c-0.369-0.105-0.528,0.132-0.528,0.132c0.159,0.37,0.449,0.396,1.03,0.766c0.581,0.37-0.133-0.026,0,0.344  c0.132,0.369,0.766,0.607,0.766,0.607c-0.316,0,0.423,0.396,0.423,0.396s-0.344,0.026-0.264,0.186  c0.079,0.158,0.58,0.369,0.66,0.528c0.079,0.157,0.687,0.448,0.687,0.448s-0.449,0.053-0.344,0.158  c0.105,0.106,0.898,0.528,1.268,0.66c0.37,0.132,0.607,0.317,0.291,0.291s-0.265,0.237-0.265,0.237s0.792,0.317,1.215,0.555  c0.423,0.238,0.687,0.634,0.687,0.634s-0.264,0.185,0.053,0.291c0.317,0.105,1.295,1.32,1.295,1.32s-1.373-0.925-1.611-1.426  c-0.237-0.502-0.185,0.079-0.185,0.079s-0.317-0.238-0.66-0.819c-0.344-0.581-0.449-0.502-0.449-0.237s-0.448-0.291-0.581-0.607  c-0.132-0.316-0.448-0.607-0.448-0.449c0,0.158-0.212,0.133-0.212,0.133l-0.581-0.502c0,0-0.369-0.767-0.475-0.687  c-0.106,0.078-0.132,0.343-0.132,0.343c-0.027,0.265-0.027,0.555-0.106,0.237c-0.079-0.316-0.871-1.294-0.871-1.294  s0,0.898-0.186,0.607c-0.185-0.291-1.029-1.215-1.108-1.082c-0.079,0.132-0.159,0.422-0.159,0.422s-0.792-1.029-1.003-1.003  c-0.212,0.026-0.133,0.369-0.133,0.369c-0.079-0.29-0.766-0.95-0.845-0.845c-0.079,0.105-0.079,0.449-0.079,0.449  c-0.186-0.344-0.897-0.898-0.977-0.819s-0.054,0.476-0.054,0.476c-0.132-0.317-0.818-0.95-0.924-0.871  c-0.106,0.079-0.186,0.343-0.186,0.343s-0.633-0.739-0.766-0.66c-0.132,0.08-0.132,0.396-0.132,0.396s-0.528-0.476-0.687-0.476  c-0.159,0-0.158,0.37-0.158,0.37s-0.449-0.396-0.634-0.449c-0.186-0.053-0.265,0.132-0.265,0.132  c-0.211-0.185-1.822-0.792-2.482-0.978c-0.66-0.185,0.29,0.423,0.792,0.714c0.502,0.29,1.295,1.003,1.295,1.003  s-0.159,0.026,0,0.185c0.158,0.159,0.475,0.423,0.475,0.423s-0.237-0.053-0.158,0.159c0.08,0.211,0.898,0.343,0.898,0.343  s-0.344,0.026-0.212,0.265c0.132,0.237,0.819,0.343,0.819,0.343c-0.212,0.053-0.212,0.264-0.212,0.264  c0.396,0.37,1.109,0.476,1.109,0.476c-1.136,0.37,0.607,0.607,0.607,0.607s-0.317,0.186-0.053,0.344s1.057,0.291,1.057,0.291  s-0.607,0.131-0.212,0.422c0.396,0.291,1.347,0.317,1.347,0.317s-0.634,0.211-0.316,0.423c0.316,0.211,1.294,0.211,1.294,0.211  s-0.449,0.264-0.185,0.449c0.264,0.185,1.215,0.079,1.215,0.079s-0.423,0.211-0.026,0.396c0.396,0.186,1.399,0.027,1.399,0.027  c-0.555,0.078-0.423,0.422,0.265,0.448c0.687,0.026,1.664,0,1.452,0.054c-0.211,0.052-0.476,0.396-0.476,0.396s0.133,0,0.66,0.026  c0.528,0.026,1.32-0.291,1.109-0.053c-0.211,0.237-0.026,0.316,0.264,0.237c0.291-0.079,1.427,0.053,1.268,0.053  c-0.158,0-0.343,0.238-0.343,0.238s0.528-0.053,0.95,0.079c0.423,0.132-1.057-0.026-1.057-0.026s-0.739-0.105-0.95-0.186  c-0.211-0.079-1.003-0.132-1.003-0.132s-0.607-0.079-0.846-0.158c-0.237-0.079,0.026,0.265,0.026,0.265s-0.713-0.212-1.03-0.265  c-0.316-0.053-0.026,0.237-0.105,0.237c-0.079,0-0.502-0.053-0.897-0.026c-0.396,0.026-0.132,0.212-0.132,0.212l-0.344-0.053  c-0.713-0.186-0.316,0.211-0.528,0.211c-0.211,0-0.316,0.105-0.185,0.158c0.131,0.053-0.079,0.211-0.423,0.211  c-0.344,0-0.581,0.105-0.476,0.132c0.105,0.027,0,0.186,0,0.186c-0.792,0.158-0.607,0.527-0.607,0.527  c-0.555-0.053-0.792,0.291-0.792,0.291l0.158,0.237c-0.924,0-0.792,0.555-0.792,0.555c-0.555,0.105-1.373,1.057-1.901,1.452  c-0.528,0.396-0.053,0.291,0.502-0.026c0.555-0.317,1.585-0.634,1.426-0.528c-0.158,0.106,0.053,0.133,0.37,0  c0.316-0.132,0.66-0.316,0.422-0.053c-0.237,0.265-0.026,0.37,0.634,0c0.66-0.369-0.29,0.265,0.238,0.105  c0.527-0.158,0.792-0.448,0.792-0.448l-0.026,0.316c0.607-0.132,0.871-0.396,0.871-0.396l-0.053,0.396c0,0,0.237,0.026,0.555-0.316  c0.317-0.344,0.105,0.132,0.105,0.132s0.476-0.211,0.767-0.396c0.29-0.185,0.079,0.185,0.079,0.185s0.211-0.053,0.634-0.396  c0.422-0.344,0.132,0.158,0.132,0.158c0.555-0.106,0.978-0.528,0.978-0.528l-0.027,0.317c0.607-0.238,1.083-0.635,1.083-0.635  l-0.026,0.291c0.739-0.264,1.294-0.924,1.268-0.845s-0.132,0.343-0.132,0.343c0.237-0.105,1.188-0.58,1.188-0.58l-0.079,0.105  c0,0,0.079-0.105,0.792-0.37c0.713-0.264,0.053,0.132,0.053,0.132l-0.502,0.265c0,0-0.766,0.29-0.58,0.29  c0.185,0-0.265,0.186-0.265,0.186c-0.423,0.105-0.634,0.422-0.396,0.396c0.238-0.026,0,0.132,0,0.132  c-0.343,0-0.634,0.291-0.634,0.291c-0.633,0-0.95,0.316-0.792,0.316c0.158,0,0.185,0.159,0.185,0.159  c-0.396,0-0.818,0.422-0.818,0.422l0.291,0.105c-0.502,0.08-0.714,0.582-0.714,0.582c-0.316,0.078-0.422,0.527-0.422,0.527  c0.158-0.158,0.528-0.105,0.237,0.053c-0.29,0.159-0.37,0.662-0.37,0.662c-0.211,0.209-0.316,1.426-0.29,1.347  c0.026-0.08,0.158-0.345,0.316-0.503c0.159-0.157,0.37-0.396,0.555-0.659c0.186-0.265,0.396-0.37,0.396-0.37l-0.044,0.177  c0.032-0.021,0.109-0.052,0.281-0.098c0.396-0.104,0.528-0.502,0.528-0.502c-0.079,0.344,0.132,0.396,0.132,0.396  c0.344-0.21,0.528-0.634,0.528-0.634l0.053,0.37c0.396-0.291,0.555-0.581,0.555-0.581v0.343c0.396-0.29,0.607-0.713,0.607-0.713  c-0.026,0.317,0.08,0.37,0.08,0.37c0.369-0.37,0.607-1.03,0.607-1.03c0.078,0.396,0.158,0.159,0.343-0.185  c0.185-0.344,0.423-0.237,0.423-0.237s0.269,0.267,0.849-1.519v4.106h0.403v-4.112H50.115z"/>
</svg>