<?xml version="1.0" encoding="utf-8"?>
<!-- Generator: Adobe Illustrator 17.1.0, SVG Export Plug-In . SVG Version: 6.00 Build 0)  -->
<!DOCTYPE svg PUBLIC "-//W3C//DTD SVG 1.1//EN" "http://www.w3.org/Graphics/SVG/1.1/DTD/svg11.dtd">
<svg version="1.1" id="Layer_1" xmlns="http://www.w3.org/2000/svg" xmlns:xlink="http://www.w3.org/1999/xlink" x="0px" y="0px"
	 viewBox="0 0 250 250" enable-background="new 0 0 250 250" xml:space="preserve">
<g>
	<g>
		<g>
			<path fill="#E8E8E8" d="M250,125c0-34.4-12.2-63.9-36.6-88.4C189.1,12.2,159.5,0,125,0C90.6,0,61.1,12.2,36.6,36.6
				C12.2,61.1,0,90.6,0,125c0,34.5,12.2,64.1,36.6,88.4C61.1,237.8,90.6,250,125,250c34.5,0,64.1-12.2,88.4-36.6S250,159.5,250,125z
				 M216.7,125c0,25.3-9.1,46.9-26.9,64.8c-18,18-39.5,26.9-64.8,26.9s-46.9-8.9-64.8-26.9c-17.8-18-26.9-39.5-26.9-64.8
				s9.1-46.9,26.9-64.8c18-17.8,39.5-26.9,64.8-26.9s46.9,9.1,64.8,26.9C207.7,78.1,216.7,99.7,216.7,125z"/>
			<path fill="none" d="M189.8,189.8c17.8-18,26.9-39.5,26.9-64.8s-9.1-46.9-26.9-64.8c-18-17.8-39.5-26.9-64.8-26.9
				s-46.9,9.1-64.8,26.9c-17.8,18-26.9,39.5-26.9,64.8s9.1,46.9,26.9,64.8c18,18,39.5,26.9,64.8,26.9S171.9,207.8,189.8,189.8z"/>
		</g>
		<g>
			<path fill="#ED1C24" d="M93.4,70.8c-6.9,0-12.8,2.5-17.7,7.3c-4.8,5-7.3,10.8-7.3,17.7c0,6.9,2.5,12.8,7.3,17.7
				c4.8,5,10.8,7.3,17.7,7.3s12.8-2.3,17.7-7.3c4.8-4.8,7.3-10.8,7.3-17.7c0-6.9-2.5-12.7-7.3-17.7C106.2,73.3,100.3,70.8,93.4,70.8
				z"/>
		</g>
		<g>
			<path fill="#D5D8DF" d="M156.7,70.8c-6.9,0-12.8,2.5-17.7,7.3c-4.8,5-7.3,10.8-7.3,17.7c0,6.9,2.5,12.8,7.3,17.7
				c4.8,5,10.8,7.3,17.7,7.3s12.8-2.3,17.7-7.3c5-4.8,7.3-10.8,7.3-17.7c0-6.9-2.3-12.7-7.3-17.7C169.5,73.3,163.6,70.8,156.7,70.8z
				"/>
		</g>
		<g>
			<path fill="#D5D8DF" d="M93.4,129.2c-6.9,0-12.8,2.5-17.7,7.3c-4.8,4.8-7.3,10.8-7.3,17.7c0,6.9,2.5,12.8,7.3,17.7
				c4.8,4.8,10.8,7.3,17.7,7.3s12.8-2.5,17.7-7.3c4.8-4.8,7.3-10.8,7.3-17.7c0-6.9-2.5-12.8-7.3-17.7
				C106.2,131.7,100.3,129.2,93.4,129.2z"/>
		</g>
		<g>
			<path fill="#ED1C24" d="M156.7,129.2c-6.7,0-12.7,2.3-17.7,7.3c-5,5-7.3,10.8-7.3,17.8c0,6.7,2.3,12.7,7.3,17.5
				c5,4.8,10.9,7.3,17.7,7.3c7,0,12.8-2.5,17.7-7.3c5-4.8,7.3-10.8,7.3-17.5c0-7-2.3-12.8-7.3-17.8
				C169.5,131.6,163.7,129.2,156.7,129.2z"/>
		</g>
	</g>
</g>
</svg>
